<mxfile host="app.diagrams.net" modified="2021-01-12T08:09:05.740Z" agent="5.0 (Windows NT 10.0; Win64; x64) AppleWebKit/537.36 (KHTML, like Gecko) Chrome/87.0.4280.88 Safari/537.36" etag="E52zb7eWoUB88j8lRXQG" version="14.1.4" type="github">
  <diagram id="60c8a1ad-f533-3d75-3923-5994612bb33d" name="Page-1">
    <mxGraphModel dx="1422" dy="-375" grid="1" gridSize="10" guides="1" tooltips="1" connect="1" arrows="1" fold="1" page="1" pageScale="1" pageWidth="1654" pageHeight="1169" background="#ffffff" math="0" shadow="0">
      <root>
        <mxCell id="0" />
        <mxCell id="1" parent="0" />
        <mxCell id="2" value="" style="swimlane;shadow=0;strokeColor=#4277BB;fillColor=#ffffff;fontColor=none;align=right;startSize=0;collapsible=0;noLabel=1;strokeWidth=3;" parent="1" vertex="1">
          <mxGeometry x="9" y="1264" width="1541" height="951" as="geometry" />
        </mxCell>
        <mxCell id="4" value="Internal Services" style="text;html=1;align=left;verticalAlign=middle;fontColor=#4277BB;shadow=0;dashed=0;strokeColor=none;fillColor=none;labelBackgroundColor=none;fontStyle=1;fontSize=28;spacingLeft=5;" parent="2" vertex="1">
          <mxGeometry x="7" y="6.5" width="150" height="20" as="geometry" />
        </mxCell>
        <mxCell id="5" value="" style="line;strokeWidth=3;direction=south;html=1;shadow=0;labelBackgroundColor=none;fillColor=none;gradientColor=none;fontSize=12;fontColor=#4277BB;align=right;strokeColor=#4277BB;" parent="2" vertex="1">
          <mxGeometry x="275" y="1" width="10" height="79" as="geometry" />
        </mxCell>
        <mxCell id="7" value="Middle Platform" style="text;html=1;align=left;verticalAlign=middle;fontColor=#4277BB;shadow=0;dashed=0;strokeColor=none;fillColor=none;labelBackgroundColor=none;fontStyle=1;fontSize=28;spacingLeft=5;" parent="2" vertex="1">
          <mxGeometry x="285" y="6.5" width="315" height="20" as="geometry" />
        </mxCell>
        <mxCell id="8" value="External Services" style="text;html=1;align=left;verticalAlign=middle;fontColor=#4277BB;shadow=0;dashed=0;strokeColor=none;fillColor=none;labelBackgroundColor=none;fontStyle=1;fontSize=28;spacingLeft=5;" parent="2" vertex="1">
          <mxGeometry x="1291" y="10" width="140" height="20" as="geometry" />
        </mxCell>
        <mxCell id="12" value="" style="line;strokeWidth=3;direction=south;html=1;shadow=0;labelBackgroundColor=none;fillColor=none;gradientColor=none;fontSize=12;fontColor=#4277BB;align=right;strokeColor=#4277BB;" parent="2" vertex="1">
          <mxGeometry x="275" y="770" width="10" height="181" as="geometry" />
        </mxCell>
        <mxCell id="13" value="" style="line;strokeWidth=3;direction=south;html=1;shadow=0;labelBackgroundColor=none;fillColor=none;gradientColor=none;fontSize=12;fontColor=#4277BB;align=right;strokeColor=#4277BB;" parent="2" vertex="1">
          <mxGeometry x="1281" y="390" width="10" height="560" as="geometry" />
        </mxCell>
        <mxCell id="16" value="&lt;font style=&quot;font-size: 18px&quot;&gt;Web&lt;/font&gt;" style="aspect=fixed;html=1;perimeter=none;align=center;shadow=0;dashed=0;image;fontSize=12;image=img/lib/mscae/Virtual_Machine_2.svg;" parent="2" vertex="1">
          <mxGeometry x="71" y="660" width="50" height="50" as="geometry" />
        </mxCell>
        <mxCell id="18" value="Some&#xa;Management API" style="shape=image;imageAspect=0;aspect=fixed;verticalLabelPosition=bottom;verticalAlign=top;image=https://www.flaticon.com/svg/static/icons/svg/103/103093.svg;fontSize=18;" parent="2" vertex="1">
          <mxGeometry x="82.5" y="105.5" width="43" height="43" as="geometry" />
        </mxCell>
        <mxCell id="19" value="" style="edgeStyle=orthogonalEdgeStyle;rounded=0;html=1;labelBackgroundColor=#ffffff;startArrow=classic;startFill=1;startSize=4;endSize=4;jettySize=auto;orthogonalLoop=1;strokeColor=#4277BB;strokeWidth=2;fontSize=12;fontColor=#4277BB;exitX=1;exitY=0.5;entryX=0.02;entryY=0.47;entryPerimeter=0;" parent="2" source="18" edge="1">
          <mxGeometry relative="1" as="geometry">
            <mxPoint x="132" y="72" as="sourcePoint" />
            <Array as="points">
              <mxPoint x="125" y="122" />
            </Array>
            <mxPoint x="256" y="122" as="targetPoint" />
          </mxGeometry>
        </mxCell>
        <mxCell id="45" value="" style="swimlane;shadow=1;labelBackgroundColor=#007FFF;strokeColor=#6c8ebf;fillColor=#dae8fc;fontColor=#000000;align=right;collapsible=0;startSize=0;strokeWidth=3;swimlaneFillColor=#ffffff;" parent="2" vertex="1">
          <mxGeometry x="380.5" y="710" width="253" height="144" as="geometry" />
        </mxCell>
        <mxCell id="46" value="Admin Page" style="text;html=1;align=left;verticalAlign=middle;fontColor=#4277BB;shadow=0;dashed=0;strokeColor=none;fillColor=none;labelBackgroundColor=none;fontStyle=1;fontSize=18;spacingLeft=5;" parent="45" vertex="1">
          <mxGeometry x="60" y="10" width="152" height="20" as="geometry" />
        </mxCell>
        <mxCell id="48" value="Elasticsearch" style="shape=image;imageAspect=0;aspect=fixed;verticalLabelPosition=bottom;verticalAlign=top;image=https://blog.toright.com/wp-content/uploads/2017/07/elastic-logo.png;" parent="45" vertex="1">
          <mxGeometry x="150" y="50" width="50" height="50" as="geometry" />
        </mxCell>
        <mxCell id="04WZsUDpDwZPiG7wF4kG-186" value="Http Server" style="shape=image;imageAspect=0;aspect=fixed;verticalLabelPosition=bottom;verticalAlign=top;image=data:image/png,iVBORw0KGgoAAAANSUhEUgAAASwAAAEsCAYAAAB5fY51AAAEDWlDQ1BJQ0MgUHJvZmlsZQAAOI2NVV1oHFUUPrtzZyMkzlNsNIV0qD8NJQ2TVjShtLp/3d02bpZJNtoi6GT27s6Yyc44M7v9oU9FUHwx6psUxL+3gCAo9Q/bPrQvlQol2tQgKD60+INQ6Ium65k7M5lpurHeZe58853vnnvuuWfvBei5qliWkRQBFpquLRcy4nOHj4g9K5CEh6AXBqFXUR0rXalMAjZPC3e1W99Dwntf2dXd/p+tt0YdFSBxH2Kz5qgLiI8B8KdVy3YBevqRHz/qWh72Yui3MUDEL3q44WPXw3M+fo1pZuQs4tOIBVVTaoiXEI/MxfhGDPsxsNZfoE1q66ro5aJim3XdoLFw72H+n23BaIXzbcOnz5mfPoTvYVz7KzUl5+FRxEuqkp9G/Ajia219thzg25abkRE/BpDc3pqvphHvRFys2weqvp+krbWKIX7nhDbzLOItiM8358pTwdirqpPFnMF2xLc1WvLyOwTAibpbmvHHcvttU57y5+XqNZrLe3lE/Pq8eUj2fXKfOe3pfOjzhJYtB/yll5SDFcSDiH+hRkH25+L+sdxKEAMZahrlSX8ukqMOWy/jXW2m6M9LDBc31B9LFuv6gVKg/0Szi3KAr1kGq1GMjU/aLbnq6/lRxc4XfJ98hTargX++DbMJBSiYMIe9Ck1YAxFkKEAG3xbYaKmDDgYyFK0UGYpfoWYXG+fAPPI6tJnNwb7ClP7IyF+D+bjOtCpkhz6CFrIa/I6sFtNl8auFXGMTP34sNwI/JhkgEtmDz14ySfaRcTIBInmKPE32kxyyE2Tv+thKbEVePDfW/byMM1Kmm0XdObS7oGD/MypMXFPXrCwOtoYjyyn7BV29/MZfsVzpLDdRtuIZnbpXzvlf+ev8MvYr/Gqk4H/kV/G3csdazLuyTMPsbFhzd1UabQbjFvDRmcWJxR3zcfHkVw9GfpbJmeev9F08WW8uDkaslwX6avlWGU6NRKz0g/SHtCy9J30o/ca9zX3Kfc19zn3BXQKRO8ud477hLnAfc1/G9mrzGlrfexZ5GLdn6ZZrrEohI2wVHhZywjbhUWEy8icMCGNCUdiBlq3r+xafL549HQ5jH+an+1y+LlYBifuxAvRN/lVVVOlwlCkdVm9NOL5BE4wkQ2SMlDZU97hX86EilU/lUmkQUztTE6mx1EEPh7OmdqBtAvv8HdWpbrJS6tJj3n0CWdM6busNzRV3S9KTYhqvNiqWmuroiKgYhshMjmhTh9ptWhsF7970j/SbMrsPE1suR5z7DMC+P/Hs+y7ijrQAlhyAgccjbhjPygfeBTjzhNqy28EdkUh8C+DU9+z2v/oyeH791OncxHOs5y2AtTc7nb/f73TWPkD/qwBnjX8BoJ98VVBg/m8AAEAASURBVHgB7H0JgFxVlfZ5S+1VvSedfU8IBAiBLOwQEWQXZWQcl8FxwXEbdZz5HfUfJzM6roM/os6oyKCOioMIAgIKsggkkJU1ZN/J0kknvdW+vPd/331doQOdTne6uqsqfW/SXdVV791377n3fvds9xxDdNEUGCQF7l7xb3M6U9vPM8z8/LTVUd/atn+i3wilm+ombq6JNG8JFqwnrznz688O8jH6dk0BMTQNNAWOlwIPrfmPUzZ2PvHVQ+ndl7i+dE0654ph+MXvc0RcV3IZV8QxxLYCmTqr+ZFp9fO+ef2Cry893ufp+zQFNGDpOTBgCjy39bbm9a0vfXzzvmf+rhDI11m2TyyT1RTENExxAVKALDFMB7iVE8fF305BfLlQOmaPvy2Unfi1T1z1n/sG/GB9w4ingAasET8F+k+AJ7bdEdzatvoDu3ev/vu0fWCmFQyLJTYACuDEH9PFe/wAvAwAl1NwxTQxxfidVQCcCbguRywnvGtczZxbmhomff+GOUuy/W+BvnKkU0AD1kifAf3s//8s/9hVbYmdX2iJ7zwvUJMD5+SXvBOATqGAH4h+/SyGQe4rIy7ExXpz2rL68LSv/M0Ft/6hn7fry0Y4BTRgjfAJcKzu37PmM+fsatvw93vjO//CiIiELZE8WSU3JKYNrgmingE+q//FBYcVkLybkXwwKYXOYG6UPeaPExrO/Ld3L/zGyv7Xo68ciRTQgDUSR70ffV67/64xz239w6d3HXzl4xk7XmMHTLHdiORzjhLvTMMH3VQSOivwV+5AAAtYR12XZQD4bIAd9Fz5rFi5YOe0sWfcIZmab9947v/b3Y8m6ktGIAU0YI3AQe+ry09sWxI82BL/i20H1/zzIXffLDsCsQ+gRD2UCc6qAD2VYeSAOjbAygJY4YuBFui1HOi6wKNJDhxawXLwzpVENifBfM1rzaFJN08cP+32t8/+VtdAq9bXn9gU0IB1Yo/vgHr3xLrvXbx66+NfPGRtvJSck88OAKeOA5AG9FTvYsOgnGlCxIRiPpeXmIxdMXfylV+6+pTP/uk4qtO3nKAU0IB1gg7sQLp13+rvzGhNr1my+dDKd0NJZZmWLbYBcQ0Y4sKfajgKrYsmJEvD4PNcyThZyaTszIzGufc1+qd964azvrJ6ONqhn1HZFNCAVdnjM6St+9GjN9XGavyf3HhgxSeyVtfYYMgvhRz1Sjb8qvLQMeXFsCn2DQdocSrCJUI5P7hiO5Y4titJJy1WMnbgpOZzbp1ce84PF5/0ntYhJYquvKIpoAGroodnaBq35Ikl9lSj45rtidVfTFp759t+aJOok8Lj6E9FeDIsj9Nx4fQ5PMV7DjktAzouF+ydgTZReeaaWUllChATR724cMJ13+k0un6t/beGZ1Qq7SnDNRsrrd8jtj0PrP3mwg17nvtyW37DlYbPMGwTeipwUNRZEaocKJFMuK3zM8AW/g138Z6o9PxoA62IBqCUVsV0Hq4QaVeaIpOfnFCz6CvvOWvJ48PdOv288lJg+Odjefs7Yp9+6xPvnCDZ2OcOpFfdJCE3bNmh47PwlYmC3kSFeGrnJZuBG0Qq3F7rG3fnmFFTv/v+Bd/dUKZm6ccOMwU0YA0zwYf7cd+5610hpzF148Hkln8GRzUuGAjBQ53cEzmX6hl+C+4UeXB/BccvVjAvLt7nC1nxZXyHptefc8v0hkW3nD/7Q9oNYrgn2DA/r3pm7DAT5kR43O1Pf+Idr3Wu/ELG7lhg2zWImmBIrpASS1ni4Pk0QIfP8tGEh3/y3sFqN4D3PH5oAm6ppOf5xLTUWaNfmTP5/FvGxCf+fP78j8JRTJcTkQIasE7AUV2+9fa5y3c89KU9XRveFYxBlZ7zQx2F83/oqwHfAUZTUKp1cC3VUwhOJsCWQJtVfbAE5xmtDFwhLPhugWOEx3xz4JR75ky67N8vmfnRNdXTN93S/lJAA1Z/KVUF192z7muNLft2/u1rncv+0QnmagO+IBY3+RCY/vCf1rcTqygI7u4S39uSz6fFV7CSDeb0/47VTrr5b865ZfuJ1eeR3ZsTbQaPyNFctuuu0N79a97/8sEnvpiWrskhn0+Je7T4sdDqNzy+VOUlvzpCBHcIR3KST4kEjci+2aMXff9AZ8t3P7H4N/Hytk4/vRQU0IBVCiqWsY47V3762r3xDf+0N7HjnFAUTp85Hw4pI9on9FQEKhYC14nHXb2R6HB+MPKCEFwIchoSG113nJSkswUJ5iIrx8dO+fZHL/7p3birmuTgN3ZyxP+tAatKp8Cft//g5Jc2Pf7P+9Ib3+UEHDsMrkqyUKrDgcn158VCJARPJV2lHTyOZtPqSQG4AC7Lohtsgf5brqQBZLls3h1vz/lNpuD/v//nsl9tOo7q9S0VQAENWBUwCANpwgOr/qMp6x747KrdT35YYm2j/WYQ3ukQARmXymTMA+9fNbksDKT/A7uWjqfgvCweLypIOpMRKx/d1+Bv/u/62PTbtH5rYNSshKs1YFXCKPSzDXeu+PJfbj/02Bfi7sG5ZpAnhcFHQARkGGJ4JaEWPZy9kVLptvCFg1A48OGXAhXzbv32ydFF/94QnPOra+Z/NNnbffqzyqOAnuGVNyZvatHPn/rIRXs7N/5Lh9Wy2GUgPURSoEXMdfgeSmalo/L0VW+6WX+gKOCBFtRXCDhPaHfhDiEpVxpl0tKayLh/+fCFtz+mSVX5FNCAVcFj9Ie135mxo2PZ/32tY+N7C37HNp2I2DZ9kCyVpSaPECzUIPOsnRYB+zOQ0HDhdLcFnZab94tj2ogNERcjaRVqozPunDl67tevm7Pk1f7UpK8pDwU0YJWH7n0+9UePfr424Wz9WDy946asLzlVAgGxLEb5pHNkAH4KhCmEfoGCvQCOwQMrbfzqk6jdX9InDe6nIB/oB3/aggtfNYTRKRgpMdOhtmhN420zm6becv0pP97bn/r0NcNLAQ1Yw0vvPp9219olfknmr918cOkXOs19Z5qWXwLgApjTj0dRvELfKj1s3cQY/AvI6UIHiAjz0AVakkkbEjb9r0xuOO9r719w852Df4CuoZQU0DO/lNQcRF3/ueyvLkom2z7Xnt9+jYNICsAqWP+gbYFSnfn+dBlKCtCHq4BD4Q7OW9qSQUYfSdoyPjLtgYkNZ9xy7VwdxmYoqT+QujVgDYRaQ3Dtfz321+Oj0cjfr297/O/yvgCiqEexeOCUDT8qy0VmGpwBdDRgDQHl31wlra10f6DzLUKeSiafECftzzWFT75t3vQLv3XJtE/uePNd+pPhpIAGrOGkdo9n/eK5T9XE44l37Uiu+Vfx5cfbfnioM4OMDYAqhBBPHRZAH3Qr2PURZg93ai6rB/lK9paBAulsyoPVPHfJBWGYONyDA+Im0gTBw02y6bwEpWl3rTX16xGf8cu/WfzT9pI1QFc0IApowBoQuUpz8f8+9+Xrtx9a9rl22XlOIBhCpVwsxbr5hvqqwx8Uv9CvZaIA05llEVvegVU2nJ60ambTvG+9+9xv/6ZMzRnRj9WANYzD/8unP3bWztZtn+kM7nyP6SuYQSMKVa93QHkYm6EfNUAKGAzHg9yJjHbq5pH4LOG6E+pOvzdkjf/qjed+5/kBVqcvHwQFNGANgnj9vRXRFBrWb3/wszv3v/hpp9aJ5QPMCgNlOixS1JXoUvkUMBGHK8+0Z2B+LYiKOScuZiIcHx2d+eOTmy/87qVzPr2z8ntR/S3UgDWEY3jrQ1cEgoHmGw4Utn2xy907O+CP4HwIZrzCKGaDgX7qsLvCEDZEVz1ICkC3hZViIgJGQYWX5plNDCKGMpPvkGB27Pp546/4Vlvbljuh30oP8mH69j4ooAGrD+IM5qv7V37xik2Jp5e0JdsXWmFExMT89pHaap4zVTtXAJ+gdVWDofPw3MuB4zjB6RRvHaWch/MpOC0Hpw4YsjmXTErMnLh8Qt28r9943v+7v/uG4WneCHoKR0KXElJgzY5fnLJsy2Of3JladVPQB+kBfj3cnqmrYua/kRBIr4TkrJKqEBXCCEo+l8Rh9Kw7Kjj37nza/y+fvfp/1lVJB6qmmRqwSjRUT2y7o27jrqUf39ux8h9TdqrODkbETy6KOzIPJ4+QqJ8lImdVVcNFlIOZ10J4H4qNiL0Fhsw+2Bw69b+m1Z/ynatP/0JbVXWoghurAWuQg/Ouu95lXT9z1ru3Hnzu7zvzu8+0fH7xY7c1CvCngtTgIASmivyJCa2Fv0ESu6JvtyAecmNC+BrK/SgErpgvumVm4/nfXt+25vYli59koAhdBkEBDViDIN5vX/3ShRs3rv58h739Sh/iU9mmD9HEC91p3wlQHnn5W6Vg11zWIKhdybfSQ56H0SHyw6jibVAAL+BWFnrKbCIrDYFRf54QPfXb7z/vew9Wck8qvW0asI5jhL7/4IcmZ4z2T7YX9nzcqW0Pm0ijRa4qj/RTumgKFCnATcpFhA2/30Zs+Yw4GcsZFRz/Y58T/u6n3vbb9cXr9Gv/KaABq/+0kj+++PPItrYHP7c7vvVvC77EWCuASAqwGPmYkBSiH310dNEUKFKA4X96Zi5yzLxksKdZeaNjvG/K9yfVz7vlmvlLWovX69djU0AD1rFpxCuM7z78jr/OWZ2fOZg5eIYdxQFZxFQq5G3x2XhFdhYvSwuASxdNgR4UIGjRMkxuCyEDJQ/FfA6qgWwqLbVu/YZFE6/58qWn/ROP+WgVZw+6He2tBqyjUab782e2/Hz+izseWLK9a91V/ihcE8wATNdgpZCNhTPMpQXQh0jhmJQqA/wx6tNfjywKKN0lnbdQqNOEhguvWWU1zgPEcumC1MnYh6c3nPm1G87+5jMjizoD760GrKPQ7EeP3jSpNbf7poy0frxgdNb7AiHslLxYwRR9CLsdPzUJj0JC/fEbKKC2OCjlOWMMOp2CSzcgJuYRf8toi8UnN536i0WzL/z26c0f3PqGW/Wf3RTQq+0NU+GuZd8JtSVf/si+5PpP5yP7p1kmoinkokhawBMXmlxvIJf+cxAUgD5eWRSZqZo5b7OpnETN0Xtq/RNvbYqN/+EN87/ZMYjqT8hb9QrsMay3PPieC/OBQ/9+ILvp/GAoBl4K8dOx+0HjAO4qiCu1mqEHufTbQVLARGBGWhE5txADAptiFrabAqacKw1O46unTX7bkv9e++I9v7nhN4yRrQsooAELRLhn+efntma3/cu2+MtXmn6E/YR61KUTIACK/+hXo4/U6PVSagoQpEx6x+c5v2BRhOXGcHPQb2UkB4OOm7bdiBl94JKT3vvts6d/VOu3RjpgvbjvntG/e+kHnyxkOm5KG4nmUCwgNiJ9FgrY0Oii0H1AGdgFXYPG9lIvWF0fD8FzqtHqjDlmISoE5x8V88iS5NKKg6noxO34xNFzfnLamItuOW/ah3eMZLqNyFX4o1U3+fwJ9/17Uq/8Y8pIzEZASZwB81wSvLjeEP48DftInhu67xVAAdoVHTOLWFx5CXSO3TixdvI3ppqT71y8eMmIDGMz4gDrvlX/vnhzx5NLDuRfu9C04aGuonZjm9P6qQpYnroJb6QAj/cYtoHD1XkkgEXM/xTcIIwpT46pPfOr7zv3a4+98foT/e8RA1gPvvofk9ft+NOS9uyOv3ID4YCL4xKGnUD+B8h+LvQFGrBO9Llelf3jAjXA/echHVJENOH/l8mnxUya0miMubMxMvff/mbxzSPmmM8JD1jfXnrZ6ECi5sMdzq5PJIz4OBtZlLFhMXGyKshGB6abCiuPFEXPZO9b/VtToLwU4HxUiixlR+R7U22yyAIn2Tws2IXgoZPDF33dFxl92w3z/+mEd4PwVml5x2TInn77Y+//wNbUhn92rPS0QBC8NfL8ccCZe84rBCrtqtBNDP1SZRRQZxUhKmZzBQm6kbVN5uRbR3fI7TecwG4QJyRg/eypv13YkTn45f35F6+yEEedm5SDgfVZAckhVrHOpFxlK1M3t08K0Gu+4OSQrRpiYmDWo3ag5qufvOhnT/V5U5V+eUIB1l2rlkzauW/159udLR9ygmbA8OFwMt2JUUwTh5QLXjIBbQGs0tmqm90rBRSnRf8HHshHiKNcMpsZZcz46bimOTe/9+xvb+r1pir98IQArFsf+lSgeWzwU+v2PPWxnN01zYTrp4twnz78M2hZYVwi4JaJaJAsdNLTRVPgRKEA5zgV8/SSh/gA2AogvnyHOPlQy5zGS27etW/jDz//9vu7ToT+VvXKXbJkiTn+LQeu2dn+/JfydscCRv30lJTQSyHvH4IRQUMFrurwaXl6r1d1l0+EOaf7UHIK8EyGF/LIU39gY8aGbfiyko3DHUKCLy+a/o5vXHPyl39V8kcPc4VVu3qfQnaaFzb89l9burZeK/VZv2XATYEgpZXowzyF9OMqkQIMa6NCNaNxBccLHFhvj37ozClX/9vbZn1meSW2uT9tqjrAumvNF0a91rLp7zqM9R/P2+kGnx2GiIfIn4hLZeMwqaPDfvZn3PU1I4ACBC0WAhcOAUnSjYudrUnG8pO+P3H89P9875k376g2MlQNYN219i5/Ibvixg0tD//fjGtM8gX8ACh4AOd4eIFna3D2SrHFdFXQRVNAU6AIWKQED545ZlAKRlLcXF7sXO32SfWnff+kxuk/Pn/256tGv1UVgHXb0k++JZ7Y/PmWwq7LLHioWz5opnLwnANAMQ8cnT6pq1Kv2q0KdNBlpFOgp0hIqzi3c5+J6BBImEI9bsGOSz5jSW1h9Jr5My755ltmf6kqwjRXNGD9ccP3Zm/Y9fgXWrI731uwMlYQbgquEvk0Ko30Ban7PzgKUERklPm8mcb5xLyMt+bfNip88n+8+4IvbhxczUN7d0UC1u3PfDNmWtv+fvuBVz5eCB8crcJuuGHECqJbggaroZ0SuvaRQAEV660QAKeFo2m+pBSScP3J+A802id9d2xo0o/es/jmiszmU1GAdReyKFuzJ77/5b2rPp1y954RxLk/h9Y/clUqoF5FNXckzGvdxxOUAjBPQZ3C2G9wf4B2xUBYCJdhbBKOhArRLTOaFn1tTHPjrxZPrawwNhWDAD9ZduMl+zv2/kOH7L7cDw1hwELUT1j98tROAbAMRmTU3NUJunx0t4abAgZQyjVyyFIOX8UC3IEQBQIaeQQuQRoyNyn5pMiY0IynpzSc8ZV3zvu3R4e7fUd7XtkB69ltd0x5bufvl+zv3PQ+O4SQPwaIBxcFqKtUSA0q0sld4WSNSlp6tI7ozzUFNAX6TwHvxBqYgcNGda4z/CCLjwuveRMeqIVsWvIpK9FcM/vX0+vP/+Y18z5d9mM+ZQOsny3/RGM8ufdTbdk9H0s5naN9EP9IpHweHruIc62LpoCmQPkoQGBgqGYHoZpz2axEnFF7atza25qD477/nsU/Lpt+qyyA9dtVn33P5n3LlhzyxWc6EP2iPuRoQyA9B+nelZMbgEsfUC7fZNVP1hQgBegypEAL0iJYCbhB5CRk1G8cHznr67F9+/6nHGFshhWwfrH00ws68wf+aXfXK+80/SAIMiYz1Iubp1tbsfCgMlnVYW1a8eH6VVNAU6CbAi4SYviUhkZ5cUFUpN4LFsW0I+PCsx8LWPX/+pHzf/L0cBJsWFDhj/u+N3Xr2mWfBlB9JB8uhH0hiH8U/SAzG4UQUJypuz13hSJY8RCz5rKGcyroZ2kKHEkBL84W3UxhAMMahT5enBz0W8GMpFP4POePj4nN/MmMcW+9+cqZH3ntyLuH5q8hBawfPPHxaDK+64NpSX4m69811RcMSDYTgKc64hNTwacKgar4vvsj/aIpoClQQRR44xrleoUUBJExlclITGL7IoUJXwuPabr9o/N/DPvi0JUh027f9cw3JrUlXvpdq7Xlu/nogak8+5fP+OCuAPGPEfUPFw1Wh0mh32gKVCQF3rhGu6UhuBqF/WFJ+gpjWvyv3tq2f/3DL+15YPZQdmFIAGvFtrvOWNf6+0e6fK2X+IIM+cKAYmGxbB/ONGUg/g3JY4eSTrpuTQFNgV4owNA1PqsAXVdE2o32C+9e9a371+69f04vl5bkozdC56ArvefFL576ys4/P5KOtIw1jBoJObbkHOR8hKuCgYifjmtByY48NYhDrUXBQZNbV6ApUFYKuFjHVi4A8RBe8kGRdC4twUTDpmtO/9LlCyZfvbXUjSspq/PEtieCG3Yt/V7K3zbWLzXgqwQcFfRVyq8KSnRYHZgY0sSpcQ1WpR5KXZ+mwPBTwABD4lh5hK7B2s6aEjECkg7FZ/5h7S3/vWrLXbWlblFJASvR+dR7O/OtF/ttQhU90/m7p8Ku5AwdH6CLpoCmQNko0K3PKj4/b0sYvpWHCjsu2tH54nuLH5fqtWSAddddd1nPv/b4B21gqhdXHVCFODw9g4iVqtG6Hk0BTYHKowBWO6QnGtVwgLrOkVf2PfW+O55YAkGxdKVkgBU+becZaX98ngIrgG7Rh0o7gJZusHRNmgKVTAEIhZJ2c9BVFxCKuVZcf2KhP9x6USnbXDLA8hnO3GwmGTJdOpl5bGIpG6rr0hTQFKhsCnDVW+qECkLWwM8ylUtbrlU4t5StLhlg7d+/dzoDwBSO8LEqZVN1XZoCmgKVTgECCvN+kstiRIhCQaKlbHPJACtXSAUYa51+obpoCmgKaAooCpCLKWEpGWD5A5bDaAvaXaGEo6Or0hTQFDiCAiUDrEKBIRdMsIMlq/KIhuo/NAU0BTQFSoYujpnzMT22Sc9QrXTXM0tTYIRSAL6WgAClxwIOWCYUWiUsJQOsErZJV6UpoCmgKdArBTRg9UoW/aGmgKZAJVJAA1Yljopuk6aApkCvFNCA1StZ9IeaApoClUgBDViVOCq6TZoCmgK9UkADVq9k0R9qCmgKVCIFNGBV4qjoNmkKaAr0SgENWL2SRX+oKaApUIkU0IBViaOi26QpoCnQKwU0YPVKFv2hpoCmQCVSQANWJY6KbpOmgKZArxTQgNUrWfSHmgKaApVIAQ1YlTgquk2aApoCvVJAA1avZNEfagpoClQiBTRgVeKo6DZpCmgK9EoBDVi9kkV/eOJTgGGaShqq6cQnWQX0UANWBQyCbsJQUgAJEQzky8OPB08GcufhbyuDz/BTwN8q6GQerwVxkO1F53wayvEYXN0asAZHP313RVOgyEF1QxDAKBRAGO+cX2yjXuxgUHJ2XvKuDyDlR6ZyH8AMHSpp2oSKJlDVNc6uuhbrBmsKDJgCHnD5w5Zsejwnyx9qlaaJ9XL2dTXSOEsknc5KJgNOTJBPT/L4IWoVwW7AD9M3DCEFNIc1hMTVVZebAuSsvExOTsEU22fLvq0psTrrpXODTx68eY8s/RG+P1AnDbX1yAKag1gI4FJsVrnbrp/fGwU0h9UbVfRnJxgFurkl5kPwhUT8jgQCjthuVDatSMu2l5Iy68KwnHVls5ihhMRTydf7n6eOC2KkFJAUivow6Lig9xLowXQZfgpowBp+musnDhsFACzQR+VNB1wT3zvI5uIAd/iKDJ8An5qwLTmA0oY/pmXX6m1y2tvq5KQLagVCIoArJT4LgEVFvGlDWHTVP0txbcPWCf2gHhTQImEPYui3I48CjgNOCWnVI1G/5LpCsuzXXXLv11pk//M+aQzVQTFvSgbfk6lyHB/SVtmwMOZBKM1hlWO2aMAqB9X1MyuGAlS1G7AOFpyC2OCmYv6IpPcF5NGftMgfvndQsnvDUh+zof/KQQxMST6fA3fm410V04eR1BANWCNptHVf30wB4o4L/ytkLEfaT4iJOfHZAC6rRg6tN+T+b++SpXcArNpHSSwQEgu+WvDionSpSxkooAGrDETXj6wgCkCyMy2lT0ejKOYBjMA9uVZW7AC8s5wG2bwsJ7/5yi5pfzUivogLnRiv04hVjlHUgFUOqutnVhQFXKWO4i/1Bq9QytMaKLYY1G+FIQKmg/LMA9vFLoTFgN5LKfErqhcjozEasEbGOOteHhcFPACjYj7gNyXdFZR0pyVwltcM1nHRc/A3acAaPA11DSc4BVzot8BWQVCk7OhIATimnUvLM+gasMpDd/3UaqIAXRqo2YJ4SOAifil3iGrqwwnSVg1YJ8hA6m4MHQUMRnNw4S4KZZeBV4HzKZzfdSkDBTTZy0B0/UhNAU2B46OABqzjo5u+S1NAU6AMFNCAVQai60dqCmgKHB8FNGAdH930XSOOAsWlUvTVGnEEqIgOF0ehIhqjG6EpoCmgKdAXBTRg9UUd/Z2mgKZARVFAA1ZFDYdujKaApkBfFNCA1Rd19HeaApoCFUUBDVgVNRy6MZoCmgJ9UUADVl/U0d9pCmgKVBQFNGBV1HDoxmgKaAr0RQENWH1RR3+nKaApUFEU0IBVUcOhG6MpoCnQFwU0YPVFHf2dpoCmQEVRQANWRQ2HboymgKZAXxQ4YQHLRVhbJhew/QgSiV7y7xO7eP1TmYkZbs5l2k8mShhZ6ag4zif+WL9xJmOuq5XsJXp947cn0t9VDVgqUQCy9vocU+U6cZGuiWvUQH65SC1SMjmWJPb5xC9RiUVCyPjrDSjTC2BF4x5kl6vC5CcEJbafUMS3BjITM9sLcq9LNpeWXKqAvoakkC1INpPBV0hNxRC/uIx3uep63lNNhYCMaJ9ou2FgJ/J6r/rlon/IviVBn09ijUEkRUXSCGR6zikMR0p6RNvj95aFRF6kQfcPk99g6lR08eYosk+r8eMYInM1Woweq+w9dqggoZoQ8ibaEkYW62DAUvPBzbPzuApzXs2Niu5l/xtX5anqgTboQY6pxDGJGbrWFzQkDIha/1BaXnk0J6m4Lf6m/XLGVfUy7ZwayUlSssksQI2LFzeoGaxmdv+pVsYrCTpIvo45iIwuJhKAusiZF8hIPmdJvj0j46NTZfHcj8qY2Dw52LVFntp2u2w8+Lz4/H5MZlucQkZs0Ix59QwSj+BdFYVAhR+OG7hHZp7nNpUrWOhbQEJ1fnnt5bjsXReXmtGWzFhYI8GahCS7EIMdnTUtP2jkA+nSR/SZvVckrUgacF7nVdZp0w0SrvEPmxEAmuAb89dJ115TVv+hRfZsTkntmKic9fYGaZyRQrIMkWwW/QVSm3YOkVKRd5FIXeWlugELk9XwYUJKRnw+v8R8NbLnhZw88vtOad/uStiPXQc7UKa9Uf58R5dseTYnZ15VJ2NPiUoi1SXpQhqpx7n7Vg8ZmJLKNAA8mHsFSaH9gOBEXqLWGDn3lOvl/OkfEL9Rq3BoVHiyzBq9WJ7f9Tt5bOut0tq+R6KxMMCK+zZLtYAV24oWo7kOwNoCWuXBPrkhkbraoHRsdWXp71tl14s5sbJBKVgZefnJfTL/yrEyZYEhmUJckskE5gpzDpJLqZ6FWwDIMOFFAdIDx9rFlusPRsWf9ctLD7XLmj8mxEQKMp9RL/tbC/L7jVtlzoUNcsYVdRKKpSWZyYPLtsVSU7yaxptj/uZSJSuVE6wXYiO2tokVXBtpko4dlvzxvj2y95WC+CyIBTVByRtpLE6fmL68NATC0r45LX+4da9MOTMi868JSePkejnYlkEdOYBANUxir40u44r7IPolMYlTtbJg3CVy/ik3SXN0EnbRLsnlU+A8bTGz4CCdrJw16TqZOe5iWbbhp7Jyy52SNTskEI4AA7CDe0n53jwzKuITjjn77PWbXCEYS8kjbU20tkYKCUvW3N0pax/vFCMVkhgWshlin3yS3h+XJ+7YLhNXxGTB5c3SOA3fBQBoSNdFDq06ioM8PT4kpoZYi8SuPhvqDbNWdq1KyaoHD0rHbhM5E2PiRsF7FbKQLLAROWNk7cMZ2bR8nyzE5nzSRbWSDnRKKkllAIXJapjnRx+digUsYJEqFF/yhbySy20LYg8+dcBeWDa4ihqfOF0RWXrXIdn8bFIcTNogFiKvcgsAIYhMhsM05Aa4EXBjwaBEsS3vWJ6RnWvb5eRLQnLmlVEx/K50dWbVRKesZHGdY0dTIghkEDbFGLaF/foi5dRC69UOS0Uy+AqxsWIzuU4pdJkyvXGhLF7wYZnecB5bCELhXgtsB+hkY1Eafoo/YXzsSI0Rk8vnfFZOnXS1/Hn9j2T93sck50tIgIscehGuYYrU6Ch+sfDp2N2Lf6rPhveX61DspfgHsShvAawM8QewaN2IrH8GQPVAWuIHHAmF68QJ5yRvQTwGmJkY7yDoEHBrZS847nvXb5ZTz2+QeRdNlUzbjorenFzo2whQGEIlxuUxHwMhR8K+gBzaFJVH7mmTA5syEoJ4XxvxK84LkwTXQj2A8XKstEQbwJElgvL0/7bJulWmLLxynIyaCzExnccmBw4VQ8vZZFiYW3jH9eGS6+b4V3ipWMAiC5svFCSfB6dgYZch8ICY/AnX5CRQaJL1TyZk1UNbJH8wggGEGBQCUGHlKazjesNCpWLeY54w8bH4+F0kHIBCWuTl+9tl24qkzLt8lMw4zy+pAriTNCcBhhMmRk9jQCUnKxuewrZS10CwdDhxbYgx6IcBMTAPA0M82SZjAifJJfPeK2eOux6cFACKoMImYkFTLwXNBQp/e+9sKn4gTvC6CbGZ8lcLviHrW5bJExt+JDvalosPylq/HcFCQTVUDoFIJhT4DmiOd6xs2IsL3YuLTckywpLLQLEczUkQeriWDaasuPegtG7MSyAQwFwgR4XNiS0skAj4wX8P6LNY7PysSdY9npStSzfiWhPMp63GVl1aRkBmk1mUZRNzzgSSQCunuOMcRF4LG2msHslb9/vkz/d3yPYVu8TOB2BACqj257l9s3ss2HRYTPTPwccWlO9RtwaqkaQ8/INtMuGMWjnv+jqpHd0lXQmAOwAOsjOmDOY3QRL3cr5XeqlYwKLFj7oKB/qlHEEIk9cXtqTBVyd7n8/J8ge2Ses2nwTtRomFyAXhGg7eMWjOYeViMPyGRH1Nkt3vytM/PSAblhqy6NrxMvrkrHSl2yBWYUfHgudQmmiLUtAPw2iqpJ2qE2gjEVYpxh3sjG0SktFywezPyLmT/lpqoHCF/hy7JMAVk04l+eyjfQWIxlTgEo8KAL5Tmi+UWc0LZeWOe+TJV+9An3eLL8r9NghOi7sFODToTo5Bzj6eOPCvirolAjWVLuTu8oWk1DXWSNe+qCz93QHZsTItgCkJY9Gy9CXS8jsyxqw3GIqi31S+s0fD2SvVzKP+KrpgWDY2FRQXG7QjWYnFsKli7F+8PyGvPpqQbBy9xpibfoj7/Wi/2mzQ74APynpsdi0rC/LbV3bLnLdF5ZRLoN+KwCCVIAeOeaHEGQAlE8VWeKlYwPIWKnYMsLgcoPo66KB22/LQ3Ydkz0tJCYLdj4IzcMysZFyIcxT5sLtYGOa+pqPKK4cFTuUl7IsSCgL0nIi0bYbC8tZdMvNsv8y/okaijZZ0ZZLgxAAI5PBQ73AUzh0uKnJapumXeBz9BxLPG3+5XDLzEzIqfDK+QFvIDtHgABHIhm7jWMWg6R+AxYlMUZlmbxu6vnMmv0dmjjlflm26XZ7f/ZAk3KT4YqBrzoNrJWYOE5NVBB/F5QFpYlHwtqmYPH9vRl54fL9Iyic1wQC4Lkuyint+ncHovf/YZmzMB0wIZSEjUTk5uLFVSGFfi9w0OWkrYktDMCY7nkvLKnBV7a+ZANuY1IQwA50MNp1+LFn0UXUVGz37bYJeZiwDzissL9yXRd37od+qkUkLIzDbZCSRTEPvC66zr4VTIfTqR++Hp6XePPJ+U7DJYz0qPVUYi7GrTpb/+qBsfqZd8gkTHBUsXaAuvI7I++NqG7odyuGYnMeYjCbuUYy341e6qhw4CRecTIiSVaFGtjyTku0v7JPTL2mSOZfViBOIwzUCPPbhRcs33sgqvRJZlkEV3s/6vDpNKNA42XIQhzNJR2bWz5WLZ35IZjYvVhOqAH0eExCznyY4IHV9P1YgOVbTwWJn8wHYBQCYAyIj87o0+cbKtaf+q8yfdIM8se4nsu7A4yA+aBsI4iFeuzwCeO3kAhvc5H5jndhAAMoKsPC8MHQzPnBRm5am5cVHOqRzV05qOQ+CFJj8kgOHDIkVc4B9wU8fhboZdRGupejjKQWKz+/jxiH5qtjg4phTHIPGFZsHVSA1NWGJ7zDloXtaZfdaaDjgSxeDQt3heLGjGDxyQ5y/fZVi7zA9QCNvshh5HyyJ+ImYkmqDJf2ODhmz1JYF1zfI6JlB6epKKt0Zp/PrXH6xJo/Ixdb39eyh/q4sgNVzoR9+T38RxZ6Sl8mBsHACNEbJjqe75LmHd0jnAZ9E/CHxY6ehXkrJC6AgrXse60+u6djFhW6KE105kVJXRIDAbRhWvIeuJOQXN+eX1VBublneIWddUyfTFsENIgfZPwOuJI9JA2UlNUWmSl0OPVsBdWB2DFQxT1GO+jLVb7TAYb+ga8olk9LoTpTzTnq/LJj5l5ho4cMdM5XoQEgfWLHArSkCqRstcKLQX3DVsyaVzVhkXGyOvHfRd+TV1x6VP637gexLbRK4/ygfLgNipAVuDmoPJVr5cC+tlcoJ9TCo9b9NSm8CEc1jGEAHaJkN1FkDo0nrJlNeuP+g7FqbgO9YLcQj8M0KIcmNYOlSTwNl/DF3J9Ucj1Lc3lQG537Nkv73YyBXktpohZq/CkYxbxwCdJNfnPaAPPfzdrjewLKdsyUaDGFO0Y0BoINNBXep8fNEf3569MJpxILhQp/xJP6Nue4YqA+vFnR4YZ8F5b0jv//mPpl5TlDmvT0Gp9ssOHoXAOrAGqmeqDZPDm+GY4V7DLVLqOrL8qssgEWugCBDXUWRQ/DlApL1QSkDJWkULHDbK3l55r5dsu9ViGz+mNSDpaU5Ww1Vj+1dfcI1R/J1D1RflHz9Vt6h7jp8uXeUBRME4BOJ1ktyf1r+9JOD0vxUVOb/Rb2Mm+1K4kAn9FuwOkJUhfoWi8cHEYW7GAGzHw04/DQ+HhMACy8H65aRD4mT6ABfATFt6gfknCkfkfrI6COa6E3EAT6j5/N63Oq97f5AvbD30HEVfHLKhMtkyrhFsnzbb2X5xl9LW3K72NAZmUE/XCXQX0x4B1ZY18jAmkWjQI+Kez7vKO/pqZ4DN2z5oa2B64XPF5JwLYD/wGhZ9r8tsmVZHIwdlctwXcACUXQtNlUNYDeLeZT6j/zYG2OPdkeO95HXDf1fNrhI1R+sOvpU+SDy2r5aWQ8u8uWHWyQH45EPrL4VxnWgL40fRAwPOort638fisDFO93D5l7ejxohLgaC3H1qZcOyTtm6Ni7zLhklp11cJ5lwmyRgUVTnR3KQX7CrWPBtMyCduNioy1nKAliKI8JELCoaHQBRDt7akXpY6naHZOmPOmX7S1AuYkFHatBEEDuLXYcs7rAUPIj6gkAAZnSIie3rC/LwN3bBkhiQhVeMluAY6M06E7jGY+f9VORyYfHw4gCL6cIDO40Fmk7LyY2L5S0nfUwmNM5Vbgb5HMQ/eilD3T70hQsDE5nWRCyUMHSEi6d/UM4YfxHExB/LS3v+LMlsG3Z+6jrIUUbBDfqwidCHbWD9xqEZ5U+Fk0NSA+Uyuigb7y/Iqj/ulGyXXyKRCFoCIFQOruR9+79Ih55Ox/8E2HGkgM76/ZbEAqNk58udsua+3dK+CS4YwRqxY4QSghU2cnI43NQxr3oCz/E/veed3AIAPAQxjHfUH5V83JAVdydk86oOOfu6ehl7akQSGO8CNmMH4qR3/Gtg49zziaV6XxbAYuPJWXEi5jFrg1FwKk5U1t6dg0WkFWfhYNWBzxR37xwGjzuMsu4McCc/XiKZDhXyYKHRRLLRfgBYwI3J5qeysmv1PjnlbQE57cJ6SUgcK5vn9bDv0LLmbYn9eCwnDEAR/zLgqqZETpW3zP+czBx7AT4F8EFPVcBEsuCH5OShaxumTU0ppvF8pTEh1wjxtz44Xd4575ty5pQ18vSG/5JXD6yGuN4F3Rccc7GgfKDN61xrP7qO+guw/NJOUBsLyc7nXFl530F1xCQIN4VgDJ7ZXEcQWV04vVow9XtnH7FY2KZqLtiA62si0Mm58uh9B2QXfMQCOOcK30/MBNAdRhEDY06wKpbSg1WxZswzgCEmolKFWFBPRME5J3cF5aHvtsnkM2g1b5boWJG40QbgxIXYXNnScpayABaXBH2D8rBEBWKYwC0R+eMP90tXSw56qlox4ISt/K6geKZrA0YSH2BhgKjDUfA0JfsXgFi0qhnQr1B5GYYFR7KOrLkLivnVcbnsI9Mk69+LCRbwdkKOfl+FGE1rAqZpzoQ1LhuRK2Z+XM6f9QHQA7oz9Q9f43kWxUVYuDy31eHZ2cgp0dpqQTnLwvmMD9SbKfVnyuSzb5M1+x6QR174jiRDLRCIIcaiO8foNatSoGNQw4//UM9IujUqD/+wTfa+CudVtw7n/kBn+FFRL8anK9BUqgOOOZ5wWKRhbdVRjnDTACFrYdVefVdcXv1zFk7O1NcB9NFTwBTmG9x24GPFOc55UCyegeP1v4ufD/4VTADWFscYywxcMiYnyOwP4KQIxPHXnnfktY175fSLYzLv6gZpzx3AoGBODkVTBtAZLqFhLyYV35QHUCx47C6/H2C1x5Qo9EYOFqmpLCGY5NheuHtT/h4usGKbyP8oZ01MJZsaR8j7ivPB2nHhyBmFNad1syUv/KlFKYkp0vZn96cXM6VGcoy0Tp466Xy5+KSbsPABVmoiUKFMjpITmDDA/cQDD7ZrOAqfWvyht7X6g67RfIs2njXmGrnolL9Sejw0FfB27CnErtAoAVSHI6cFDiMsv/3WNjnwCiy+MKT44PBrqOgCPOmnME09z1u33kLq8an3XZX8plhH14VYXUhefiyPud4u/jy4KuivsphXLJxb1IUy6sQbEYH3D03x1hZHtsjQ8VEepwclRMQSv1Mjqx9skfVPdEmEjtlD1pb+9/DYs63/dfX7SrKXXJamH0IRTtDHW4M40OmTXA5KPc7YCiq9TReCWTAYka5D4BWhlKTligrKYxZYhRQC2HTHsKUZVrlicbDNOcoc1I96ijeV4xUEGRWdLUYyiB6r6X3MVniLjiMOCMaB9I3PdYoVb5QAz/Xhw8M+UsesqbouIBBQ7OJRGwJuC3ShtSE4f8JlRH10hO6vt5lWvv4Sm3BwQkJmk2x7JQUVAFQT5WavQI4yrA6wothyTZycz3E/BWFoYudbGyZ77sZUOhbZ6fIN2dGfrNpGny/ol2wontUOqZbj0e/hNyaAzaXmlaJXDrtp1vPWLpAnR79NJYrhTaUWiC1sJ0YJ4+bF2VKM4DHaq0zruMbyYaNCFfkMBtvAIvCDs2KfIe6faIVARfcAil3U19JvEMgFvSj0nji1AXMOJIkKHmsMiAunUnL7PMrkSFpJOuUepzLMFA4SdxwWCBSYrxYmL/VaisPAp/0Fq+JioQjH4u1RXExUafMV4AdmhmfMWKdiz9UrPvO+5m0DLopjAPioOtVT0XZPwj1GXXBSZaNdGBnQXwsKfVUgClBi6m+/vZu83vLx9FxTeo/uj3prhMfN84I+LurtxiM+88QIHkanx2kOx30KdMzqR53sdh4bkTpoS+cr/DjQV5HbVufn+lUHKulRFAaAksXx57f00aIjMfdiLjYOtGdM4FQ/8n58MKSFz+e4KOU2nsQjMgZOF2Rx/IaihFEc/wG0Qo2j6gbozr7yPYbU2/M4r9BPtQFQH4mirj2+Zc75qBy04W/ogt3i8a5yl+PrySBbTRaZLnE+Klmx2KDmU4QuLli1pr0V1ueTqO8heNDjm0X9jQGyUEEqA7cIHF1pnIRh82dwbgoWJw4kdj5y4kpbohScfT7iKF92LxLcT/GQAiH/H6sAonAJp3AOTn2YAHjHQqdOL4qm+vOYv1z6o4GGXpgU7uQAPrSDk7MVPlP3rPii/Gr138nujhdVXegyngfLI1CV3CvvK8ACN/DiccC2OoxOkQFLkop0b1X0UR22I7SBC1g5PnIMAFQuRGCK0xjBPu59/StPtERXURd/GBfMhI5RnaWEDigP82IqnZVkikeQ6G7BevlgEIaDjrfdJH+90iF6x56yx2SiHHJZjLlGDhWGHDCaeK9MT8d+OitQqi30E2NMIxTeYSbBiRlf5cCpZ9yEROstxL7qUOPrbda4CRsjRglX4rnHUfgctcHSXM42sP1lLuxR1RaHnApAo5BHAD96cmPip9MZyWAgZ55bJ3PfFpHguLzE94i89PuDsmMF2HFYQAIhACQmECMyFLjQqeysksJFC28DFBr+UdB/n81dOylLt/1Ylu28V7pghjbg1Llx5XI5ufYC+FPdJKPrZxGlvckLwDOVRp0VlKlgwXLd9rcQoFgU9uAX6eAi3pmdR8A+RrFw22XsaXC6vbxRXl25XzY8jW0BEyGMA/Mqvj0iOmCJA+Cw1HlcpWyluyP9fD4PwHt2Q4w3QLcAYw1DPucwbxP5DmmaHJUzr62VydPhALrUlDWP4kTGQURqgCWW1zswZvA0x8Ce2s/GleGyqgYsHujlSFhGQNJwN8hC/psw05JF1yGMxuw8IhAgyFkHLB4Nrlxy0yjZdnZOVgC42rbmJWSFseDBG/FwLJdOlYwoFyz9xCwoQYlYnM7Ptzwiy7ffKbtaV8MbHf3FGTQeL8ojcNvKA7+XjQeel8Unv0tOG3sdDg+P6TZoksNSkFeGaTfwR7LfBC06UnriM0RMuAGQk4415+Ty65tkwiJwWNmkXDhrnJy8MC7P3RuXPRtdCQCkgn5wYOSrwWWyrmoqyokULgWUCsgoxhHi21dfkPPeNkFOvghnA+GM2ppok5lvDcrUM0cDtDpk3Z/hcJxLSASnRgqQLFSEkmqZ5H0MTvUCVvcENiBXpzAwgVFJOfea0TL97JAkcxlp68hiP8UxEkzTHELEtiIk8uiTLXn7KWNkEw44v/Bgq6TbfBKwofiuErDyxhF6Bep9wJ7vbXtJVuy+R1ZsvRdiLyRgnMMz0V+DHATEYT+OO/lCJjjOdnlo0/fl6XUPynULPiOzmy5An6tv4SqwJlpBTEp0ITZ9TVLmXhmT069uAieRlM5W2C3BkSSkRcKTgnLlP9TL9uWOrHrggHTtthBlFZZNzvgqGm/lXkOUQrczKUTusDMy69IaWYSgfG6sTbriPNZl4cQA3EXicTEQ4HD+u+twPhD+gvd2yGtrO8WPEDM2zgEWdWl94MGbvqJOjBFBKqVUL2CBhvQBSkIcnHGeIeffMAscRVw64gklLpBtVlsyBps6G/4JzILvWxuur5FZC2bIk7/YLXtWQpcG3yAvJlClDEvf7WA4mQ0tD8mdz34F7uJZOF0CrbAKXShxKR4xQQGTcqgCnZUPSlMHEzZpbJU713xe3jL7fXLx5M/0/ZCh/FaZx71FQK7J0/ccY1FgANU4grOMG4dk1mKc74RDY7DJlvZ4O/STZJsAwuBCfHDCTSexwK2kjD3LkOvPmAwfqEPywh87cBIF8dDhWkFdHmlW6dyWEmHhYJ1x0tI0Ny8XXDtJYpML0tG1R3IJnzQh2qoctOXVJ5IyZ9EkyY3aK61dbVLTHJQrPhOV114KybP34kzGPtglGdMeekOl4+KGz3Eokh2vONMPbxtueaAh1ouJuPGJNCLzToUrBkV4pYgknYs3DeUk6b1uNKt6C+XzcIMhF/7lJOksHMRJc5jaQXQDk5cLAcsW7ynwcfHiBwvZwsTv6uqUdHCfnP/u8Yg/xEXOyVs9hVNmT8sG6XL2qwXHHdAh20/OS+E0rsDkYtgcl0paWONM/FgWRGcnJRt2rqywzrJHfReOJUNFmPDEvvrjk+TiDyEsciQuB1sPiQ1xSYWnQV85zrQKKmU8XlOwvRzKtcq862rkL/9pmtQ2w+ADp2XPAODpxPp+cnm/JUbkkOln9GSfvONTs8U3tl0OHmzHiRC/jAqMlV3LwvKbf++QZ/93v/zmG6/K3sdiMj7QoA6o7+7slPrTLbnqc2PECiLKqDplgf4ApRW3hbppsFLGLsybHAENQB7A8SDk7ZA4xOs5l/nktEtt0BEX07pbRrDiSFQth0Ui53KOjB2H0MHBDsl24swfdFlFSxI711vhZCa3BWMSdtpOMeHRm8dZQIxGb5dX7Gd0D/AhSyy5dRuTjj3oq3jfexZVz3rW19WV9x0tZNDgQOQpyKiTk7IfKc1MuAfwILEyvWNlq8B/RzSdmxX6jDNwBw4egoI6KLFRgkCQOPIERbS3cLnDVe7Yu92hi/x1eQTbO6QsoBFEL4mva5Knfr9D9m9JSTgQldqGoOTiQXn0Z/ul+ZmMnPOOCVIz3ZDODuixgjA3IDJGDvNcHb/y2FoFVOS41J/Y3CwDiwLROuKZLmmaEZILr2mQMadAR5btgld+AeuLJzLKabBQkvERI1w1fygiY9E6LuIHgYjQUMAp89icEp0YaSHL55hYFcTH7lxtYMVB8pxsudCOBVW8mj3EP/SdSmcb4aFJv6oqGGv2tQA3inQSnBYU7srETyADV1CM3NmzT8QhJfbgexw0wSbFcNvkKvAL1lXWV+lkoGhWUI0G1wNjCyPmxgL18uSde+TABkPqojXQyyH0koP4WXDEjdbnZP9WUx7/2S4JM2AfXRIQXhm1KICij1ZxU1eWVhCASVjJvaY7QJFoSs67sUGu+CICcs9rRTTSBKKJ+KHrxSWM7HvsJdZzCEr+voo5LE42UJtiQgE6HMj4zHLLPbWvog7VQkqnyZe7L6REFQW4r3sq8TsHPmy0mNHnzJtFffdbLUygFDlTisAVzFT0Sm66oDjKpA8uAYYWn51S+jrKwEzewH4VgatYgRenC0dKbKwy6DG9TQ1WYbVoAVwgGf3faGmtzMKNBf6DAGluxmQKGb8xl4FBCfrKcFhlaQT2wphA9x50woRVIcw4V4hflQO4gf1G4EXkLoSYB9OxWh8G3IFMHxO8QH8LqiQ6oawHFzbr0pDMvxYsaLRTEm2gqdsAMEziB1otnMowLE8XXE5aVS1gKaIBoKiUxEggdBYUy5iIfS9bqrgQNA1WFRvn+Rw3ig0HSg6loD7WneUcpp7PJvTQSkg/MvacghLe4F2fhecUUXhQeyBOqn3WOYxf0ihC877VbSElM60OVHe3gdzCG0VCb0QpSvIf5wkWIXYozhMsWYABj8jg84oderQV44wuK3DlG2iiIBRg3sNjnsebHAZRhKWb0U3QIQVCZEbp1KvsCpwXAHgCuuorQQxrhdmwgYXSlY3LpHkwYNyAiKMTMpLugvjXBlor3y2eQCFx2ABan4dxwI/yqOoGrKN0qn8fcyAqYAT619geV7HdbDkMDPwxkOWGWETM6qtgl+YZTovu0Vi+Xt+9uvq6TX9XQRTAcNGghO1WjZ+DwAG2j6cc8EOJAUBMcCF4wygM/7MCXHwAZBbj4EOcc+vBLWUhPuYki4QetWOg60Lqr/HzEO230AGHU0wjqEt8uJnK/qLoWEEUqF6leyURcTjbgrmI3ZLn8sghqGPIxwYrNJD6HoaY5j5L1wdObF2qjwL0wfPBQpgGwOSQVMSPHyZj8cCFR6cQUBL535w0gMpoVpyVa0LHBW7KgGN1JgtPeYQbn39VVE56a4MU4Fyc6YpDggQnB989+n15Zy8rkzbH2pcrs9UjuFUEK5bG2ikAoRh2S8TqUkeLyC3ypwhERVDqFgUBbn4oV1OpLBLJIrxxFRelu+xv+1X3i3Tha3UWjrvKmIONpz29Xy5+5xRpmGAgKWqX2ogs6K54pjQe75RREyx5y/snScJpw3SAmgSnOcacBKW6kZDJC2y59p9Hy+yrLFj/WiVzEJsYHIwdPw/iextaJVNoBIuElTwsR2+bWqzYBedNuQIOk/vkyS23SSp0CJmbw55iFSNK3ytS6p+EAAA3fklEQVT6ZjEbD90Aqd/IID58oRCUC6ZeLWdP/mvOfkzmIrgd/XmV8Q3aCc6B+kcD4o0fads74SjkzyBEC3VSCFVAKGLyEHRdBYBUlmOERWHJA6xd6GBsldMQBhrVdxoePKtpJVOBhiEG93MyeaSmj0o7FO5Z+GVFTrflhnmTZd1jKVn50F7pOICEs2MCcuFfTZOZF4QAVq3qCA8FyAysjOe+t0EWvMuQGqSxj8ODOt7BoE44dI9MRcxfQK0eAatY6Kf1Rp1g8btyvmrAKif1B/FsByb6t5z2EZk57Vx5atPPZEvrKnh2xyVAXxo4RvqwsAtGHOmZqNPwyVjfTLno9L+ROePe3j01k+DFXk8fNoimDMOtWDwwz/P0QqItIbtfrEcS0CaJm53IugPRB0BFMLNpTaNxAVYzglAGpyAIYD4AVy0SW7Sti0n73iTcOryFWfmYTb99HPCGT8G+jZY89dOszL2qAd3LSGcSEUjMnTL9sqhMOmuavLx8j8w9e5JIwyHZm9wPj36AuzJIEZ8BSjgojkje0t5JAIRlHbJVkVMlML1RX1WJYMWJpgFrGJZbKR9BHRSlHAa/g5FLJoaRS3Dut2RD6xPy6LYfyM629dBxhDEZcbwCvkoxKGbnT71RLpr5AcWF8SaGs4IHJhTwpWzZ0NZFiLFoCYYLyx9u2y2TnvPLAkQpGAUP8M4EEuzCqM9+2RCNYLAHgXLIaehIKFAjbpcpz/z8kKxfdhA8BaLbwg+NHGjlM5jkkpFBiNnPMeg8WrTpBWS1ecd4mTIPWZvNDjmA84N2OCOnXIZjNJkt4iKvoFmACwLAu2dhTeSaaHg5rDXoeUGVvK+iKVuJFC2PMEGroDoUS8sfLUQIlXNS02KZWHuGvHroCXly0x2SxC57+rh3yDkT3y/NdZNwjbfT0vrNQ2PV5u1OUz3N9PSlqg1EZM9LSblv3QGZc35U5l1ZK8E6nK/rhAUMTsSmLwvv7wjSh4Vk3cOt8vwj8PLuYr7LIOjm+a95OiFvTlU0cKG9LnwNbTqFgkUqtI2Sx37cDp2UKwuumCijT4XeKtUuSQCV38forZwTjENyJGDR986CT9YbOalKXFV9tWmEAhZtDUcOaF9EetN3xU2KLA4WkFdel//fdH0vHwwG6ryAhbBbowv0xcphgVpoS9iol/lj3gmu63Ss7qw015+CJ+exiCFWwG+HzyRXxSihRXGhl6YN0UdF+hRfj+Mx8Nym4tlFerUQcgAIUsO9/EhGtr2QljOuCOJQOwAJB9nNXERaXvLJs/fskUO7DIRYQdZw5JhUT6ZzMd4MBKS8Rc67ScHBjFzPPhfr6/nZm9+7EPG5uRQQBI3hlOiVUmOH5OCmnNy3cZucvCAm899Zp0IoJVKdqID1InghdHYM4Q3GCtME4YjgcVrtYEXqVD1gFQcBw8n+HLNgj8GVuJYTlx55LNy+B1B4NSHPBKei6qL/i/KqO0Y9WCm8zJuq6s4BPPX1S+kEqAowi8UHQUd1vzuCbXPNDO8L9Rs5ANWhVf7B+5jFV30xiF9eJxSX0q9a2ONi6fkeLVKVHPlZ8cqer16PKepxAXLaYvzgUxQJQ1fX7spTv2yXV5ebsuDSqbLhhRbZuuKgRApNCLsC/RZAzlPLezUWyVd87fmco7/nvEE5dlP7qAI1HJ5rrKg/lYEjVAiLq3G5uovn+uArhZSz6CdSzq2Ly2mL62XOW2vgpZ6RZFcBB6YRUgbJLthmA8YWGh3697yjN78Svql6wCoLEdUEYop1eJurCUh9CBWXZWlNGR6KZcC1V+7+klPEpsEjK1H4HHVsT8ljt+2FeR/iX6AZXAX0WpSfB1mKG4RSUhMBylzYHp5uoH3BH4C+MuXI6t8lZd2zWVn49phMX0SXhTTCRXNn4pXMHn4iwJXHKJSZ/GV+/HEsuuItCqS6OavjW7wVMPuPg/zkTIqL+DhuL9ktdNsg3Zmd23W6JITzcUFswTFwXYwq0JOrKslDARB8Xvn7TvEWuiqlWGdWG+Q9DAckj7Rzf/rJHnng2x2S2hmQproIMhXBiRRw1c0floQM5ayEkk3VlKIQpQBDrXXuMhgOmGUHto963BD1P96RUZCgyKqjXtavUlN1f9YbrChdSvfurYCLZxn6UdQura5DrUVLjrqVv7rrOFxVj8/6UXfpL2FrX2+xqh9NMhBmhKClvhsA4RWdcP+RtVJIx2f8NeACkQdjb8Dyx2zV1M0xoYlDQwQjMqjwogOuFDf0XBZUVKPP+FSpH/DH8TSVc83FgfXizWp+oU6+EkyKzzh2az3uSlWEA8/Ua0HLBR80hILGIe/GUI20bbDlXoDWYz/rECPdiNAziOTAZB/dKhAVJIB+VuwU2TRV+Efll54jM2ythRED6bBhWu5W6NDRUc2IXlpQ3M14TsoEwZm5gweeCzlL4umUjJuNkCFQMNNs6+mReqmkx0eMzsAsN1BFI5FnTiacZksyzdPsYJ2xK3vxgbr1BrhPEeiNYMSxRZt9uAfuLgggh0q7syP3eNSb3io2HiDFoIImlKC706961zDrDSIR5KE4Vxlt6AjJTMj8G+x82QoV3GhDFm1gXAD+5zjtan8Zh82p/ObhYVKo7yWsYpChBl7FfJQ24s4XQGsL46gO7aIKHh3i9sHFxJhNhzcQfHq0wowuKhYW68aC5W28H6sYr6yPJtGBF+94CvtFDo4zi+OCtiNaQRhtz5MuR5uwxcfxdrQJs1ZF6nQx8eqacdIAoVBNuJSoeYZ2M+IGo8OqvRGnFtjqvgsBk/0iyHlgSpim/1kBusoc6oNXi0RwIHr7E3l54Ks75ZUHkhK2GiRUi7YD4HgQXB0cV33ynsgjP9VQSNYyFEzzbvpwQhQV5701pPgdBzyHs04mlImZTrC5cBqcf00tgvA34HwUIIir4fBu0VtN3meKoyJnA+fCNIL5L7pylJyKqIopqxOTiSCEw59oHIYWEw7RSHkbAuWVqvgAVFwQTNm+bscz8sTmWyVpwtkTYY9tpoICPQwoSx0TvjdQLhsIPleuQrHDwJnFAHRC5AOYTm/Frt/I8l3/Bf0Q2oUjHQw5olCsr0aCpgYWExOL5nM5Of18uCE0iHTC1cCmDgp9ztMKxoXLjYy+FwNaP8U5xElQfN9Xg/r+jqFaGDDQRLtsvM8j+0482yZnICSzA2ujD6BAIauvUtxoi/M3iRj086+LyJi5LrzV2+BPxowD5Ay5feIQuwJBKMcH1vE3NAFtAt28XIJ5WEdxzjARk+VIxnHPN3bLXgSabYrUQu/F2c1tiKcAmAaMYuXxgfsbGjDkf1IrV5Jy3YfmXdGafm0RFdHcA/qccSAqpjCWA7HAlG1Pg61FvHXGNeqtcLNkOJU8fE2ybhLhMEJywUdjMuN8v7TDaZBsNcNpeKX42ltNajrjybQpei1wEO9n5qIamThrtHQc6pLWFvjy5OhciMWISYRLIWpgUh2uH/XiEWAQsGNaMm4hRJE0dCi4jjDXdyFHgIWAy+hp7CBm0cY9y2XT7uUSjdTJ6Jrpql1MWGnRe5vPpbfysart+6HH/S39nmhSNwCyuzrWyu9e/rI8s/lXksXG4PPhWAyBVjWu7waqw7S4xMb4ZjOI41TnKnM8zfAtu8AdZENYRKAHnDlZn/LCJnD3pPlx9+I4bgRoku5ZRDXowqZWPz4gl394lIxdmIN/G1wGshiTo8zV3p5mwypAp1YXOrY5547C8RhDDuxNSOdBxmWDuIbJo/pKrpWY0zc5e3vEEZ9xfqtYYJBG/PC9CuAZuU6/bFqNSK1b8tI8NiqNY7GemM2ZXB7mpEWxZ7APRitUP7qXPxPuNkemPHvPj1c9ckQDB/FHWQBLARoWAxe5HbBk21MOToyDfe4xCYoDR5+jPM5CkRuqmVyQ8xHL+9RraKZF7B4cT7Bosid6ePtEN1genSLMsoMZgoXIAGZsA+N+I8NMY1xOOi8q9WNq5OCBNmk/0AEPq6gCF8YP8kJ3sF7MJvw/HsBiDkU1lmhzgfniwFFYgYC058G2v/ZH2du1BTvgeKkNjeKyxaIhX0MxCYQqQ+Hz2+Ot8vC6W+Th9V+Vlvgm8SGkNELEQYRBGnNMcEaMOFah/oRFZfvBGBfAoTjwzp6xMCJjp4VB77h0YgHTV0gBNa4t59EQSpVJxNC263Ky8J0xuejGGrEbU5JEJia6hBQ4LuSyjgEspI+iUXd/CljAaYj/zbMMOeXseoysC+A6JJkEQMWOYC7SmneMSknIYxVWwU5gDhWwkCyKpjiOFADt216zka+ySxKtBRk3qVkCtZA5EN2B7DO5wWP16ZiPZgVDCFhY7cNfFAqDw8EUBrKDUHZCNUKBCc6MmbB6ODj7pFJ4dUHXNCor51wxSmaeh10PC6W9vVNCWDYORA1GgOXiBqnxQ0r1XRQA4BLqEHzwDFZmb+wwmSR2HByBGD8/J+Pn1iEVWEFWP9AphS4brDWehfYyaKM4SClWiOJvDDTEVAv38tlqfvT9aHxLzg5VgJOwMPPZWk6SEGJyO9h9X9p7v2zZ/ZQsnP4Xcu6MD0utvwkXQCTBTUoXAtHBQMztEjhSeZOK7YWFjQ1xQUivPxBD8byCk5Rnd90pT234uXTmWiQYCUrIDSlRxgRniPWKtpMg/aE5OTXVCTwHtIL4wdRrHUhs0DgrK9d+rkG2P2vI8of2S/wAEovg7Bz3rjzucanz463qeXgzqEI4gA6HCiMo5FUiBop/2EBMdIip01IpbGQYi5Pf6pMzr0LyhmhSOhAdIZ+FXxNijzmM0wJOqD+AWhQHi01mRAVm4EYOFJz1zMvCdwXl5PMnyOoHu2TryoNiI0uNHUbfSVfos0hblXm5uwJvgzg2vTkk5OLZT6XvxRyiusTFBI5EIQ5i3Wx6JgeH281oQ51MnR+RBMB0sNQt9nMoX8sCWIqY2E1MBh+j3gYFBmlMHOxgUI04QPtUGslAfXE5/bKQzEPeuXw4gRxsWCgYR4ZJyZEF62Y8CBjeujn2YDKTLgu5G2Vh9P7CAsHnWEzJTnADYKNnvcUnM+aNktUPJWTTs9j9MybEFgALvMkz0C85EG0AeVTL4jNm46Vuqu8hZ5NZyDAVwZV3MPU8QTcC/QI1C09su13W7X1Szp72QTlr0rUIxIanAChdLJgs7qVWq+8n8Sl9FxdtzjE0DeIp0SvaMboQiRUpowAmr+55RP604Q7Zm14PrgcKXBwc9vRKAFzQz+unt+H0/RTvW7Wh9Ow7Fo6Ca8yBVNxQh7YnXmDLuNNGySuIPrD2yRQiDcCjO4poE2BlC7iezqKDT5XOtiNkMEU0xkfHKCjVAECE4YIzEMEnnIoziphvtTORMi55SKQDQGWGFIAyjRonXf82pzdThrolPk9RDtOs/RASotY4cuEHbTn13GZZfl9cWjal4JoREQSkQNA9XERaEbhxr8cBee/fXPuRnyhDBxuqpA98B06YY5fr7ncs5JfONkte+FM7ON1mb0Kp+ds9UEdWVzF/lQWwKBJ4abcBQBgMEyZpC+FeTaSRTyexkAqdMu2MoMxDfOnwlByUs4fE6oCsD67E9nVbhsiSE/lKXFgnj7IkEmSjbYTlqJeTzo/Iiru6ZM/apASZgSTMCYyJTJkWu6HBIyOqHYMbbE5IeqX7ozFpy+6WB9f9q7x84G55y4x/kJmNCzHZATD9EMH6RRK0m7n8TIQWMZD+yzTqZA9EvidfuUVebX1UslDMhoJhtIfcFnZotcy4Q3jiXb+ecdSLinQCx4MqHfQpHofRIdQm86+PysyzR8uyB9pl5+ouqTWQsspPrgdGiO7N7ajV9uMLWseYk5CZhrAjQt2AfJUZhGtpLshF76mRcXNhNc60IhoCLM/KWxy8NNNjqeMBpZ1vBlQNFBPbuyyJTHPkis/FZOcqQ1Y8mILoZkkduFoDmwnFOvzHPOtHB49yCTk1ArQPOxCP+XQl02LVJOSsS0epCKReuOiywMFRWtz7x2VpoSIdrF8qZC8AKI/oiekOyPCBpNRMysvlNzTJ+DkuWHHE7cFgchE7FmKvY9Ew0QAXNmNO95tF7r3vR/0UdkIMLqK0wKLVGT8koYmGvOX/BGTPcluefyAhHa9l1Q6dZrRHmKgNsNhKZqFlUd151KqP+QUPM9N73obS14KVZzuyO//3cx+S00a9Xd46+yMyOjb5mHX05wID3IJFwAXwJvJ75KmNd8pzsACm83EJxkISQ9x7btDK/RLiotLdgPZDoU5jkk5HUsgXGJC2NBTFTQm5/ONR2f1CUFbe1ykHtzNXHrgOiGoc++Mv3OzA1YCNd2D5S8HZ1K7Jw3pXI3MW10kOYlp7J8LPENQgAiqAsDAe6tDw8T/1aHeS84TMCxhxAJIJxT03n+OTt5/RLOufbJOXHuoQJxmRILJ30/ZC5TjdIAYMXJjMFtwZ6J6WSHaJEcvKrHPHy1lvGydWQ4t0IVuOdzCaG9MgUPFoHS3h52UALHJU9GthWFco1JFi/My31ssa6ZQZZ0bkFLxPwnLXghTcTJCJdGoKDArcIbrnqgqQj4Hjv6HgsjCNIIIhNAl0XHnExC5AKZqBqX3cQksmnTEKB267ZPsrSZl97hhJ5dqVsYD549CxQQ+No3K/sV+oCh0OWgByBFlb1for2fD0H2TxSTfKOdNuhJiIc2Ng95UPDxYxJzE3gtcLifX63/TdoTiiGCRVt0+yyDyzZue90FP9TFryWyRswzoahrCG1eGAtSI4cIxIb3IlNIoMCi9eb9wR71gnIJErEs+GxRhhfNMIWNd4minXnlIjW55B/x9qk1SbD75z4AwBIHnonug7xwYpWqGO7unhvele1YoC/I5vqA6A0YVGFgdZoWdfGJG5V8TEHl2QTrjKINElJGLOMxhh0Gf6mVGEhJwM2g1+Mzqi0+oP0BNiKI8Q2eDSnZwtmXZYhv1tyrA0ZX4djtx0yq7nIR8j1VYoCA9+xmZHh1WoGCr/ySVjniguGJ+rOYC/XermQB/SlaqPVCqDz9IyfT6iW0A3F5uaBhfZgnye0JtBJ4cK0aLX58ub21oZn5SshXcs/eCt69ue+1Q4zBAe/eu8IjomRgDnKaCmAbnAqnYgsFz3Ihncblo6AiuLEFpHgOSkj9bASomFksOiyqbZV7S9BGD15hZzCeK5WMgECzpbpsDKj6uZJRdP/ZDMG3Ml1hIO/xYgTjOLChcwxAxXcWnk+lgjCIu/6YJquQho58S4/mTb/ufk8bW3y+b4cjHCaQlZNWr3Vn18c0OG/RMq53m4nP8iEJFTbba8DI5j89JOsbJRcJ+cugAt0J25FnGx0gXaADNaYJnuCmRDrwEI2CDppJpMwdEXNGieZcpZ76yXpplws0gmJYf45z0z8Ax7Zw8/0BtvSh5ZRIgNQgEfhfph77q8vHh/XPZsyIE7DIoPQ03gpbRhkgPEeqFqhYw+xBXMF+oaoevE3+k0dHMQ+5un+GThdaOkeW4Gab3IzQLsaNDAv1IWZVDDcNCRNw1R+7TRF938vvk//IdSPaMMHNbrTeciJ9GTUKZzF2epNLDyWuuBleLsAFRdbcyBiM+4u+NVtV0tDk64UhZvMpFOXjwjW2LRiOwvbJFfvvAvsrLxbrls5qdkStMirl14OmMnhn6CEUYh12BvpVWRfnHwU6OIF/BLS3qL/OmFH8q63Y8g8WYW+jIothkbHsYv5SXuDUMpO3FcdTFRbI7cB9qTQPZiHzi/hTf65aQLx8nquw/K/hfBiUBkpp6RCMw9ksdUMCRqsSqCENCwaAu5sDrNUDsqh6B/NYhrTqsY/KAwjgEL4j/1WRVRvM2Jlm/2P5spSHsyJXWTRS79x5hsX45Dzvcfkq49NhyPPT0c1wt82zF24ADhnuBDf3jGsoCs6O2JTqmdbMvZlzXJVMRyT7ldsq8dXCT+WdgAvYP7FdHxfjeibICluBYsRC7GIsoTvOiLw9eh4Vj6TZcjLiyKQt6O5olIvKDY7uHgBItg6YB7CLtBKUAi3JhcCcX0p2T+uMvkolnvk/rgbIgGbBlzLWJoqaAHfaFVx2TdLys2/UKWbr5buoxOCdRRVACwYbJ7DAp5sEpZuMBdOMkp1w9wlRbjjkO3lYaDbnBMXi799AQop9tl9X0d0r4fqdqRut1Haxi6DPIA5AjaACv0js7GTqhDTruiVk6/AgsbC/0g9FT0DfNjcVPpDvJUTOG8L64NdXQJCJyFX0tnV0omnhWVaaeOl7WPd8rqx9vgu1gjIT8AiolOIfb5YM1kf5IwGIQbc3LOZRGZdT445xCtrp2gCeKtwrDF9HDcCsFzV0y/+9uQsgFWb4BEsCqWIgdT/Lucr0VAYpuLYFqcVGwX33N1FAGs1G3t+SwCl0N+H860MSsMw1lKnn3t17J+z7NyzvT3QL/1F/BurvWaoBi0tKx57V758/pfSEtys/ihUA/B8dOADlHpjTBt6dCaRx/ALKqJXOr2H099XnIJ6qdwUo4gTP0TGgg1DLSd+6X5TAvK6bHy8mOd8tKjMNp0+SSMBauYJVyaAbjxGNbERT5Z9PYxEpmQkkNtUDi3+6G8p08SdVIAMMXZD4V+6nh67d1TBC2K50pVAtAKgVNOxJHYNJCXWdeEZeqiabLqgQOyDcAtKRzzgStEHHoqCSVk9qUNcurlTbB8pqWjrUPsONcV/YVAGNDE7dZFqulx/M0sy51lA6zeelsEBn7X831v15brsyLQFl/Zjp7vh6Jdxfo9YOQ05gFwTEAqXCH+BZGnrsvcJw9vuVleeO0Pcsmsv5YJDXPlUHaHPLX2l7KpZZkYEXBmMab3otgEBSwWAHVEVKazfjo1VhLN1R7QY2EBuhRp1eF3vM+CicyaUE5fFZIZiybJqvsOyvaVHeImGc+8IE0zDJl/9WhpPp16nIQc3EdxCTTDcSJImgBrcJZYvzxcTt1ppZXimDs5gDSax1Ay2C6VyE8DgT/SJZfe1CS74HLzwoMdcqjlkEyaHpT5l02R+qkIF506iKM/9OFipFlyYBChFTjTFw3jjUorabz7S/+KAqxio4uDVfxbv3oUKNKFWU8IWkV+yEu7Dj+mqCP7u16Ru5//ZwkgPlICq7oA3YZvFHZYepxipz4s9oFj4cQt1llpk5fcKvVRhBQWBVcKYJTLqfc5Emx0QYHsQ5TNS25slH3nxWTj2kMyprlWpi+AtdnCooUjsAHLH081kIMsJp8tGhcqEaxUh7t/FR2dlaQPYPUyP6Mf0LC3tLZJ3aSwXPqpBkklAGK10NVlkZgCB619cLlRztAAZII99XQePQnWnv6153Oq5X1FAla1EK+87XydoXfgH0+/rTwiTPoRBYI5+ZIO/I0C8MSnuTwLfQ5Wa3HClrfdpXs6LWR0J8nhFEIrnD2j0/wyf2YMRlEc30rvwUJFfHdyT+AgK0nFMFgKEMwpJtOgkMklsTHhEzjKpdsTUNbDCRsATSudV16fJ4N9biXcrwGrEkZhkG2gVQmaLUxj6iqoVGUUAOg7sAvbEB15JtOBmFTkVgb5uIq5XaVth9hIRXsBqa3yaVAB8p4B8ZbOv0rmA0nIPVYaB3n8RKSuUdl9lajIs7AqThz6SK94CMvQZ4Emysfh+J9SqXdqwKrUkel3u7BayUVRdMLZPAb9o8gojKiAyZzl3zikTfN3UYTsd9UVfyGOmVAhBYsf3QA8Ky45THAY+MyEQyZ9korlROCyPMMIBVq6uqDr4Kw4vkW3F0boIYDT2eFELBqwqn5UIQ7QCUkVKs6LHSKnQYjCr8OfFb87QV6hiObChSOD6jf7y1juSghCn+ml37OcCFwWx9frM7gsdo/cI1481xvvmxNLCOw5ggRiXTQFNAU0BaqEAhqwqmSgdDM1BTQFNIel54CmgKZAFVFAc1hVNFi6qZoCI50CGrBG+gzQ/dcUqCIKaMCqosHSTdUUGOkU0IA10meA7r+mQBVRQANWFQ2WbqqmwEingAaskT4DdP81BaqIAhqwqmiwdFM1BUY6BTRgjfQZoPuvKVBFFNCAVUWDpZuqKTDSKaABa6TPAN1/TYEqooAGrCoaLN1UTYGRTgENWCN9Buj+awpUEQU0YFXRYOmmagqMdApowBrpM0D3X1OgiiigAauKBks3VVNgpFNAA9ZInwG6/5oCVUQBDVhVNFi6qZoCI50CGrBG+gzQ/dcUqCIKaMCqosHSTdUUGOkU0IA10meA7r+mQBVRQANWFQ2WbqqmwEingAaskT4DdP81BaqIAhqwqmiwdFM1BaqCAt2owpzUjlPMSl6almvAKg0ddS2aApoCw0ABDVjDQGT9CE0BTYHSUEADVmnoqGvRFNAUGAYKlAywIKlaIo64Lqs0hqHp+hGaApoClUUBAwiQR5MABcAApcMqGcJ4PS1ZdVE71i4mYMsorZKtsgZEt0ZTQFOgLwq4Ltc/YcUVg7jlGG5f1w/0u5IBlmFHV5ni60bYgTZDX68poClQ/RQASAGlHAdcFpmXrCsRq2l3KftVMsCyrYa1diHabmhpsJTjo+vSFKgqCpgQBy2rIAXXFVuCruSd1aXsQMkA66XfdW2uD49dkctBKgRqwQMD7KCJ9+QIS8oVlrL/ui5NAU2BElLAKThY89BkAQdG105aNWvyxWtKWL0SNktS35IlS5yTJ73t6/lMNk/Fm2kAC10bsFVQHSjJQ3QlmgKaAhVGAU9nTcnKMApi2WBVYHgz0nmZXrPg63PHvC1RygaXjMNio5b/suWpSZGFt6fSabCE6IEvIaYbFLdgl7LNui5NAU2BiqEAdUDkqgBUBUPyhk/imU6ZEj3pN42NsT+Uupkl1zit2HbXmKc2//ShNmfzPMsXFdfJiaVERJoMdNEU0BQ4kShA9Y/j5uHOJOK3gtKVikvMbXxq3sQrr7v69C+0lbqvJeWw2LiFU2/YNzW28Fqza/TSTCYD0yb1WSV/TKnpoOvTFNAUOA4KEKhYbPAjBKsaGfXclNhZ7x4KsOJzhgRJrj97yWujwjPfMSt83i1uXLKFXFZMWA7yeBo0WkJpEf4ZSrelZN9uRzM2SBdNAU2ByqQAuakC/KyoVKdRjXpqCIHqXyaTz08MnvKzYKDx3e+/8Ja9Q9WDkouEb2zog/+/vSsBrKo60+dub0tIQlaysTSA7Iug7Jag2NpK0aEw3VS2gkhxQREQmImtoFiVTRy1RVpcoLHOjOMMAy4gaikoAoOAMCEJSwKEhIRsb7vbfP97PCZK1CS8l7z3cg6ae3Nz77nnfOfe757zr0efuulI2d8WV9QW/9Aehw6qCoTxsNdQ/AZm5MxtGvg9JNT59dbw3zkCHIGWIkCW6z5dGggLCyem0gzEpcHWKvHj7JRxT/xqaN67La27qdeFnLCoIS/tm6V4q8tnVDlLH6qX6nraHDioS2BnK3ZIq6CCtYmxWqU5uA8vHAGOQHMRoNUfvaa6rjPDjWWgIhUnsG7PxCQl/2H20JdhyBD60qoMserf7kgQk+TFFXVF00HRyaKswZOHWBvWsb6+UnO4zVboh53fgSPQPAQgwIEAyWRetZ7JbpsrM2bgCxlZg1dNuG5+UC3Zv6tVrUpYgcbkH5o9orCi+GGX8/wdusUtSXI8sCDplgq6UpgpQvNg6BCwtUnzAs3kW45AO0NAgFyKAhj4Fn9+t2Ba+IgiU6Ht1+o11iXuhjck3fbs7JtfDqpBaFOBblNG2Hromds+L9n2WI1SONquOOB+5ABYHh9gogjiCqggmtobfh5HgCPQYgQkmihggWNo0OsrFqz/VCz/NNhX6SyGpXzeI/7WvMnDHvvPFt8gCBe2KWFR+7cWrI1T6yvvPli6bVGtVJ1pc9iY1UWzLPgjwYHSL5AnjSK0i5zAgjDkvAqOQOMICNCAGRK8U2CtTro/5sZ6xx1TnCh3ejExKXPDPcPWX2z8ytY72uaEFejq37/c2PVI+Ydzi2sOzNXtbrtVsjMBgnmSaZFUi6JWcE1iAC2+5QgEFwGfjAqSZENUmapihuVVqq5LuH5LfZW+fM6ETa0qp/q2noUNYQUamb/ngdHFNUcWVGplEyTJFOxWuPZgZqVDpuUvYdfkQNP5liMQxgjQe+P79GMbeIcCCi5Ii3FIxTumw2s5w9J3VydHz6VThi//JNw6FGh52LVrzQeT71BNddEF/fiNNgsibalWvyYRmkVaZ8NREf8HBiDcms/bwxEILwQMRE4RoeUT8c5QJhsBDspkwG3AsohWLx6Xm6Uo2Ue8deKy6/v22PqjHus84dUDf2vClbB8rSP5VtGpnQ+erT89S7XWZtqlWERfRZBACAJFGZa24Csu1grHx4q3KdwQoEgKmirCdsrGNGjkTWjkJWgAVY+bifVKeZfUARuH9Zj07MBO/3Ah3NresD1hTViBhm7+e15Xt1i8sLDiwAwoDxVREZgX0ywZLj0R0YFAR/iWI9BGCJC9owGGIqpSLCrzIvyLoIrurh16/zVZ6r/szhF5J9uoac26bUS9769+/ODYc1UHl9bI5282LHYmwz5EwNfC7xIZWI83q//8ZI5AlCNArziWgobMdNkDwsL7UiuxBDHtw6ykoYt+PuLJvZEEQEQRFgGbl8fE7NyHflrhPrCshlX0kxSKI68z2bcgl3zmECIkiCTnIncf/5KRk1kkPZS8rc1HIGD2Q2ZAcBzBOwGZle+x9+IXB2ZXXsiu3MympRZ0T7nhmayY1M2jey2sbf6d2vaKiCOsAFwnLm7Pfvvg2vsr60/PNq2sgyLaIdeCpTyIy9DJPBdfEthyCb5IEIGr+JYjEH0I+EmKnnmS6cLVDR9smFIxXZCRBwIWVWYt7Kkclzpae63Pju/9/JQb885HKgoRS1gBwHee+Jd+R0vfW1paXzBFsGmCLMLwTbeAqPCFgaCRG5sGkOLbaEeAiIuKQBlr8J+uyMz0mCxJ6rxlSLdbVnw/Z94XkY5BxBNWYAA2fPLgbefKDz7qNivHsjiaFktM1OBeICIaIv7xwhGIZgRMitOEz7Qsi1BI6cyLlaBDi92TEdNt1axxr+VHS9/988go6M2M0av/O85q/+GwnH+8x6onFXg9Lljtui9TFabJl2mLpsu8cAQiGwF8gMFPZJ1Oj7OJWOqUbZlMfSifgqRaTw/LGP9QohQ3NprIisYsKt/ed/evzDhZfXjOGffRez1iXbIDjtU+h058fXRoFYmlTQMmEdjxRU/0hUAlOHjhCIQ/AmT8aeLhpdx/tE8fYa+GKZVbqUi1996Y3bHfqklDl4Qs6mdbIhSVhBUAdM+5/D6ffvnvi856PrtLtnRgFg1fIcXNVKQf83M1DTaF04iaiWag63wbpQjQjApBFSBMp9kVnl/Ty9xer9kldki+4kx8atatLxyM0q77uhXVhBUYuNc+vv/OIuenjztZdX9FhjYRwklk1IbpA2ZbeAI4YQWQ4ttIQIBkspICJ2XYUymehM+6pA1eOXXUmrcioe3X2sZ2QVgE0kvvzYqvYxXTPObFf7qklXd02KFNhByAAumTKQQvHIFIQIBmVV5Vg2+t43y/TiPW19UKz0/LXX0pEtoejDa2uzf1neN5vQpPH5xX7j45zbB67Da7A+t/uCsgpAYUi8wD8oIBPabaXLMYjAeM19E8BPwGoHBOJjkVCdbxMGI9QDJ1aP6g8XYKzgxr11c7dR78zJS+eSeaV3vkn93uCCswZGu2TxvpZKceqdMr7oSPD7PAZkXVkA1EoTjzfJkYwIlvWxcBBFLCrB8KoStCdQjXdfhyaE6WZuu6K9E65LG7Ri7f3bqtCp+7tVvCCgzBlv0Lf1ZcumfJRfN8P0tHZAJxx/m1iAhk5hfMB87kW45A6BEgg2dyUDYFDd9Rg7mRnNRmpB7NtA55sruUtiU3Nw+hQNtvafeERUP/2tZ5cWoH95ySmkMPeuXqThLiWZs+TSL9NbA0JKgC+3ScF45AMBHwP18CnJRNq4epLgOhwjue7ZE+ZE1K8siXxudMqQ7m3SK1Lk5YDUZu+7F13Y6XfbzwfG3BVMGiWWXECBRNpCDzBTvDUvEyidHXjwKg8RlYA/D47nci4DPyxDeP5FSGT0ZKGZTJ/JPcyPBMYeuFg7LqFFxp8T3+tWfc6McnDH604DsrbkcncMJqZLDXbb1nlFMpfbJaLxlD2UNEOJGSm5aEhK8SYgppIDFMwUgUygtHoMkIkIaPtNIqZFICjKkoS42uQ2qFrQB3GsOjskQl+/0bu0564qYes3Y1ueJ2dCJ/575hsBHt1Fp54fTkwpr9Czxi2QBFpizV0NIgCISAzCL+wpeI3wAfP9wYAtD6mXDIl5DnnYhKIg0gZuoqwhMrrENRZsqQFYY0cNPsobNbJYtyY00M92OcsL5jhF75aF5KvfPkvAp2foYq1mfIdgkaG5kpMH/gkSC+Azz+568gYGIpKMIJ0IS9gsIszAkPZd00avsnjl0vMmn1L4avKfvKBfyXqxDghHUVJI0f2HpkbZ+CMx8uOucp+JlsY4qMwIF+Uy18NvnisHHQ+NHLzwbNxEnzB8LCDEv3grQ8dhZvSfyv76UPfWLSwOV7OFRNQ4ATVtNwCpwl/HHH3HFOo+SfS1wFYySHwBQsDwUVMi0faalk0sU0aHp8O1dSkwUu59toR8Bv+EnOM/iHZ4FCU1GCUspAoEkwWPAYLIl1/jTGGr/CaVPfnT/yTVe0YxLM/nHCagGaOy+sjz13qvCXhWWfLPAo9TmYb/nib1GQU3xAURCqGfGzBUSE4KV9IoBsA0yE94RmNSD5RKYar5PZvUJZZsKNv++eNWp9brdp7vaJzLX1mhPWNeD31r7H0kuqTsyu8B6fo1qdqVYrlokqZlymDbUi3AdfKl4DupF9qc+pHl3w4DlQvLLXoXXcGC9d99Sc2148Gdk9a9vWc8IKAv4bdsy5zm24Eab5wCQhxmOXJTvWhbQe8E23cAeSYXCogwB1GFfhD6ZHo0zLQS8yKFM0kEQjbdvArAm/+0H/h9utO00wB42/RUFE8/W9CyaXXjr42CW1ZJDsQOwtyk6NaJAC1Ngq+YiBt8hMkJfIRyAgqyJ6ohElORU5KOsQYqp1JrOYMfviLZ1XzR+/ZTP+TF8sXoKAAH97ggBiwyp2HsmPPVv30a9PVO5Z4Jbq0y3k5oPAgRKE8wYymCCdJSethoBF6j45yIOgyHpdhJkL5Q5w6y58lJSLOfEj1pua+syM0a9EXBqtcB8OTlghGqG39j/c5WR50fwy18npYpwz1oZcZAi3BgEsNEYUQJCsm/G0c1uuEA1ASKvFok9QMX6xuAs8H7w1mEOZapIy4E9xYszTM3M3tLuwLyGFu0HlnLAagBGK3bf+Z8nwkxcOP1LmLphkdchMgpsPFSKqAHGF4r68zlAiQB8bG1ONCiZDVpkgdH2/R/rwlbcPyHs/lHfldXNJcKs9A9sOPztpb8lbS11G1SCLTcF3mfInkk8ZyUBgBkFpUHDUX7jIo9UGptEb0Xf86x8U//j4HZd15nF5mENI/TJZyXha11I23/+jdZ5Gq+IHg4oAn2EFFc5vr2z9zsmxFtP+UJHz0DzB5kqxIls1PMrg6qMigKCFaSpcyOBczUvbIuBbqpNNHQ0FvSHw+6MlvIqICgaCPMqao6Jv2uhXsuIHPTuq+90X2ra17evunLDaYLw37Xq0d1n9gYU1etlkGBY6fIJ5COTxTiDOPJkc8mFpg2G5ckuB3GegKBEkaHkhqzKg4zWx9BO8khkvxv2lY0L3p2eO3HDgygV8p9UQ4G9Gq0F99Y22Fa0ds7/wzZUerXqEKSNGkghtou80viS8Gq1WPAINIIkaNfqIGMhOA+cZh5z2Wb+Mm1beOfC37SI7TSui3axbccJqFlzBP3njzjybx1swvUw7Nr9Oqs+xW2xQjUN7GPxb8RqbhABFVJCZV6iHk7LJkvWco3YjabWcbnl99tCXnU2qgp8UMgQ4YYUM2uZVvPajaSnJluQZx6o+eFi3eJLppZEpXC79QwpyCkmCuJTY8iFrHrJfPZuC6BmQSYlIkXQ56CeWfjiGhLqY4gJzpHs365nkiav/XsKNq3vmjHx5dMbdp79aC/+trRDgT39bIf8N983f/VT/wovvPu6UL0xUFVNUZAskWgpkKshFh4BvNPcyKP8TLy1CgAw9/aTv1wJKEj4GkE+ZcKfSWB0zXJqZZB24ZXjvm9eOzvo1D/vSIpRDdxEnrNBhe001r97+y9t1sWZRpXZilGBFeDcRFvOQrZB7okk+Pry0CAEfhhAUkh0cKWQhXoesCjtuncWJcYcyk8b/7lc35P21RZXzi0KOACeskEPc8hvs3JknnzIL7ztVc2K221LdR3HAUkunSBBkJfT/P327/EcTEaDYVIhOBVcpDcs/HZYkhkcqTYvJfDFDvH71lNy8uiZWxE9rAwQ4YbUB6M295dtfLE+r9BYv+7Jkzz2yzYilaKd4zRDGhpyroXmHDMYvm8FSUfRb0gcorbn3iqbz/aQOs1xaBsJIlyZSApaA5Kdswp5Kc0lGTlbv19OkfosnDFpaGk19j9a+cMKKoJHde3rz0E+Ob1pWoZ/5iSkjIoBiZSLCbukQxIuwF/JFg1DszEvZffzxmyOod8FvKsmrdKyhJZXUFTDQBUAqTakQS72DkbEtM7b7U3eP+8Ou4N+Z1xgqBDhhhQrZENa7afcDk8/XfrG8yjjfQ7DjZRTh6kNhbCjCKRyrRdmLWYTfoiuEzQj/qjGTEkDmuoXkVDoTXCLryJKOpnTotnLqmFc2hX8HeAu/jgAnrK8jEiG/5+9fnHKh8vTMMrV4nte8mG53IB8LzCBEBncfzLB4IQSgXwVp1Rk1TPbGXegU03d1dkr2KxP7r+DZaSL0AeGEFaEDF2j23pKXex4+tfuBk2VHpgkJdQh1SnIthGm+okmkIW5/WkVaDmqGxlSvqWfbBmxwu9iKR378xqkAbnwbmQhwworMcbuq1fn7lowuKtm7rFIsuVWOpax3IC64ljBBgdMulomQNPusuC7H4rqqggg8IFJKGgqkh+UwgzDdF+0CTGXITuauFlkMy96e02kAzBR+/7cI7B5vciMIcMJqBJQIPiRsPbZq0oFTby+6xMqHWKwxICkXs3ixXBQkGHKTNtEfNDAaYnGZmEmKCi1/4aBsxCAatRcRLzwsRks9NiR7zOrPjh3fmDflTcoGwkuUIMAJK0oGsmE3th15LrGoavcjp6sK72NWM94CNx8ROfGMKIt0SqYcNLkityUNmj+rZqvpFNfr+VRH/+cnDV1yriEmfD86EOCEFR3j2GgvNnw8faAhOBcX1305CTIt2Yb8iWQsSb50kky+dBEs2/KtAGnW6GRqrenpHDMwv0/amHVj+839rFEw+MGoQIATVlQM47d34vUD908svLB/mUu9NES0kwmEyKxwqEaeT8y6YA5BBpVkgYoFZNgUapfPIBYEq8HODMHCyIVSh5OyP6EH8hDBncZmpH6UnTH42anXP/cfYdN23pCQIcAJK2TQhlfFm7bfFeOyCz8vV4vy6vSKTJvkgDwL9kl4AsjyW4aQHuJqn9tKOLScTD2h4wOZIpAestKIIFQTbTQhs/J4qpnDzDrRP/umNWp1xw1TRs7n6d7DYdBaoQ2csFoB5HC6xc6CtVmHzx6cec61/xFR1iCVJxMI6A8Nn1c1SCtcCizUZSvzaMjniBRalPBdwP+sJq42M6bnul45o9bldpt7Plxay9vROgiEz/PZOv3ld7mMwNqtMwbXesp/47Wcmq5ZXXDl6QhiQCjgMLLZMg2E1kHbTN3NTHesaVOTN3eMTX/uvnF//pwPZPtEgBNW+xz3K73+y75H7yi4cHBhnVEyXLGTo7DVF29L9Jk/XDkt5DtElL4AhXQnaDMZfCUNxKnyuuphu596qGdK7tJfjPjtOyFvCL9BWCPACSush6d1Grdx51SbVexwzwn3/gfrWXkvxYplok6JXxHYDnIkCUtGn28izAiCoVlsaANG+yLCKfgCqcJJWZFhfgHBusvrYTY16VSvlKEvZGcM+OPI7JmVrYMGv0s4I8AJK5xHp5Xbtu1IfmLxxfylpZeKZmpWZwerFUEDyXkY4i0FAQQFweMnriC1y5fjD2FfSAOowKBKVQTmVJ3w+1PcabYur3VNz105se98nkU5SHhHQzWcsKJhFIPchxd3zB9YbxbkXXSdmIiggbApQGx5A6FsSIsYBNstIioqlEiWCs2wVDhse7yamaZ02RVjpi++b/yfeHhiHzr8R0MEOGE1RIPvX0EgP3+yJOd0n3jszOePOh1nh1EaMlnHLAu2UX7O+iajUzre1MeKloI6HJRVFiukHc6MHZnXxau8nZubB3UgLxyBqxFo6pN19ZX8SLtA4I19DyeX1xVOr6wpn6vFlHe2MQekWsjXJ9ogGwevgL0o4YxIeRURgwvTMfAVtI0+Pgs8XrRFhFT4M5IbDWVRJrm6huw0NmdcBRMcL9zRf8HqAV1ur2oXoPJOthiBwBPV4gr4he0DgR0Fz/c9WLrj/ou1hXebVtUmy0hDhhkX6Aehh8mok2I1w+UHpKRfnh8RMflXf/grERjsqUyTRPmgL7fHSJB7vj4odfwTtwz6zf+2DxR5L68VAU5Y14pgO7v+xQ9nj9fNs0vO1hV9n1E2H4SQlwUL05HTT5Qws4LZvGlagQq2NI1CodkWspUxJFFmXthUWfT4Hen2PivuHbfhA98J/AdHoIkIhJHzWBNbzE9rUwTuHfvSe+W7howblDVpimTYCzUV7j1gIgFGpwZ8FBmzgajIOp1CNWOtCBKTZKR7r6tjktNysn/ynVOF+qzbOFm16TBG7M35DCtih67tG/7n3Q9lltYX3Ovx1v5UsNZ2dqt1DhOpaShDDdyUmawgsI1o8UhGzJkYlvZqopC+cfoPXjjT9i3nLYhUBDhhRerIhVG739mX5/Doch+vVHWLm7mSFdnmhPWWUn2xrCje0emo6k74fFpunjuMmsybEqEI/B8IZNL2X5LOsgAAAABJRU5ErkJggg==;" parent="45" vertex="1">
          <mxGeometry x="32" y="50" width="50" height="50" as="geometry" />
        </mxCell>
        <mxCell id="59" value="" style="line;strokeWidth=3;direction=south;html=1;shadow=0;labelBackgroundColor=none;fillColor=none;gradientColor=none;fontSize=12;fontColor=#4277BB;align=right;strokeColor=#4277BB;" parent="2" vertex="1">
          <mxGeometry x="274" y="200" width="10" height="460" as="geometry" />
        </mxCell>
        <mxCell id="76" value="&lt;span style=&quot;font-size: 18px&quot;&gt;Admin Page&lt;/span&gt;" style="shadow=0;dashed=0;html=1;strokeColor=none;fillColor=#0079D6;labelPosition=center;verticalLabelPosition=bottom;verticalAlign=top;shape=mxgraph.azure.azure_website;" parent="2" vertex="1">
          <mxGeometry x="255" y="671" width="50" height="50" as="geometry" />
        </mxCell>
        <mxCell id="80" value="&lt;br&gt;&lt;br&gt;" style="edgeStyle=orthogonalEdgeStyle;rounded=0;html=1;labelBackgroundColor=#ffffff;startArrow=classic;startFill=1;startSize=4;endSize=4;jettySize=auto;orthogonalLoop=1;strokeColor=#4277BB;strokeWidth=2;fontSize=12;fontColor=#4277BB;entryX=0;entryY=0.5;entryPerimeter=0;" parent="2" target="76" edge="1">
          <mxGeometry relative="1" as="geometry">
            <mxPoint x="119.5" y="686.5" as="sourcePoint" />
            <Array as="points" />
            <mxPoint x="277" y="689" as="targetPoint" />
          </mxGeometry>
        </mxCell>
        <mxCell id="103" value="" style="swimlane;shadow=1;labelBackgroundColor=#007FFF;strokeColor=#4277BB;fillColor=none;gradientColor=none;fontColor=#000000;align=right;collapsible=0;startSize=0;strokeWidth=3;swimlaneFillColor=#ffffff;" parent="2" vertex="1">
          <mxGeometry x="22" y="764.5" width="164" height="132" as="geometry" />
        </mxCell>
        <mxCell id="104" value="LEGEND" style="text;html=1;align=left;verticalAlign=middle;fontColor=#4277BB;shadow=0;dashed=0;strokeColor=none;fillColor=none;labelBackgroundColor=none;fontStyle=1;fontSize=14;spacingLeft=0;" parent="103" vertex="1">
          <mxGeometry x="5" y="4.5" width="150" height="20" as="geometry" />
        </mxCell>
        <mxCell id="105" value="Auth Group" style="rounded=0;html=1;shadow=0;labelBackgroundColor=none;strokeColor=#d6b656;strokeWidth=2;fillColor=#fff2cc;fontSize=12;fontColor=#4277BB;align=left;labelPosition=right;verticalLabelPosition=middle;verticalAlign=middle;spacingLeft=5;" parent="103" vertex="1">
          <mxGeometry x="5" y="34.5" width="20" height="10" as="geometry" />
        </mxCell>
        <mxCell id="106" value="Customized Service" style="rounded=0;html=1;shadow=0;labelBackgroundColor=none;strokeColor=#82b366;strokeWidth=2;fillColor=#d5e8d4;fontSize=12;fontColor=#4277BB;align=left;labelPosition=right;verticalLabelPosition=middle;verticalAlign=middle;spacingLeft=5;" parent="103" vertex="1">
          <mxGeometry x="5" y="54.5" width="20" height="10" as="geometry" />
        </mxCell>
        <mxCell id="107" value="Starworks Core Service" style="rounded=0;html=1;shadow=0;labelBackgroundColor=none;strokeColor=#9673a6;strokeWidth=2;fillColor=#e1d5e7;fontSize=12;fontColor=#4277BB;align=left;labelPosition=right;verticalLabelPosition=middle;verticalAlign=middle;spacingLeft=5;" parent="103" vertex="1">
          <mxGeometry x="5" y="74.5" width="20" height="10" as="geometry" />
        </mxCell>
        <mxCell id="108" value="Infrastructure" style="rounded=0;html=1;shadow=0;labelBackgroundColor=none;strokeColor=#6c8ebf;strokeWidth=2;fillColor=#dae8fc;fontSize=12;fontColor=#4277BB;align=left;labelPosition=right;verticalLabelPosition=middle;verticalAlign=middle;spacingLeft=5;" parent="103" vertex="1">
          <mxGeometry x="5" y="94.5" width="20" height="10" as="geometry" />
        </mxCell>
        <mxCell id="132" value="" style="swimlane;shadow=1;labelBackgroundColor=#007FFF;strokeColor=#666666;fillColor=#f5f5f5;fontColor=#000000;align=right;collapsible=0;startSize=0;strokeWidth=3;swimlaneFillColor=#ffffff;" parent="2" vertex="1">
          <mxGeometry x="321" y="228" width="405" height="324" as="geometry" />
        </mxCell>
        <mxCell id="133" value="Org. / User Manager" style="text;html=1;align=left;verticalAlign=middle;fontColor=#4277BB;shadow=0;dashed=0;strokeColor=none;fillColor=none;labelBackgroundColor=none;fontStyle=1;fontSize=22;spacingLeft=5;" parent="132" vertex="1">
          <mxGeometry x="13" y="7" width="278" height="20" as="geometry" />
        </mxCell>
        <mxCell id="28" value="" style="swimlane;shadow=1;labelBackgroundColor=#007FFF;strokeColor=#9673a6;fillColor=#e1d5e7;fontColor=#000000;align=right;collapsible=0;startSize=0;strokeWidth=3;swimlaneFillColor=#ffffff;" parent="132" vertex="1">
          <mxGeometry x="19" y="47" width="186" height="143" as="geometry" />
        </mxCell>
        <mxCell id="29" value="&lt;font style=&quot;font-size: 18px&quot;&gt;Organization / User&lt;br&gt;Management&lt;br&gt;&lt;/font&gt;" style="text;html=1;align=center;verticalAlign=middle;fontColor=#4277BB;shadow=0;dashed=0;strokeColor=none;fillColor=none;labelBackgroundColor=none;fontStyle=1;fontSize=14;spacingLeft=5;" parent="28" vertex="1">
          <mxGeometry y="11" width="175" height="33" as="geometry" />
        </mxCell>
        <mxCell id="31" value="Sign In / Sign Up Server" style="shape=image;imageAspect=0;aspect=fixed;verticalLabelPosition=bottom;verticalAlign=top;image=data:image/png,iVBORw0KGgoAAAANSUhEUgAAASwAAAEsCAYAAAB5fY51AAAEDWlDQ1BJQ0MgUHJvZmlsZQAAOI2NVV1oHFUUPrtzZyMkzlNsNIV0qD8NJQ2TVjShtLp/3d02bpZJNtoi6GT27s6Yyc44M7v9oU9FUHwx6psUxL+3gCAo9Q/bPrQvlQol2tQgKD60+INQ6Ium65k7M5lpurHeZe58853vnnvuuWfvBei5qliWkRQBFpquLRcy4nOHj4g9K5CEh6AXBqFXUR0rXalMAjZPC3e1W99Dwntf2dXd/p+tt0YdFSBxH2Kz5qgLiI8B8KdVy3YBevqRHz/qWh72Yui3MUDEL3q44WPXw3M+fo1pZuQs4tOIBVVTaoiXEI/MxfhGDPsxsNZfoE1q66ro5aJim3XdoLFw72H+n23BaIXzbcOnz5mfPoTvYVz7KzUl5+FRxEuqkp9G/Ajia219thzg25abkRE/BpDc3pqvphHvRFys2weqvp+krbWKIX7nhDbzLOItiM8358pTwdirqpPFnMF2xLc1WvLyOwTAibpbmvHHcvttU57y5+XqNZrLe3lE/Pq8eUj2fXKfOe3pfOjzhJYtB/yll5SDFcSDiH+hRkH25+L+sdxKEAMZahrlSX8ukqMOWy/jXW2m6M9LDBc31B9LFuv6gVKg/0Szi3KAr1kGq1GMjU/aLbnq6/lRxc4XfJ98hTargX++DbMJBSiYMIe9Ck1YAxFkKEAG3xbYaKmDDgYyFK0UGYpfoWYXG+fAPPI6tJnNwb7ClP7IyF+D+bjOtCpkhz6CFrIa/I6sFtNl8auFXGMTP34sNwI/JhkgEtmDz14ySfaRcTIBInmKPE32kxyyE2Tv+thKbEVePDfW/byMM1Kmm0XdObS7oGD/MypMXFPXrCwOtoYjyyn7BV29/MZfsVzpLDdRtuIZnbpXzvlf+ev8MvYr/Gqk4H/kV/G3csdazLuyTMPsbFhzd1UabQbjFvDRmcWJxR3zcfHkVw9GfpbJmeev9F08WW8uDkaslwX6avlWGU6NRKz0g/SHtCy9J30o/ca9zX3Kfc19zn3BXQKRO8ud477hLnAfc1/G9mrzGlrfexZ5GLdn6ZZrrEohI2wVHhZywjbhUWEy8icMCGNCUdiBlq3r+xafL549HQ5jH+an+1y+LlYBifuxAvRN/lVVVOlwlCkdVm9NOL5BE4wkQ2SMlDZU97hX86EilU/lUmkQUztTE6mx1EEPh7OmdqBtAvv8HdWpbrJS6tJj3n0CWdM6busNzRV3S9KTYhqvNiqWmuroiKgYhshMjmhTh9ptWhsF7970j/SbMrsPE1suR5z7DMC+P/Hs+y7ijrQAlhyAgccjbhjPygfeBTjzhNqy28EdkUh8C+DU9+z2v/oyeH791OncxHOs5y2AtTc7nb/f73TWPkD/qwBnjX8BoJ98VVBg/m8AAEAASURBVHgB7H0JgFxVlfZ5S+1VvSedfU8IBAiBLOwQEWQXZWQcl8FxwXEbdZz5HfUfJzM6roM/os6oyKCOioMIAgIKsggkkJU1ZN/J0kknvdW+vPd/331doQOdTne6uqsqfW/SXdVV791377n3fvds9xxDdNEUGCQF7l7xb3M6U9vPM8z8/LTVUd/atn+i3wilm+ombq6JNG8JFqwnrznz688O8jH6dk0BMTQNNAWOlwIPrfmPUzZ2PvHVQ+ndl7i+dE0654ph+MXvc0RcV3IZV8QxxLYCmTqr+ZFp9fO+ef2Cry893ufp+zQFNGDpOTBgCjy39bbm9a0vfXzzvmf+rhDI11m2TyyT1RTENExxAVKALDFMB7iVE8fF305BfLlQOmaPvy2Unfi1T1z1n/sG/GB9w4ingAasET8F+k+AJ7bdEdzatvoDu3ev/vu0fWCmFQyLJTYACuDEH9PFe/wAvAwAl1NwxTQxxfidVQCcCbguRywnvGtczZxbmhomff+GOUuy/W+BvnKkU0AD1kifAf3s//8s/9hVbYmdX2iJ7zwvUJMD5+SXvBOATqGAH4h+/SyGQe4rIy7ExXpz2rL68LSv/M0Ft/6hn7fry0Y4BTRgjfAJcKzu37PmM+fsatvw93vjO//CiIiELZE8WSU3JKYNrgmingE+q//FBYcVkLybkXwwKYXOYG6UPeaPExrO/Ld3L/zGyv7Xo68ciRTQgDUSR70ffV67/64xz239w6d3HXzl4xk7XmMHTLHdiORzjhLvTMMH3VQSOivwV+5AAAtYR12XZQD4bIAd9Fz5rFi5YOe0sWfcIZmab9947v/b3Y8m6ktGIAU0YI3AQe+ry09sWxI82BL/i20H1/zzIXffLDsCsQ+gRD2UCc6qAD2VYeSAOjbAygJY4YuBFui1HOi6wKNJDhxawXLwzpVENifBfM1rzaFJN08cP+32t8/+VtdAq9bXn9gU0IB1Yo/vgHr3xLrvXbx66+NfPGRtvJSck88OAKeOA5AG9FTvYsOgnGlCxIRiPpeXmIxdMXfylV+6+pTP/uk4qtO3nKAU0IB1gg7sQLp13+rvzGhNr1my+dDKd0NJZZmWLbYBcQ0Y4sKfajgKrYsmJEvD4PNcyThZyaTszIzGufc1+qd964azvrJ6ONqhn1HZFNCAVdnjM6St+9GjN9XGavyf3HhgxSeyVtfYYMgvhRz1Sjb8qvLQMeXFsCn2DQdocSrCJUI5P7hiO5Y4titJJy1WMnbgpOZzbp1ce84PF5/0ntYhJYquvKIpoAGroodnaBq35Ikl9lSj45rtidVfTFp759t+aJOok8Lj6E9FeDIsj9Nx4fQ5PMV7DjktAzouF+ydgTZReeaaWUllChATR724cMJ13+k0un6t/beGZ1Qq7SnDNRsrrd8jtj0PrP3mwg17nvtyW37DlYbPMGwTeipwUNRZEaocKJFMuK3zM8AW/g138Z6o9PxoA62IBqCUVsV0Hq4QaVeaIpOfnFCz6CvvOWvJ48PdOv288lJg+Odjefs7Yp9+6xPvnCDZ2OcOpFfdJCE3bNmh47PwlYmC3kSFeGrnJZuBG0Qq3F7rG3fnmFFTv/v+Bd/dUKZm6ccOMwU0YA0zwYf7cd+5610hpzF148Hkln8GRzUuGAjBQ53cEzmX6hl+C+4UeXB/BccvVjAvLt7nC1nxZXyHptefc8v0hkW3nD/7Q9oNYrgn2DA/r3pm7DAT5kR43O1Pf+Idr3Wu/ELG7lhg2zWImmBIrpASS1ni4Pk0QIfP8tGEh3/y3sFqN4D3PH5oAm6ppOf5xLTUWaNfmTP5/FvGxCf+fP78j8JRTJcTkQIasE7AUV2+9fa5y3c89KU9XRveFYxBlZ7zQx2F83/oqwHfAUZTUKp1cC3VUwhOJsCWQJtVfbAE5xmtDFwhLPhugWOEx3xz4JR75ky67N8vmfnRNdXTN93S/lJAA1Z/KVUF192z7muNLft2/u1rncv+0QnmagO+IBY3+RCY/vCf1rcTqygI7u4S39uSz6fFV7CSDeb0/47VTrr5b865ZfuJ1eeR3ZsTbQaPyNFctuuu0N79a97/8sEnvpiWrskhn0+Je7T4sdDqNzy+VOUlvzpCBHcIR3KST4kEjci+2aMXff9AZ8t3P7H4N/Hytk4/vRQU0IBVCiqWsY47V3762r3xDf+0N7HjnFAUTp85Hw4pI9on9FQEKhYC14nHXb2R6HB+MPKCEFwIchoSG113nJSkswUJ5iIrx8dO+fZHL/7p3birmuTgN3ZyxP+tAatKp8Cft//g5Jc2Pf7P+9Ib3+UEHDsMrkqyUKrDgcn158VCJARPJV2lHTyOZtPqSQG4AC7Lohtsgf5brqQBZLls3h1vz/lNpuD/v//nsl9tOo7q9S0VQAENWBUwCANpwgOr/qMp6x747KrdT35YYm2j/WYQ3ukQARmXymTMA+9fNbksDKT/A7uWjqfgvCweLypIOpMRKx/d1+Bv/u/62PTbtH5rYNSshKs1YFXCKPSzDXeu+PJfbj/02Bfi7sG5ZpAnhcFHQARkGGJ4JaEWPZy9kVLptvCFg1A48OGXAhXzbv32ydFF/94QnPOra+Z/NNnbffqzyqOAnuGVNyZvatHPn/rIRXs7N/5Lh9Wy2GUgPURSoEXMdfgeSmalo/L0VW+6WX+gKOCBFtRXCDhPaHfhDiEpVxpl0tKayLh/+fCFtz+mSVX5FNCAVcFj9Ie135mxo2PZ/32tY+N7C37HNp2I2DZ9kCyVpSaPECzUIPOsnRYB+zOQ0HDhdLcFnZab94tj2ogNERcjaRVqozPunDl67tevm7Pk1f7UpK8pDwU0YJWH7n0+9UePfr424Wz9WDy946asLzlVAgGxLEb5pHNkAH4KhCmEfoGCvQCOwQMrbfzqk6jdX9InDe6nIB/oB3/aggtfNYTRKRgpMdOhtmhN420zm6becv0pP97bn/r0NcNLAQ1Yw0vvPp9219olfknmr918cOkXOs19Z5qWXwLgApjTj0dRvELfKj1s3cQY/AvI6UIHiAjz0AVakkkbEjb9r0xuOO9r719w852Df4CuoZQU0DO/lNQcRF3/ueyvLkom2z7Xnt9+jYNICsAqWP+gbYFSnfn+dBlKCtCHq4BD4Q7OW9qSQUYfSdoyPjLtgYkNZ9xy7VwdxmYoqT+QujVgDYRaQ3Dtfz321+Oj0cjfr297/O/yvgCiqEexeOCUDT8qy0VmGpwBdDRgDQHl31wlra10f6DzLUKeSiafECftzzWFT75t3vQLv3XJtE/uePNd+pPhpIAGrOGkdo9n/eK5T9XE44l37Uiu+Vfx5cfbfnioM4OMDYAqhBBPHRZAH3Qr2PURZg93ai6rB/lK9paBAulsyoPVPHfJBWGYONyDA+Im0gTBw02y6bwEpWl3rTX16xGf8cu/WfzT9pI1QFc0IApowBoQuUpz8f8+9+Xrtx9a9rl22XlOIBhCpVwsxbr5hvqqwx8Uv9CvZaIA05llEVvegVU2nJ60ambTvG+9+9xv/6ZMzRnRj9WANYzD/8unP3bWztZtn+kM7nyP6SuYQSMKVa93QHkYm6EfNUAKGAzHg9yJjHbq5pH4LOG6E+pOvzdkjf/qjed+5/kBVqcvHwQFNGANgnj9vRXRFBrWb3/wszv3v/hpp9aJ5QPMCgNlOixS1JXoUvkUMBGHK8+0Z2B+LYiKOScuZiIcHx2d+eOTmy/87qVzPr2z8ntR/S3UgDWEY3jrQ1cEgoHmGw4Utn2xy907O+CP4HwIZrzCKGaDgX7qsLvCEDZEVz1ICkC3hZViIgJGQYWX5plNDCKGMpPvkGB27Pp546/4Vlvbljuh30oP8mH69j4ooAGrD+IM5qv7V37xik2Jp5e0JdsXWmFExMT89pHaap4zVTtXAJ+gdVWDofPw3MuB4zjB6RRvHaWch/MpOC0Hpw4YsjmXTErMnLh8Qt28r9943v+7v/uG4WneCHoKR0KXElJgzY5fnLJsy2Of3JladVPQB+kBfj3cnqmrYua/kRBIr4TkrJKqEBXCCEo+l8Rh9Kw7Kjj37nza/y+fvfp/1lVJB6qmmRqwSjRUT2y7o27jrqUf39ux8h9TdqrODkbETy6KOzIPJ4+QqJ8lImdVVcNFlIOZ10J4H4qNiL0Fhsw+2Bw69b+m1Z/ynatP/0JbVXWoghurAWuQg/Ouu95lXT9z1ru3Hnzu7zvzu8+0fH7xY7c1CvCngtTgIASmivyJCa2Fv0ESu6JvtyAecmNC+BrK/SgErpgvumVm4/nfXt+25vYli59koAhdBkEBDViDIN5vX/3ShRs3rv58h739Sh/iU9mmD9HEC91p3wlQHnn5W6Vg11zWIKhdybfSQ56H0SHyw6jibVAAL+BWFnrKbCIrDYFRf54QPfXb7z/vew9Wck8qvW0asI5jhL7/4IcmZ4z2T7YX9nzcqW0Pm0ijRa4qj/RTumgKFCnATcpFhA2/30Zs+Yw4GcsZFRz/Y58T/u6n3vbb9cXr9Gv/KaABq/+0kj+++PPItrYHP7c7vvVvC77EWCuASAqwGPmYkBSiH310dNEUKFKA4X96Zi5yzLxksKdZeaNjvG/K9yfVz7vlmvlLWovX69djU0AD1rFpxCuM7z78jr/OWZ2fOZg5eIYdxQFZxFQq5G3x2XhFdhYvSwuASxdNgR4UIGjRMkxuCyEDJQ/FfA6qgWwqLbVu/YZFE6/58qWn/ROP+WgVZw+6He2tBqyjUab782e2/Hz+izseWLK9a91V/ihcE8wATNdgpZCNhTPMpQXQh0jhmJQqA/wx6tNfjywKKN0lnbdQqNOEhguvWWU1zgPEcumC1MnYh6c3nPm1G87+5jMjizoD760GrKPQ7EeP3jSpNbf7poy0frxgdNb7AiHslLxYwRR9CLsdPzUJj0JC/fEbKKC2OCjlOWMMOp2CSzcgJuYRf8toi8UnN536i0WzL/z26c0f3PqGW/Wf3RTQq+0NU+GuZd8JtSVf/si+5PpP5yP7p1kmoinkokhawBMXmlxvIJf+cxAUgD5eWRSZqZo5b7OpnETN0Xtq/RNvbYqN/+EN87/ZMYjqT8hb9QrsMay3PPieC/OBQ/9+ILvp/GAoBl4K8dOx+0HjAO4qiCu1mqEHufTbQVLARGBGWhE5txADAptiFrabAqacKw1O46unTX7bkv9e++I9v7nhN4yRrQsooAELRLhn+efntma3/cu2+MtXmn6E/YR61KUTIACK/+hXo4/U6PVSagoQpEx6x+c5v2BRhOXGcHPQb2UkB4OOm7bdiBl94JKT3vvts6d/VOu3RjpgvbjvntG/e+kHnyxkOm5KG4nmUCwgNiJ9FgrY0Oii0H1AGdgFXYPG9lIvWF0fD8FzqtHqjDlmISoE5x8V88iS5NKKg6noxO34xNFzfnLamItuOW/ah3eMZLqNyFX4o1U3+fwJ9/17Uq/8Y8pIzEZASZwB81wSvLjeEP48DftInhu67xVAAdoVHTOLWFx5CXSO3TixdvI3ppqT71y8eMmIDGMz4gDrvlX/vnhzx5NLDuRfu9C04aGuonZjm9P6qQpYnroJb6QAj/cYtoHD1XkkgEXM/xTcIIwpT46pPfOr7zv3a4+98foT/e8RA1gPvvofk9ft+NOS9uyOv3ID4YCL4xKGnUD+B8h+LvQFGrBO9Llelf3jAjXA/echHVJENOH/l8mnxUya0miMubMxMvff/mbxzSPmmM8JD1jfXnrZ6ECi5sMdzq5PJIz4OBtZlLFhMXGyKshGB6abCiuPFEXPZO9b/VtToLwU4HxUiixlR+R7U22yyAIn2Tws2IXgoZPDF33dFxl92w3z/+mEd4PwVml5x2TInn77Y+//wNbUhn92rPS0QBC8NfL8ccCZe84rBCrtqtBNDP1SZRRQZxUhKmZzBQm6kbVN5uRbR3fI7TecwG4QJyRg/eypv13YkTn45f35F6+yEEedm5SDgfVZAckhVrHOpFxlK1M3t08K0Gu+4OSQrRpiYmDWo3ag5qufvOhnT/V5U5V+eUIB1l2rlkzauW/159udLR9ygmbA8OFwMt2JUUwTh5QLXjIBbQGs0tmqm90rBRSnRf8HHshHiKNcMpsZZcz46bimOTe/9+xvb+r1pir98IQArFsf+lSgeWzwU+v2PPWxnN01zYTrp4twnz78M2hZYVwi4JaJaJAsdNLTRVPgRKEA5zgV8/SSh/gA2AogvnyHOPlQy5zGS27etW/jDz//9vu7ToT+VvXKXbJkiTn+LQeu2dn+/JfydscCRv30lJTQSyHvH4IRQUMFrurwaXl6r1d1l0+EOaf7UHIK8EyGF/LIU39gY8aGbfiyko3DHUKCLy+a/o5vXHPyl39V8kcPc4VVu3qfQnaaFzb89l9burZeK/VZv2XATYEgpZXowzyF9OMqkQIMa6NCNaNxBccLHFhvj37ozClX/9vbZn1meSW2uT9tqjrAumvNF0a91rLp7zqM9R/P2+kGnx2GiIfIn4hLZeMwqaPDfvZn3PU1I4ACBC0WAhcOAUnSjYudrUnG8pO+P3H89P9875k376g2MlQNYN219i5/Ibvixg0tD//fjGtM8gX8ACh4AOd4eIFna3D2SrHFdFXQRVNAU6AIWKQED545ZlAKRlLcXF7sXO32SfWnff+kxuk/Pn/256tGv1UVgHXb0k++JZ7Y/PmWwq7LLHioWz5opnLwnANAMQ8cnT6pq1Kv2q0KdNBlpFOgp0hIqzi3c5+J6BBImEI9bsGOSz5jSW1h9Jr5My755ltmf6kqwjRXNGD9ccP3Zm/Y9fgXWrI731uwMlYQbgquEvk0Ko30Ban7PzgKUERklPm8mcb5xLyMt+bfNip88n+8+4IvbhxczUN7d0UC1u3PfDNmWtv+fvuBVz5eCB8crcJuuGHECqJbggaroZ0SuvaRQAEV660QAKeFo2m+pBSScP3J+A802id9d2xo0o/es/jmiszmU1GAdReyKFuzJ77/5b2rPp1y954RxLk/h9Y/clUqoF5FNXckzGvdxxOUAjBPQZ3C2G9wf4B2xUBYCJdhbBKOhArRLTOaFn1tTHPjrxZPrawwNhWDAD9ZduMl+zv2/kOH7L7cDw1hwELUT1j98tROAbAMRmTU3NUJunx0t4abAgZQyjVyyFIOX8UC3IEQBQIaeQQuQRoyNyn5pMiY0IynpzSc8ZV3zvu3R4e7fUd7XtkB69ltd0x5bufvl+zv3PQ+O4SQPwaIBxcFqKtUSA0q0sld4WSNSlp6tI7ozzUFNAX6TwHvxBqYgcNGda4z/CCLjwuveRMeqIVsWvIpK9FcM/vX0+vP/+Y18z5d9mM+ZQOsny3/RGM8ufdTbdk9H0s5naN9EP9IpHweHruIc62LpoCmQPkoQGBgqGYHoZpz2axEnFF7atza25qD477/nsU/Lpt+qyyA9dtVn33P5n3LlhzyxWc6EP2iPuRoQyA9B+nelZMbgEsfUC7fZNVP1hQgBegypEAL0iJYCbhB5CRk1G8cHznr67F9+/6nHGFshhWwfrH00ws68wf+aXfXK+80/SAIMiYz1Iubp1tbsfCgMlnVYW1a8eH6VVNAU6CbAi4SYviUhkZ5cUFUpN4LFsW0I+PCsx8LWPX/+pHzf/L0cBJsWFDhj/u+N3Xr2mWfBlB9JB8uhH0hiH8U/SAzG4UQUJypuz13hSJY8RCz5rKGcyroZ2kKHEkBL84W3UxhAMMahT5enBz0W8GMpFP4POePj4nN/MmMcW+9+cqZH3ntyLuH5q8hBawfPPHxaDK+64NpSX4m69811RcMSDYTgKc64hNTwacKgar4vvsj/aIpoClQQRR44xrleoUUBJExlclITGL7IoUJXwuPabr9o/N/DPvi0JUh027f9cw3JrUlXvpdq7Xlu/nogak8+5fP+OCuAPGPEfUPFw1Wh0mh32gKVCQF3rhGu6UhuBqF/WFJ+gpjWvyv3tq2f/3DL+15YPZQdmFIAGvFtrvOWNf6+0e6fK2X+IIM+cKAYmGxbB/ONGUg/g3JY4eSTrpuTQFNgV4owNA1PqsAXVdE2o32C+9e9a371+69f04vl5bkozdC56ArvefFL576ys4/P5KOtIw1jBoJObbkHOR8hKuCgYifjmtByY48NYhDrUXBQZNbV6ApUFYKuFjHVi4A8RBe8kGRdC4twUTDpmtO/9LlCyZfvbXUjSspq/PEtieCG3Yt/V7K3zbWLzXgqwQcFfRVyq8KSnRYHZgY0sSpcQ1WpR5KXZ+mwPBTwABD4lh5hK7B2s6aEjECkg7FZ/5h7S3/vWrLXbWlblFJASvR+dR7O/OtF/ttQhU90/m7p8Ku5AwdH6CLpoCmQNko0K3PKj4/b0sYvpWHCjsu2tH54nuLH5fqtWSAddddd1nPv/b4B21gqhdXHVCFODw9g4iVqtG6Hk0BTYHKowBWO6QnGtVwgLrOkVf2PfW+O55YAkGxdKVkgBU+becZaX98ngIrgG7Rh0o7gJZusHRNmgKVTAEIhZJ2c9BVFxCKuVZcf2KhP9x6USnbXDLA8hnO3GwmGTJdOpl5bGIpG6rr0hTQFKhsCnDVW+qECkLWwM8ylUtbrlU4t5StLhlg7d+/dzoDwBSO8LEqZVN1XZoCmgKVTgECCvN+kstiRIhCQaKlbHPJACtXSAUYa51+obpoCmgKaAooCpCLKWEpGWD5A5bDaAvaXaGEo6Or0hTQFDiCAiUDrEKBIRdMsIMlq/KIhuo/NAU0BTQFSoYujpnzMT22Sc9QrXTXM0tTYIRSAL6WgAClxwIOWCYUWiUsJQOsErZJV6UpoCmgKdArBTRg9UoW/aGmgKZAJVJAA1Yljopuk6aApkCvFNCA1StZ9IeaApoClUgBDViVOCq6TZoCmgK9UkADVq9k0R9qCmgKVCIFNGBV4qjoNmkKaAr0SgENWL2SRX+oKaApUIkU0IBViaOi26QpoCnQKwU0YPVKFv2hpoCmQCVSQANWJY6KbpOmgKZArxTQgNUrWfSHmgKaApVIAQ1YlTgquk2aApoCvVJAA1avZNEfagpoClQiBTRgVeKo6DZpCmgK9EoBDVi9kkV/eOJTgGGaShqq6cQnWQX0UANWBQyCbsJQUgAJEQzky8OPB08GcufhbyuDz/BTwN8q6GQerwVxkO1F53wayvEYXN0asAZHP313RVOgyEF1QxDAKBRAGO+cX2yjXuxgUHJ2XvKuDyDlR6ZyH8AMHSpp2oSKJlDVNc6uuhbrBmsKDJgCHnD5w5Zsejwnyx9qlaaJ9XL2dTXSOEsknc5KJgNOTJBPT/L4IWoVwW7AD9M3DCEFNIc1hMTVVZebAuSsvExOTsEU22fLvq0psTrrpXODTx68eY8s/RG+P1AnDbX1yAKag1gI4FJsVrnbrp/fGwU0h9UbVfRnJxgFurkl5kPwhUT8jgQCjthuVDatSMu2l5Iy68KwnHVls5ihhMRTydf7n6eOC2KkFJAUivow6Lig9xLowXQZfgpowBp+musnDhsFACzQR+VNB1wT3zvI5uIAd/iKDJ8An5qwLTmA0oY/pmXX6m1y2tvq5KQLagVCIoArJT4LgEVFvGlDWHTVP0txbcPWCf2gHhTQImEPYui3I48CjgNOCWnVI1G/5LpCsuzXXXLv11pk//M+aQzVQTFvSgbfk6lyHB/SVtmwMOZBKM1hlWO2aMAqB9X1MyuGAlS1G7AOFpyC2OCmYv6IpPcF5NGftMgfvndQsnvDUh+zof/KQQxMST6fA3fm410V04eR1BANWCNptHVf30wB4o4L/ytkLEfaT4iJOfHZAC6rRg6tN+T+b++SpXcArNpHSSwQEgu+WvDionSpSxkooAGrDETXj6wgCkCyMy2lT0ejKOYBjMA9uVZW7AC8s5wG2bwsJ7/5yi5pfzUivogLnRiv04hVjlHUgFUOqutnVhQFXKWO4i/1Bq9QytMaKLYY1G+FIQKmg/LMA9vFLoTFgN5LKfErqhcjozEasEbGOOteHhcFPACjYj7gNyXdFZR0pyVwltcM1nHRc/A3acAaPA11DSc4BVzot8BWQVCk7OhIATimnUvLM+gasMpDd/3UaqIAXRqo2YJ4SOAifil3iGrqwwnSVg1YJ8hA6m4MHQUMRnNw4S4KZZeBV4HzKZzfdSkDBTTZy0B0/UhNAU2B46OABqzjo5u+S1NAU6AMFNCAVQai60dqCmgKHB8FNGAdH930XSOOAsWlUvTVGnEEqIgOF0ehIhqjG6EpoCmgKdAXBTRg9UUd/Z2mgKZARVFAA1ZFDYdujKaApkBfFNCA1Rd19HeaApoCFUUBDVgVNRy6MZoCmgJ9UUADVl/U0d9pCmgKVBQFNGBV1HDoxmgKaAr0RQENWH1RR3+nKaApUFEU0IBVUcOhG6MpoCnQFwU0YPVFHf2dpoCmQEVRQANWRQ2HboymgKZAXxQ4YQHLRVhbJhew/QgSiV7y7xO7eP1TmYkZbs5l2k8mShhZ6ag4zif+WL9xJmOuq5XsJXp947cn0t9VDVgqUQCy9vocU+U6cZGuiWvUQH65SC1SMjmWJPb5xC9RiUVCyPjrDSjTC2BF4x5kl6vC5CcEJbafUMS3BjITM9sLcq9LNpeWXKqAvoakkC1INpPBV0hNxRC/uIx3uep63lNNhYCMaJ9ou2FgJ/J6r/rlon/IviVBn09ijUEkRUXSCGR6zikMR0p6RNvj95aFRF6kQfcPk99g6lR08eYosk+r8eMYInM1Woweq+w9dqggoZoQ8ibaEkYW62DAUvPBzbPzuApzXs2Niu5l/xtX5anqgTboQY6pxDGJGbrWFzQkDIha/1BaXnk0J6m4Lf6m/XLGVfUy7ZwayUlSssksQI2LFzeoGaxmdv+pVsYrCTpIvo45iIwuJhKAusiZF8hIPmdJvj0j46NTZfHcj8qY2Dw52LVFntp2u2w8+Lz4/H5MZlucQkZs0Ix59QwSj+BdFYVAhR+OG7hHZp7nNpUrWOhbQEJ1fnnt5bjsXReXmtGWzFhYI8GahCS7EIMdnTUtP2jkA+nSR/SZvVckrUgacF7nVdZp0w0SrvEPmxEAmuAb89dJ115TVv+hRfZsTkntmKic9fYGaZyRQrIMkWwW/QVSm3YOkVKRd5FIXeWlugELk9XwYUJKRnw+v8R8NbLnhZw88vtOad/uStiPXQc7UKa9Uf58R5dseTYnZ15VJ2NPiUoi1SXpQhqpx7n7Vg8ZmJLKNAA8mHsFSaH9gOBEXqLWGDn3lOvl/OkfEL9Rq3BoVHiyzBq9WJ7f9Tt5bOut0tq+R6KxMMCK+zZLtYAV24oWo7kOwNoCWuXBPrkhkbraoHRsdWXp71tl14s5sbJBKVgZefnJfTL/yrEyZYEhmUJckskE5gpzDpJLqZ6FWwDIMOFFAdIDx9rFlusPRsWf9ctLD7XLmj8mxEQKMp9RL/tbC/L7jVtlzoUNcsYVdRKKpSWZyYPLtsVSU7yaxptj/uZSJSuVE6wXYiO2tokVXBtpko4dlvzxvj2y95WC+CyIBTVByRtpLE6fmL68NATC0r45LX+4da9MOTMi868JSePkejnYlkEdOYBANUxir40u44r7IPolMYlTtbJg3CVy/ik3SXN0EnbRLsnlU+A8bTGz4CCdrJw16TqZOe5iWbbhp7Jyy52SNTskEI4AA7CDe0n53jwzKuITjjn77PWbXCEYS8kjbU20tkYKCUvW3N0pax/vFCMVkhgWshlin3yS3h+XJ+7YLhNXxGTB5c3SOA3fBQBoSNdFDq06ioM8PT4kpoZYi8SuPhvqDbNWdq1KyaoHD0rHbhM5E2PiRsF7FbKQLLAROWNk7cMZ2bR8nyzE5nzSRbWSDnRKKkllAIXJapjnRx+digUsYJEqFF/yhbySy20LYg8+dcBeWDa4ihqfOF0RWXrXIdn8bFIcTNogFiKvcgsAIYhMhsM05Aa4EXBjwaBEsS3vWJ6RnWvb5eRLQnLmlVEx/K50dWbVRKesZHGdY0dTIghkEDbFGLaF/foi5dRC69UOS0Uy+AqxsWIzuU4pdJkyvXGhLF7wYZnecB5bCELhXgtsB+hkY1Eafoo/YXzsSI0Rk8vnfFZOnXS1/Hn9j2T93sck50tIgIscehGuYYrU6Ch+sfDp2N2Lf6rPhveX61DspfgHsShvAawM8QewaN2IrH8GQPVAWuIHHAmF68QJ5yRvQTwGmJkY7yDoEHBrZS847nvXb5ZTz2+QeRdNlUzbjorenFzo2whQGEIlxuUxHwMhR8K+gBzaFJVH7mmTA5syEoJ4XxvxK84LkwTXQj2A8XKstEQbwJElgvL0/7bJulWmLLxynIyaCzExnccmBw4VQ8vZZFiYW3jH9eGS6+b4V3ipWMAiC5svFCSfB6dgYZch8ICY/AnX5CRQaJL1TyZk1UNbJH8wggGEGBQCUGHlKazjesNCpWLeY54w8bH4+F0kHIBCWuTl+9tl24qkzLt8lMw4zy+pAriTNCcBhhMmRk9jQCUnKxuewrZS10CwdDhxbYgx6IcBMTAPA0M82SZjAifJJfPeK2eOux6cFACKoMImYkFTLwXNBQp/e+9sKn4gTvC6CbGZ8lcLviHrW5bJExt+JDvalosPylq/HcFCQTVUDoFIJhT4DmiOd6xs2IsL3YuLTckywpLLQLEczUkQeriWDaasuPegtG7MSyAQwFwgR4XNiS0skAj4wX8P6LNY7PysSdY9npStSzfiWhPMp63GVl1aRkBmk1mUZRNzzgSSQCunuOMcRF4LG2msHslb9/vkz/d3yPYVu8TOB2BACqj257l9s3ss2HRYTPTPwccWlO9RtwaqkaQ8/INtMuGMWjnv+jqpHd0lXQmAOwAOsjOmDOY3QRL3cr5XeqlYwKLFj7oKB/qlHEEIk9cXtqTBVyd7n8/J8ge2Ses2nwTtRomFyAXhGg7eMWjOYeViMPyGRH1Nkt3vytM/PSAblhqy6NrxMvrkrHSl2yBWYUfHgudQmmiLUtAPw2iqpJ2qE2gjEVYpxh3sjG0SktFywezPyLmT/lpqoHCF/hy7JMAVk04l+eyjfQWIxlTgEo8KAL5Tmi+UWc0LZeWOe+TJV+9An3eLL8r9NghOi7sFODToTo5Bzj6eOPCvirolAjWVLuTu8oWk1DXWSNe+qCz93QHZsTItgCkJY9Gy9CXS8jsyxqw3GIqi31S+s0fD2SvVzKP+KrpgWDY2FRQXG7QjWYnFsKli7F+8PyGvPpqQbBy9xpibfoj7/Wi/2mzQ74APynpsdi0rC/LbV3bLnLdF5ZRLoN+KwCCVIAeOeaHEGQAlE8VWeKlYwPIWKnYMsLgcoPo66KB22/LQ3Ydkz0tJCYLdj4IzcMysZFyIcxT5sLtYGOa+pqPKK4cFTuUl7IsSCgL0nIi0bYbC8tZdMvNsv8y/okaijZZ0ZZLgxAAI5PBQ73AUzh0uKnJapumXeBz9BxLPG3+5XDLzEzIqfDK+QFvIDtHgABHIhm7jWMWg6R+AxYlMUZlmbxu6vnMmv0dmjjlflm26XZ7f/ZAk3KT4YqBrzoNrJWYOE5NVBB/F5QFpYlHwtqmYPH9vRl54fL9Iyic1wQC4Lkuyint+ncHovf/YZmzMB0wIZSEjUTk5uLFVSGFfi9w0OWkrYktDMCY7nkvLKnBV7a+ZANuY1IQwA50MNp1+LFn0UXUVGz37bYJeZiwDzissL9yXRd37od+qkUkLIzDbZCSRTEPvC66zr4VTIfTqR++Hp6XePPJ+U7DJYz0qPVUYi7GrTpb/+qBsfqZd8gkTHBUsXaAuvI7I++NqG7odyuGYnMeYjCbuUYy341e6qhw4CRecTIiSVaFGtjyTku0v7JPTL2mSOZfViBOIwzUCPPbhRcs33sgqvRJZlkEV3s/6vDpNKNA42XIQhzNJR2bWz5WLZ35IZjYvVhOqAH0eExCznyY4IHV9P1YgOVbTwWJn8wHYBQCYAyIj87o0+cbKtaf+q8yfdIM8se4nsu7A4yA+aBsI4iFeuzwCeO3kAhvc5H5jndhAAMoKsPC8MHQzPnBRm5am5cVHOqRzV05qOQ+CFJj8kgOHDIkVc4B9wU8fhboZdRGupejjKQWKz+/jxiH5qtjg4phTHIPGFZsHVSA1NWGJ7zDloXtaZfdaaDjgSxeDQt3heLGjGDxyQ5y/fZVi7zA9QCNvshh5HyyJ+ImYkmqDJf2ODhmz1JYF1zfI6JlB6epKKt0Zp/PrXH6xJo/Ixdb39eyh/q4sgNVzoR9+T38RxZ6Sl8mBsHACNEbJjqe75LmHd0jnAZ9E/CHxY6ehXkrJC6AgrXse60+u6djFhW6KE105kVJXRIDAbRhWvIeuJOQXN+eX1VBublneIWddUyfTFsENIgfZPwOuJI9JA2UlNUWmSl0OPVsBdWB2DFQxT1GO+jLVb7TAYb+ga8olk9LoTpTzTnq/LJj5l5ho4cMdM5XoQEgfWLHArSkCqRstcKLQX3DVsyaVzVhkXGyOvHfRd+TV1x6VP637gexLbRK4/ygfLgNipAVuDmoPJVr5cC+tlcoJ9TCo9b9NSm8CEc1jGEAHaJkN1FkDo0nrJlNeuP+g7FqbgO9YLcQj8M0KIcmNYOlSTwNl/DF3J9Ucj1Lc3lQG537Nkv73YyBXktpohZq/CkYxbxwCdJNfnPaAPPfzdrjewLKdsyUaDGFO0Y0BoINNBXep8fNEf3569MJpxILhQp/xJP6Nue4YqA+vFnR4YZ8F5b0jv//mPpl5TlDmvT0Gp9ssOHoXAOrAGqmeqDZPDm+GY4V7DLVLqOrL8qssgEWugCBDXUWRQ/DlApL1QSkDJWkULHDbK3l55r5dsu9ViGz+mNSDpaU5Ww1Vj+1dfcI1R/J1D1RflHz9Vt6h7jp8uXeUBRME4BOJ1ktyf1r+9JOD0vxUVOb/Rb2Mm+1K4kAn9FuwOkJUhfoWi8cHEYW7GAGzHw04/DQ+HhMACy8H65aRD4mT6ABfATFt6gfknCkfkfrI6COa6E3EAT6j5/N63Oq97f5AvbD30HEVfHLKhMtkyrhFsnzbb2X5xl9LW3K72NAZmUE/XCXQX0x4B1ZY18jAmkWjQI+Kez7vKO/pqZ4DN2z5oa2B64XPF5JwLYD/wGhZ9r8tsmVZHIwdlctwXcACUXQtNlUNYDeLeZT6j/zYG2OPdkeO95HXDf1fNrhI1R+sOvpU+SDy2r5aWQ8u8uWHWyQH45EPrL4VxnWgL40fRAwPOort638fisDFO93D5l7ejxohLgaC3H1qZcOyTtm6Ni7zLhklp11cJ5lwmyRgUVTnR3KQX7CrWPBtMyCduNioy1nKAliKI8JELCoaHQBRDt7akXpY6naHZOmPOmX7S1AuYkFHatBEEDuLXYcs7rAUPIj6gkAAZnSIie3rC/LwN3bBkhiQhVeMluAY6M06E7jGY+f9VORyYfHw4gCL6cIDO40Fmk7LyY2L5S0nfUwmNM5Vbgb5HMQ/eilD3T70hQsDE5nWRCyUMHSEi6d/UM4YfxHExB/LS3v+LMlsG3Z+6jrIUUbBDfqwidCHbWD9xqEZ5U+Fk0NSA+Uyuigb7y/Iqj/ulGyXXyKRCFoCIFQOruR9+79Ih55Ox/8E2HGkgM76/ZbEAqNk58udsua+3dK+CS4YwRqxY4QSghU2cnI43NQxr3oCz/E/veed3AIAPAQxjHfUH5V83JAVdydk86oOOfu6ehl7akQSGO8CNmMH4qR3/Gtg49zziaV6XxbAYuPJWXEi5jFrg1FwKk5U1t6dg0WkFWfhYNWBzxR37xwGjzuMsu4McCc/XiKZDhXyYKHRRLLRfgBYwI3J5qeysmv1PjnlbQE57cJ6SUgcK5vn9bDv0LLmbYn9eCwnDEAR/zLgqqZETpW3zP+czBx7AT4F8EFPVcBEsuCH5OShaxumTU0ppvF8pTEh1wjxtz44Xd4575ty5pQ18vSG/5JXD6yGuN4F3Rccc7GgfKDN61xrP7qO+guw/NJOUBsLyc7nXFl530F1xCQIN4VgDJ7ZXEcQWV04vVow9XtnH7FY2KZqLtiA62si0Mm58uh9B2QXfMQCOOcK30/MBNAdRhEDY06wKpbSg1WxZswzgCEmolKFWFBPRME5J3cF5aHvtsnkM2g1b5boWJG40QbgxIXYXNnScpayABaXBH2D8rBEBWKYwC0R+eMP90tXSw56qlox4ISt/K6geKZrA0YSH2BhgKjDUfA0JfsXgFi0qhnQr1B5GYYFR7KOrLkLivnVcbnsI9Mk69+LCRbwdkKOfl+FGE1rAqZpzoQ1LhuRK2Z+XM6f9QHQA7oz9Q9f43kWxUVYuDy31eHZ2cgp0dpqQTnLwvmMD9SbKfVnyuSzb5M1+x6QR174jiRDLRCIIcaiO8foNatSoGNQw4//UM9IujUqD/+wTfa+CudVtw7n/kBn+FFRL8anK9BUqgOOOZ5wWKRhbdVRjnDTACFrYdVefVdcXv1zFk7O1NcB9NFTwBTmG9x24GPFOc55UCyegeP1v4ufD/4VTADWFscYywxcMiYnyOwP4KQIxPHXnnfktY175fSLYzLv6gZpzx3AoGBODkVTBtAZLqFhLyYV35QHUCx47C6/H2C1x5Qo9EYOFqmpLCGY5NheuHtT/h4usGKbyP8oZ01MJZsaR8j7ivPB2nHhyBmFNad1syUv/KlFKYkp0vZn96cXM6VGcoy0Tp466Xy5+KSbsPABVmoiUKFMjpITmDDA/cQDD7ZrOAqfWvyht7X6g67RfIs2njXmGrnolL9Sejw0FfB27CnErtAoAVSHI6cFDiMsv/3WNjnwCiy+MKT44PBrqOgCPOmnME09z1u33kLq8an3XZX8plhH14VYXUhefiyPud4u/jy4KuivsphXLJxb1IUy6sQbEYH3D03x1hZHtsjQ8VEepwclRMQSv1Mjqx9skfVPdEmEjtlD1pb+9/DYs63/dfX7SrKXXJamH0IRTtDHW4M40OmTXA5KPc7YCiq9TReCWTAYka5D4BWhlKTligrKYxZYhRQC2HTHsKUZVrlicbDNOcoc1I96ijeV4xUEGRWdLUYyiB6r6X3MVniLjiMOCMaB9I3PdYoVb5QAz/Xhw8M+UsesqbouIBBQ7OJRGwJuC3ShtSE4f8JlRH10hO6vt5lWvv4Sm3BwQkJmk2x7JQUVAFQT5WavQI4yrA6wothyTZycz3E/BWFoYudbGyZ77sZUOhbZ6fIN2dGfrNpGny/ol2wontUOqZbj0e/hNyaAzaXmlaJXDrtp1vPWLpAnR79NJYrhTaUWiC1sJ0YJ4+bF2VKM4DHaq0zruMbyYaNCFfkMBtvAIvCDs2KfIe6faIVARfcAil3U19JvEMgFvSj0nji1AXMOJIkKHmsMiAunUnL7PMrkSFpJOuUepzLMFA4SdxwWCBSYrxYmL/VaisPAp/0Fq+JioQjH4u1RXExUafMV4AdmhmfMWKdiz9UrPvO+5m0DLopjAPioOtVT0XZPwj1GXXBSZaNdGBnQXwsKfVUgClBi6m+/vZu83vLx9FxTeo/uj3prhMfN84I+LurtxiM+88QIHkanx2kOx30KdMzqR53sdh4bkTpoS+cr/DjQV5HbVufn+lUHKulRFAaAksXx57f00aIjMfdiLjYOtGdM4FQ/8n58MKSFz+e4KOU2nsQjMgZOF2Rx/IaihFEc/wG0Qo2j6gbozr7yPYbU2/M4r9BPtQFQH4mirj2+Zc75qBy04W/ogt3i8a5yl+PrySBbTRaZLnE+Klmx2KDmU4QuLli1pr0V1ueTqO8heNDjm0X9jQGyUEEqA7cIHF1pnIRh82dwbgoWJw4kdj5y4kpbohScfT7iKF92LxLcT/GQAiH/H6sAonAJp3AOTn2YAHjHQqdOL4qm+vOYv1z6o4GGXpgU7uQAPrSDk7MVPlP3rPii/Gr138nujhdVXegyngfLI1CV3CvvK8ACN/DiccC2OoxOkQFLkop0b1X0UR22I7SBC1g5PnIMAFQuRGCK0xjBPu59/StPtERXURd/GBfMhI5RnaWEDigP82IqnZVkikeQ6G7BevlgEIaDjrfdJH+90iF6x56yx2SiHHJZjLlGDhWGHDCaeK9MT8d+OitQqi30E2NMIxTeYSbBiRlf5cCpZ9yEROstxL7qUOPrbda4CRsjRglX4rnHUfgctcHSXM42sP1lLuxR1RaHnApAo5BHAD96cmPip9MZyWAgZ55bJ3PfFpHguLzE94i89PuDsmMF2HFYQAIhACQmECMyFLjQqeysksJFC28DFBr+UdB/n81dOylLt/1Ylu28V7pghjbg1Llx5XI5ufYC+FPdJKPrZxGlvckLwDOVRp0VlKlgwXLd9rcQoFgU9uAX6eAi3pmdR8A+RrFw22XsaXC6vbxRXl25XzY8jW0BEyGMA/Mqvj0iOmCJA+Cw1HlcpWyluyP9fD4PwHt2Q4w3QLcAYw1DPucwbxP5DmmaHJUzr62VydPhALrUlDWP4kTGQURqgCWW1zswZvA0x8Ce2s/GleGyqgYsHujlSFhGQNJwN8hC/psw05JF1yGMxuw8IhAgyFkHLB4Nrlxy0yjZdnZOVgC42rbmJWSFseDBG/FwLJdOlYwoFyz9xCwoQYlYnM7Ptzwiy7ffKbtaV8MbHf3FGTQeL8ojcNvKA7+XjQeel8Unv0tOG3sdDg+P6TZoksNSkFeGaTfwR7LfBC06UnriM0RMuAGQk4415+Ty65tkwiJwWNmkXDhrnJy8MC7P3RuXPRtdCQCkgn5wYOSrwWWyrmoqyokULgWUCsgoxhHi21dfkPPeNkFOvghnA+GM2ppok5lvDcrUM0cDtDpk3Z/hcJxLSASnRgqQLFSEkmqZ5H0MTvUCVvcENiBXpzAwgVFJOfea0TL97JAkcxlp68hiP8UxEkzTHELEtiIk8uiTLXn7KWNkEw44v/Bgq6TbfBKwofiuErDyxhF6Bep9wJ7vbXtJVuy+R1ZsvRdiLyRgnMMz0V+DHATEYT+OO/lCJjjOdnlo0/fl6XUPynULPiOzmy5An6tv4SqwJlpBTEp0ITZ9TVLmXhmT069uAieRlM5W2C3BkSSkRcKTgnLlP9TL9uWOrHrggHTtthBlFZZNzvgqGm/lXkOUQrczKUTusDMy69IaWYSgfG6sTbriPNZl4cQA3EXicTEQ4HD+u+twPhD+gvd2yGtrO8WPEDM2zgEWdWl94MGbvqJOjBFBKqVUL2CBhvQBSkIcnHGeIeffMAscRVw64gklLpBtVlsyBps6G/4JzILvWxuur5FZC2bIk7/YLXtWQpcG3yAvJlClDEvf7WA4mQ0tD8mdz34F7uJZOF0CrbAKXShxKR4xQQGTcqgCnZUPSlMHEzZpbJU713xe3jL7fXLx5M/0/ZCh/FaZx71FQK7J0/ccY1FgANU4grOMG4dk1mKc74RDY7DJlvZ4O/STZJsAwuBCfHDCTSexwK2kjD3LkOvPmAwfqEPywh87cBIF8dDhWkFdHmlW6dyWEmHhYJ1x0tI0Ny8XXDtJYpML0tG1R3IJnzQh2qoctOXVJ5IyZ9EkyY3aK61dbVLTHJQrPhOV114KybP34kzGPtglGdMeekOl4+KGz3Eokh2vONMPbxtueaAh1ouJuPGJNCLzToUrBkV4pYgknYs3DeUk6b1uNKt6C+XzcIMhF/7lJOksHMRJc5jaQXQDk5cLAcsW7ynwcfHiBwvZwsTv6uqUdHCfnP/u8Yg/xEXOyVs9hVNmT8sG6XL2qwXHHdAh20/OS+E0rsDkYtgcl0paWONM/FgWRGcnJRt2rqywzrJHfReOJUNFmPDEvvrjk+TiDyEsciQuB1sPiQ1xSYWnQV85zrQKKmU8XlOwvRzKtcq862rkL/9pmtQ2w+ADp2XPAODpxPp+cnm/JUbkkOln9GSfvONTs8U3tl0OHmzHiRC/jAqMlV3LwvKbf++QZ/93v/zmG6/K3sdiMj7QoA6o7+7slPrTLbnqc2PECiLKqDplgf4ApRW3hbppsFLGLsybHAENQB7A8SDk7ZA4xOs5l/nktEtt0BEX07pbRrDiSFQth0Ui53KOjB2H0MHBDsl24swfdFlFSxI711vhZCa3BWMSdtpOMeHRm8dZQIxGb5dX7Gd0D/AhSyy5dRuTjj3oq3jfexZVz3rW19WV9x0tZNDgQOQpyKiTk7IfKc1MuAfwILEyvWNlq8B/RzSdmxX6jDNwBw4egoI6KLFRgkCQOPIERbS3cLnDVe7Yu92hi/x1eQTbO6QsoBFEL4mva5Knfr9D9m9JSTgQldqGoOTiQXn0Z/ul+ZmMnPOOCVIz3ZDODuixgjA3IDJGDvNcHb/y2FoFVOS41J/Y3CwDiwLROuKZLmmaEZILr2mQMadAR5btgld+AeuLJzLKabBQkvERI1w1fygiY9E6LuIHgYjQUMAp89icEp0YaSHL55hYFcTH7lxtYMVB8pxsudCOBVW8mj3EP/SdSmcb4aFJv6oqGGv2tQA3inQSnBYU7srETyADV1CM3NmzT8QhJfbgexw0wSbFcNvkKvAL1lXWV+lkoGhWUI0G1wNjCyPmxgL18uSde+TABkPqojXQyyH0koP4WXDEjdbnZP9WUx7/2S4JM2AfXRIQXhm1KICij1ZxU1eWVhCASVjJvaY7QJFoSs67sUGu+CICcs9rRTTSBKKJ+KHrxSWM7HvsJdZzCEr+voo5LE42UJtiQgE6HMj4zHLLPbWvog7VQkqnyZe7L6REFQW4r3sq8TsHPmy0mNHnzJtFffdbLUygFDlTisAVzFT0Sm66oDjKpA8uAYYWn51S+jrKwEzewH4VgatYgRenC0dKbKwy6DG9TQ1WYbVoAVwgGf3faGmtzMKNBf6DAGluxmQKGb8xl4FBCfrKcFhlaQT2wphA9x50woRVIcw4V4hflQO4gf1G4EXkLoSYB9OxWh8G3IFMHxO8QH8LqiQ6oawHFzbr0pDMvxYsaLRTEm2gqdsAMEziB1otnMowLE8XXE5aVS1gKaIBoKiUxEggdBYUy5iIfS9bqrgQNA1WFRvn+Rw3ig0HSg6loD7WneUcpp7PJvTQSkg/MvacghLe4F2fhecUUXhQeyBOqn3WOYxf0ihC877VbSElM60OVHe3gdzCG0VCb0QpSvIf5wkWIXYozhMsWYABj8jg84oderQV44wuK3DlG2iiIBRg3sNjnsebHAZRhKWb0U3QIQVCZEbp1KvsCpwXAHgCuuorQQxrhdmwgYXSlY3LpHkwYNyAiKMTMpLugvjXBlor3y2eQCFx2ABan4dxwI/yqOoGrKN0qn8fcyAqYAT619geV7HdbDkMDPwxkOWGWETM6qtgl+YZTovu0Vi+Xt+9uvq6TX9XQRTAcNGghO1WjZ+DwAG2j6cc8EOJAUBMcCF4wygM/7MCXHwAZBbj4EOcc+vBLWUhPuYki4QetWOg60Lqr/HzEO230AGHU0wjqEt8uJnK/qLoWEEUqF6leyURcTjbgrmI3ZLn8sghqGPIxwYrNJD6HoaY5j5L1wdObF2qjwL0wfPBQpgGwOSQVMSPHyZj8cCFR6cQUBL535w0gMpoVpyVa0LHBW7KgGN1JgtPeYQbn39VVE56a4MU4Fyc6YpDggQnB989+n15Zy8rkzbH2pcrs9UjuFUEK5bG2ikAoRh2S8TqUkeLyC3ypwhERVDqFgUBbn4oV1OpLBLJIrxxFRelu+xv+1X3i3Tha3UWjrvKmIONpz29Xy5+5xRpmGAgKWqX2ogs6K54pjQe75RREyx5y/snScJpw3SAmgSnOcacBKW6kZDJC2y59p9Hy+yrLFj/WiVzEJsYHIwdPw/iextaJVNoBIuElTwsR2+bWqzYBedNuQIOk/vkyS23SSp0CJmbw55iFSNK3ytS6p+EAAA3fklEQVT6ZjEbD90Aqd/IID58oRCUC6ZeLWdP/mvOfkzmIrgd/XmV8Q3aCc6B+kcD4o0fads74SjkzyBEC3VSCFVAKGLyEHRdBYBUlmOERWHJA6xd6GBsldMQBhrVdxoePKtpJVOBhiEG93MyeaSmj0o7FO5Z+GVFTrflhnmTZd1jKVn50F7pOICEs2MCcuFfTZOZF4QAVq3qCA8FyAysjOe+t0EWvMuQGqSxj8ODOt7BoE44dI9MRcxfQK0eAatY6Kf1Rp1g8btyvmrAKif1B/FsByb6t5z2EZk57Vx5atPPZEvrKnh2xyVAXxo4RvqwsAtGHOmZqNPwyVjfTLno9L+ROePe3j01k+DFXk8fNoimDMOtWDwwz/P0QqItIbtfrEcS0CaJm53IugPRB0BFMLNpTaNxAVYzglAGpyAIYD4AVy0SW7Sti0n73iTcOryFWfmYTb99HPCGT8G+jZY89dOszL2qAd3LSGcSEUjMnTL9sqhMOmuavLx8j8w9e5JIwyHZm9wPj36AuzJIEZ8BSjgojkje0t5JAIRlHbJVkVMlML1RX1WJYMWJpgFrGJZbKR9BHRSlHAa/g5FLJoaRS3Dut2RD6xPy6LYfyM629dBxhDEZcbwCvkoxKGbnT71RLpr5AcWF8SaGs4IHJhTwpWzZ0NZFiLFoCYYLyx9u2y2TnvPLAkQpGAUP8M4EEuzCqM9+2RCNYLAHgXLIaehIKFAjbpcpz/z8kKxfdhA8BaLbwg+NHGjlM5jkkpFBiNnPMeg8WrTpBWS1ecd4mTIPWZvNDjmA84N2OCOnXIZjNJkt4iKvoFmACwLAu2dhTeSaaHg5rDXoeUGVvK+iKVuJFC2PMEGroDoUS8sfLUQIlXNS02KZWHuGvHroCXly0x2SxC57+rh3yDkT3y/NdZNwjbfT0vrNQ2PV5u1OUz3N9PSlqg1EZM9LSblv3QGZc35U5l1ZK8E6nK/rhAUMTsSmLwvv7wjSh4Vk3cOt8vwj8PLuYr7LIOjm+a95OiFvTlU0cKG9LnwNbTqFgkUqtI2Sx37cDp2UKwuumCijT4XeKtUuSQCV38forZwTjENyJGDR986CT9YbOalKXFV9tWmEAhZtDUcOaF9EetN3xU2KLA4WkFdel//fdH0vHwwG6ryAhbBbowv0xcphgVpoS9iol/lj3gmu63Ss7qw015+CJ+exiCFWwG+HzyRXxSihRXGhl6YN0UdF+hRfj+Mx8Nym4tlFerUQcgAIUsO9/EhGtr2QljOuCOJQOwAJB9nNXERaXvLJs/fskUO7DIRYQdZw5JhUT6ZzMd4MBKS8Rc67ScHBjFzPPhfr6/nZm9+7EPG5uRQQBI3hlOiVUmOH5OCmnNy3cZucvCAm899Zp0IoJVKdqID1InghdHYM4Q3GCtME4YjgcVrtYEXqVD1gFQcBw8n+HLNgj8GVuJYTlx55LNy+B1B4NSHPBKei6qL/i/KqO0Y9WCm8zJuq6s4BPPX1S+kEqAowi8UHQUd1vzuCbXPNDO8L9Rs5ANWhVf7B+5jFV30xiF9eJxSX0q9a2ONi6fkeLVKVHPlZ8cqer16PKepxAXLaYvzgUxQJQ1fX7spTv2yXV5ebsuDSqbLhhRbZuuKgRApNCLsC/RZAzlPLezUWyVd87fmco7/nvEE5dlP7qAI1HJ5rrKg/lYEjVAiLq3G5uovn+uArhZSz6CdSzq2Ly2mL62XOW2vgpZ6RZFcBB6YRUgbJLthmA8YWGh3697yjN78Svql6wCoLEdUEYop1eJurCUh9CBWXZWlNGR6KZcC1V+7+klPEpsEjK1H4HHVsT8ljt+2FeR/iX6AZXAX0WpSfB1mKG4RSUhMBylzYHp5uoH3BH4C+MuXI6t8lZd2zWVn49phMX0SXhTTCRXNn4pXMHn4iwJXHKJSZ/GV+/HEsuuItCqS6OavjW7wVMPuPg/zkTIqL+DhuL9ktdNsg3Zmd23W6JITzcUFswTFwXYwq0JOrKslDARB8Xvn7TvEWuiqlWGdWG+Q9DAckj7Rzf/rJHnng2x2S2hmQproIMhXBiRRw1c0floQM5ayEkk3VlKIQpQBDrXXuMhgOmGUHto963BD1P96RUZCgyKqjXtavUlN1f9YbrChdSvfurYCLZxn6UdQura5DrUVLjrqVv7rrOFxVj8/6UXfpL2FrX2+xqh9NMhBmhKClvhsA4RWdcP+RtVJIx2f8NeACkQdjb8Dyx2zV1M0xoYlDQwQjMqjwogOuFDf0XBZUVKPP+FSpH/DH8TSVc83FgfXizWp+oU6+EkyKzzh2az3uSlWEA8/Ua0HLBR80hILGIe/GUI20bbDlXoDWYz/rECPdiNAziOTAZB/dKhAVJIB+VuwU2TRV+Efll54jM2ythRED6bBhWu5W6NDRUc2IXlpQ3M14TsoEwZm5gweeCzlL4umUjJuNkCFQMNNs6+mReqmkx0eMzsAsN1BFI5FnTiacZksyzdPsYJ2xK3vxgbr1BrhPEeiNYMSxRZt9uAfuLgggh0q7syP3eNSb3io2HiDFoIImlKC706961zDrDSIR5KE4Vxlt6AjJTMj8G+x82QoV3GhDFm1gXAD+5zjtan8Zh82p/ObhYVKo7yWsYpChBl7FfJQ24s4XQGsL46gO7aIKHh3i9sHFxJhNhzcQfHq0wowuKhYW68aC5W28H6sYr6yPJtGBF+94CvtFDo4zi+OCtiNaQRhtz5MuR5uwxcfxdrQJs1ZF6nQx8eqacdIAoVBNuJSoeYZ2M+IGo8OqvRGnFtjqvgsBk/0iyHlgSpim/1kBusoc6oNXi0RwIHr7E3l54Ks75ZUHkhK2GiRUi7YD4HgQXB0cV33ynsgjP9VQSNYyFEzzbvpwQhQV5701pPgdBzyHs04mlImZTrC5cBqcf00tgvA34HwUIIir4fBu0VtN3meKoyJnA+fCNIL5L7pylJyKqIopqxOTiSCEw59oHIYWEw7RSHkbAuWVqvgAVFwQTNm+bscz8sTmWyVpwtkTYY9tpoICPQwoSx0TvjdQLhsIPleuQrHDwJnFAHRC5AOYTm/Frt/I8l3/Bf0Q2oUjHQw5olCsr0aCpgYWExOL5nM5Of18uCE0iHTC1cCmDgp9ztMKxoXLjYy+FwNaP8U5xElQfN9Xg/r+jqFaGDDQRLtsvM8j+0482yZnICSzA2ujD6BAIauvUtxoi/M3iRj086+LyJi5LrzV2+BPxowD5Ay5feIQuwJBKMcH1vE3NAFtAt28XIJ5WEdxzjARk+VIxnHPN3bLXgSabYrUQu/F2c1tiKcAmAaMYuXxgfsbGjDkf1IrV5Jy3YfmXdGafm0RFdHcA/qccSAqpjCWA7HAlG1Pg61FvHXGNeqtcLNkOJU8fE2ybhLhMEJywUdjMuN8v7TDaZBsNcNpeKX42ltNajrjybQpei1wEO9n5qIamThrtHQc6pLWFvjy5OhciMWISYRLIWpgUh2uH/XiEWAQsGNaMm4hRJE0dCi4jjDXdyFHgIWAy+hp7CBm0cY9y2XT7uUSjdTJ6Jrpql1MWGnRe5vPpbfysart+6HH/S39nmhSNwCyuzrWyu9e/rI8s/lXksXG4PPhWAyBVjWu7waqw7S4xMb4ZjOI41TnKnM8zfAtu8AdZENYRKAHnDlZn/LCJnD3pPlx9+I4bgRoku5ZRDXowqZWPz4gl394lIxdmIN/G1wGshiTo8zV3p5mwypAp1YXOrY5547C8RhDDuxNSOdBxmWDuIbJo/pKrpWY0zc5e3vEEZ9xfqtYYJBG/PC9CuAZuU6/bFqNSK1b8tI8NiqNY7GemM2ZXB7mpEWxZ7APRitUP7qXPxPuNkemPHvPj1c9ckQDB/FHWQBLARoWAxe5HbBk21MOToyDfe4xCYoDR5+jPM5CkRuqmVyQ8xHL+9RraKZF7B4cT7Bosid6ePtEN1genSLMsoMZgoXIAGZsA+N+I8NMY1xOOi8q9WNq5OCBNmk/0AEPq6gCF8YP8kJ3sF7MJvw/HsBiDkU1lmhzgfniwFFYgYC058G2v/ZH2du1BTvgeKkNjeKyxaIhX0MxCYQqQ+Hz2+Ot8vC6W+Th9V+Vlvgm8SGkNELEQYRBGnNMcEaMOFah/oRFZfvBGBfAoTjwzp6xMCJjp4VB77h0YgHTV0gBNa4t59EQSpVJxNC263Ky8J0xuejGGrEbU5JEJia6hBQ4LuSyjgEspI+iUXd/CljAaYj/zbMMOeXseoysC+A6JJkEQMWOYC7SmneMSknIYxVWwU5gDhWwkCyKpjiOFADt216zka+ySxKtBRk3qVkCtZA5EN2B7DO5wWP16ZiPZgVDCFhY7cNfFAqDw8EUBrKDUHZCNUKBCc6MmbB6ODj7pFJ4dUHXNCor51wxSmaeh10PC6W9vVNCWDYORA1GgOXiBqnxQ0r1XRQA4BLqEHzwDFZmb+wwmSR2HByBGD8/J+Pn1iEVWEFWP9AphS4brDWehfYyaKM4SClWiOJvDDTEVAv38tlqfvT9aHxLzg5VgJOwMPPZWk6SEGJyO9h9X9p7v2zZ/ZQsnP4Xcu6MD0utvwkXQCTBTUoXAtHBQMztEjhSeZOK7YWFjQ1xQUivPxBD8byCk5Rnd90pT234uXTmWiQYCUrIDSlRxgRniPWKtpMg/aE5OTXVCTwHtIL4wdRrHUhs0DgrK9d+rkG2P2vI8of2S/wAEovg7Bz3rjzucanz463qeXgzqEI4gA6HCiMo5FUiBop/2EBMdIip01IpbGQYi5Pf6pMzr0LyhmhSOhAdIZ+FXxNijzmM0wJOqD+AWhQHi01mRAVm4EYOFJz1zMvCdwXl5PMnyOoHu2TryoNiI0uNHUbfSVfos0hblXm5uwJvgzg2vTkk5OLZT6XvxRyiusTFBI5EIQ5i3Wx6JgeH281oQ51MnR+RBMB0sNQt9nMoX8sCWIqY2E1MBh+j3gYFBmlMHOxgUI04QPtUGslAfXE5/bKQzEPeuXw4gRxsWCgYR4ZJyZEF62Y8CBjeujn2YDKTLgu5G2Vh9P7CAsHnWEzJTnADYKNnvcUnM+aNktUPJWTTs9j9MybEFgALvMkz0C85EG0AeVTL4jNm46Vuqu8hZ5NZyDAVwZV3MPU8QTcC/QI1C09su13W7X1Szp72QTlr0rUIxIanAChdLJgs7qVWq+8n8Sl9FxdtzjE0DeIp0SvaMboQiRUpowAmr+55RP604Q7Zm14PrgcKXBwc9vRKAFzQz+unt+H0/RTvW7Wh9Ow7Fo6Ca8yBVNxQh7YnXmDLuNNGySuIPrD2yRQiDcCjO4poE2BlC7iezqKDT5XOtiNkMEU0xkfHKCjVAECE4YIzEMEnnIoziphvtTORMi55SKQDQGWGFIAyjRonXf82pzdThrolPk9RDtOs/RASotY4cuEHbTn13GZZfl9cWjal4JoREQSkQNA9XERaEbhxr8cBee/fXPuRnyhDBxuqpA98B06YY5fr7ncs5JfONkte+FM7ON1mb0Kp+ds9UEdWVzF/lQWwKBJ4abcBQBgMEyZpC+FeTaSRTyexkAqdMu2MoMxDfOnwlByUs4fE6oCsD67E9nVbhsiSE/lKXFgnj7IkEmSjbYTlqJeTzo/Iiru6ZM/apASZgSTMCYyJTJkWu6HBIyOqHYMbbE5IeqX7ozFpy+6WB9f9q7x84G55y4x/kJmNCzHZATD9EMH6RRK0m7n8TIQWMZD+yzTqZA9EvidfuUVebX1UslDMhoJhtIfcFnZotcy4Q3jiXb+ecdSLinQCx4MqHfQpHofRIdQm86+PysyzR8uyB9pl5+ouqTWQsspPrgdGiO7N7ajV9uMLWseYk5CZhrAjQt2AfJUZhGtpLshF76mRcXNhNc60IhoCLM/KWxy8NNNjqeMBpZ1vBlQNFBPbuyyJTHPkis/FZOcqQ1Y8mILoZkkduFoDmwnFOvzHPOtHB49yCTk1ArQPOxCP+XQl02LVJOSsS0epCKReuOiywMFRWtz7x2VpoSIdrF8qZC8AKI/oiekOyPCBpNRMysvlNzTJ+DkuWHHE7cFgchE7FmKvY9Ew0QAXNmNO95tF7r3vR/0UdkIMLqK0wKLVGT8koYmGvOX/BGTPcluefyAhHa9l1Q6dZrRHmKgNsNhKZqFlUd151KqP+QUPM9N73obS14KVZzuyO//3cx+S00a9Xd46+yMyOjb5mHX05wID3IJFwAXwJvJ75KmNd8pzsACm83EJxkISQ9x7btDK/RLiotLdgPZDoU5jkk5HUsgXGJC2NBTFTQm5/ONR2f1CUFbe1ykHtzNXHrgOiGoc++Mv3OzA1YCNd2D5S8HZ1K7Jw3pXI3MW10kOYlp7J8LPENQgAiqAsDAe6tDw8T/1aHeS84TMCxhxAJIJxT03n+OTt5/RLOufbJOXHuoQJxmRILJ30/ZC5TjdIAYMXJjMFtwZ6J6WSHaJEcvKrHPHy1lvGydWQ4t0IVuOdzCaG9MgUPFoHS3h52UALHJU9GthWFco1JFi/My31ssa6ZQZZ0bkFLxPwnLXghTcTJCJdGoKDArcIbrnqgqQj4Hjv6HgsjCNIIIhNAl0XHnExC5AKZqBqX3cQksmnTEKB267ZPsrSZl97hhJ5dqVsYD549CxQQ+No3K/sV+oCh0OWgByBFlb1for2fD0H2TxSTfKOdNuhJiIc2Ng95UPDxYxJzE3gtcLifX63/TdoTiiGCRVt0+yyDyzZue90FP9TFryWyRswzoahrCG1eGAtSI4cIxIb3IlNIoMCi9eb9wR71gnIJErEs+GxRhhfNMIWNd4minXnlIjW55B/x9qk1SbD75z4AwBIHnonug7xwYpWqGO7unhvele1YoC/I5vqA6A0YVGFgdZoWdfGJG5V8TEHl2QTrjKINElJGLOMxhh0Gf6mVGEhJwM2g1+Mzqi0+oP0BNiKI8Q2eDSnZwtmXZYhv1tyrA0ZX4djtx0yq7nIR8j1VYoCA9+xmZHh1WoGCr/ySVjniguGJ+rOYC/XermQB/SlaqPVCqDz9IyfT6iW0A3F5uaBhfZgnye0JtBJ4cK0aLX58ub21oZn5SshXcs/eCt69ue+1Q4zBAe/eu8IjomRgDnKaCmAbnAqnYgsFz3Ihncblo6AiuLEFpHgOSkj9bASomFksOiyqbZV7S9BGD15hZzCeK5WMgECzpbpsDKj6uZJRdP/ZDMG3Ml1hIO/xYgTjOLChcwxAxXcWnk+lgjCIu/6YJquQho58S4/mTb/ufk8bW3y+b4cjHCaQlZNWr3Vn18c0OG/RMq53m4nP8iEJFTbba8DI5j89JOsbJRcJ+cugAt0J25FnGx0gXaADNaYJnuCmRDrwEI2CDppJpMwdEXNGieZcpZ76yXpplws0gmJYf45z0z8Ax7Zw8/0BtvSh5ZRIgNQgEfhfph77q8vHh/XPZsyIE7DIoPQ03gpbRhkgPEeqFqhYw+xBXMF+oaoevE3+k0dHMQ+5un+GThdaOkeW4Gab3IzQLsaNDAv1IWZVDDcNCRNw1R+7TRF938vvk//IdSPaMMHNbrTeciJ9GTUKZzF2epNLDyWuuBleLsAFRdbcyBiM+4u+NVtV0tDk64UhZvMpFOXjwjW2LRiOwvbJFfvvAvsrLxbrls5qdkStMirl14OmMnhn6CEUYh12BvpVWRfnHwU6OIF/BLS3qL/OmFH8q63Y8g8WYW+jIothkbHsYv5SXuDUMpO3FcdTFRbI7cB9qTQPZiHzi/hTf65aQLx8nquw/K/hfBiUBkpp6RCMw9ksdUMCRqsSqCENCwaAu5sDrNUDsqh6B/NYhrTqsY/KAwjgEL4j/1WRVRvM2Jlm/2P5spSHsyJXWTRS79x5hsX45Dzvcfkq49NhyPPT0c1wt82zF24ADhnuBDf3jGsoCs6O2JTqmdbMvZlzXJVMRyT7ldsq8dXCT+WdgAvYP7FdHxfjeibICluBYsRC7GIsoTvOiLw9eh4Vj6TZcjLiyKQt6O5olIvKDY7uHgBItg6YB7CLtBKUAi3JhcCcX0p2T+uMvkolnvk/rgbIgGbBlzLWJoqaAHfaFVx2TdLys2/UKWbr5buoxOCdRRVACwYbJ7DAp5sEpZuMBdOMkp1w9wlRbjjkO3lYaDbnBMXi799AQop9tl9X0d0r4fqdqRut1Haxi6DPIA5AjaACv0js7GTqhDTruiVk6/AgsbC/0g9FT0DfNjcVPpDvJUTOG8L64NdXQJCJyFX0tnV0omnhWVaaeOl7WPd8rqx9vgu1gjIT8AiolOIfb5YM1kf5IwGIQbc3LOZRGZdT445xCtrp2gCeKtwrDF9HDcCsFzV0y/+9uQsgFWb4BEsCqWIgdT/Lucr0VAYpuLYFqcVGwX33N1FAGs1G3t+SwCl0N+H860MSsMw1lKnn3t17J+z7NyzvT3QL/1F/BurvWaoBi0tKx57V758/pfSEtys/ihUA/B8dOADlHpjTBt6dCaRx/ALKqJXOr2H099XnIJ6qdwUo4gTP0TGgg1DLSd+6X5TAvK6bHy8mOd8tKjMNp0+SSMBauYJVyaAbjxGNbERT5Z9PYxEpmQkkNtUDi3+6G8p08SdVIAMMXZD4V+6nh67d1TBC2K50pVAtAKgVNOxJHYNJCXWdeEZeqiabLqgQOyDcAtKRzzgStEHHoqCSVk9qUNcurlTbB8pqWjrUPsONcV/YVAGNDE7dZFqulx/M0sy51lA6zeelsEBn7X831v15brsyLQFl/Zjp7vh6Jdxfo9YOQ05gFwTEAqXCH+BZGnrsvcJw9vuVleeO0Pcsmsv5YJDXPlUHaHPLX2l7KpZZkYEXBmMab3otgEBSwWAHVEVKazfjo1VhLN1R7QY2EBuhRp1eF3vM+CicyaUE5fFZIZiybJqvsOyvaVHeImGc+8IE0zDJl/9WhpPp16nIQc3EdxCTTDcSJImgBrcJZYvzxcTt1ppZXimDs5gDSax1Ay2C6VyE8DgT/SJZfe1CS74HLzwoMdcqjlkEyaHpT5l02R+qkIF506iKM/9OFipFlyYBChFTjTFw3jjUorabz7S/+KAqxio4uDVfxbv3oUKNKFWU8IWkV+yEu7Dj+mqCP7u16Ru5//ZwkgPlICq7oA3YZvFHZYepxipz4s9oFj4cQt1llpk5fcKvVRhBQWBVcKYJTLqfc5Emx0QYHsQ5TNS25slH3nxWTj2kMyprlWpi+AtdnCooUjsAHLH081kIMsJp8tGhcqEaxUh7t/FR2dlaQPYPUyP6Mf0LC3tLZJ3aSwXPqpBkklAGK10NVlkZgCB619cLlRztAAZII99XQePQnWnv6153Oq5X1FAla1EK+87XydoXfgH0+/rTwiTPoRBYI5+ZIO/I0C8MSnuTwLfQ5Wa3HClrfdpXs6LWR0J8nhFEIrnD2j0/wyf2YMRlEc30rvwUJFfHdyT+AgK0nFMFgKEMwpJtOgkMklsTHhEzjKpdsTUNbDCRsATSudV16fJ4N9biXcrwGrEkZhkG2gVQmaLUxj6iqoVGUUAOg7sAvbEB15JtOBmFTkVgb5uIq5XaVth9hIRXsBqa3yaVAB8p4B8ZbOv0rmA0nIPVYaB3n8RKSuUdl9lajIs7AqThz6SK94CMvQZ4Emysfh+J9SqXdqwKrUkel3u7BayUVRdMLZPAb9o8gojKiAyZzl3zikTfN3UYTsd9UVfyGOmVAhBYsf3QA8Ky45THAY+MyEQyZ9korlROCyPMMIBVq6uqDr4Kw4vkW3F0boIYDT2eFELBqwqn5UIQ7QCUkVKs6LHSKnQYjCr8OfFb87QV6hiObChSOD6jf7y1juSghCn+ml37OcCFwWx9frM7gsdo/cI1481xvvmxNLCOw5ggRiXTQFNAU0BaqEAhqwqmSgdDM1BTQFNIel54CmgKZAFVFAc1hVNFi6qZoCI50CGrBG+gzQ/dcUqCIKaMCqosHSTdUUGOkU0IA10meA7r+mQBVRQANWFQ2WbqqmwEingAaskT4DdP81BaqIAhqwqmiwdFM1BUY6BTRgjfQZoPuvKVBFFNCAVUWDpZuqKTDSKaABa6TPAN1/TYEqooAGrCoaLN1UTYGRTgENWCN9Buj+awpUEQU0YFXRYOmmagqMdApowBrpM0D3X1OgiiigAauKBks3VVNgpFNAA9ZInwG6/5oCVUQBDVhVNFi6qZoCI50CGrBG+gzQ/dcUqCIKaMCqosHSTdUUGOkU0IA10meA7r+mQBVRQANWFQ2WbqqmwEingAaskT4DdP81BaqIAhqwqmiwdFM1BaqCAt2owpzUjlPMSl6almvAKg0ddS2aApoCw0ABDVjDQGT9CE0BTYHSUEADVmnoqGvRFNAUGAYKlAywIKlaIo64Lqs0hqHp+hGaApoClUUBAwiQR5MABcAApcMqGcJ4PS1ZdVE71i4mYMsorZKtsgZEt0ZTQFOgLwq4Ltc/YcUVg7jlGG5f1w/0u5IBlmFHV5ni60bYgTZDX68poClQ/RQASAGlHAdcFpmXrCsRq2l3KftVMsCyrYa1diHabmhpsJTjo+vSFKgqCpgQBy2rIAXXFVuCruSd1aXsQMkA66XfdW2uD49dkctBKgRqwQMD7KCJ9+QIS8oVlrL/ui5NAU2BElLAKThY89BkAQdG105aNWvyxWtKWL0SNktS35IlS5yTJ73t6/lMNk/Fm2kAC10bsFVQHSjJQ3QlmgKaAhVGAU9nTcnKMApi2WBVYHgz0nmZXrPg63PHvC1RygaXjMNio5b/suWpSZGFt6fSabCE6IEvIaYbFLdgl7LNui5NAU2BiqEAdUDkqgBUBUPyhk/imU6ZEj3pN42NsT+Uupkl1zit2HbXmKc2//ShNmfzPMsXFdfJiaVERJoMdNEU0BQ4kShA9Y/j5uHOJOK3gtKVikvMbXxq3sQrr7v69C+0lbqvJeWw2LiFU2/YNzW28Fqza/TSTCYD0yb1WSV/TKnpoOvTFNAUOA4KEKhYbPAjBKsaGfXclNhZ7x4KsOJzhgRJrj97yWujwjPfMSt83i1uXLKFXFZMWA7yeBo0WkJpEf4ZSrelZN9uRzM2SBdNAU2ByqQAuakC/KyoVKdRjXpqCIHqXyaTz08MnvKzYKDx3e+/8Ja9Q9WDkouEb2zog/+/vSsBrKo60+dub0tIQlaysTSA7Iug7Jag2NpK0aEw3VS2gkhxQREQmImtoFiVTRy1RVpcoLHOjOMMAy4gaikoAoOAMCEJSwKEhIRsb7vbfP97PCZK1CS8l7z3cg6ae3Nz77nnfOfe757zr0efuulI2d8WV9QW/9Aehw6qCoTxsNdQ/AZm5MxtGvg9JNT59dbw3zkCHIGWIkCW6z5dGggLCyem0gzEpcHWKvHj7JRxT/xqaN67La27qdeFnLCoIS/tm6V4q8tnVDlLH6qX6nraHDioS2BnK3ZIq6CCtYmxWqU5uA8vHAGOQHMRoNUfvaa6rjPDjWWgIhUnsG7PxCQl/2H20JdhyBD60qoMserf7kgQk+TFFXVF00HRyaKswZOHWBvWsb6+UnO4zVboh53fgSPQPAQgwIEAyWRetZ7JbpsrM2bgCxlZg1dNuG5+UC3Zv6tVrUpYgcbkH5o9orCi+GGX8/wdusUtSXI8sCDplgq6UpgpQvNg6BCwtUnzAs3kW45AO0NAgFyKAhj4Fn9+t2Ba+IgiU6Ht1+o11iXuhjck3fbs7JtfDqpBaFOBblNG2Hromds+L9n2WI1SONquOOB+5ABYHh9gogjiCqggmtobfh5HgCPQYgQkmihggWNo0OsrFqz/VCz/NNhX6SyGpXzeI/7WvMnDHvvPFt8gCBe2KWFR+7cWrI1T6yvvPli6bVGtVJ1pc9iY1UWzLPgjwYHSL5AnjSK0i5zAgjDkvAqOQOMICNCAGRK8U2CtTro/5sZ6xx1TnCh3ejExKXPDPcPWX2z8ytY72uaEFejq37/c2PVI+Ydzi2sOzNXtbrtVsjMBgnmSaZFUi6JWcE1iAC2+5QgEFwGfjAqSZENUmapihuVVqq5LuH5LfZW+fM6ETa0qp/q2noUNYQUamb/ngdHFNUcWVGplEyTJFOxWuPZgZqVDpuUvYdfkQNP5liMQxgjQe+P79GMbeIcCCi5Ii3FIxTumw2s5w9J3VydHz6VThi//JNw6FGh52LVrzQeT71BNddEF/fiNNgsibalWvyYRmkVaZ8NREf8HBiDcms/bwxEILwQMRE4RoeUT8c5QJhsBDspkwG3AsohWLx6Xm6Uo2Ue8deKy6/v22PqjHus84dUDf2vClbB8rSP5VtGpnQ+erT89S7XWZtqlWERfRZBACAJFGZa24Csu1grHx4q3KdwQoEgKmirCdsrGNGjkTWjkJWgAVY+bifVKeZfUARuH9Zj07MBO/3Ah3NresD1hTViBhm7+e15Xt1i8sLDiwAwoDxVREZgX0ywZLj0R0YFAR/iWI9BGCJC9owGGIqpSLCrzIvyLoIrurh16/zVZ6r/szhF5J9uoac26bUS9769+/ODYc1UHl9bI5282LHYmwz5EwNfC7xIZWI83q//8ZI5AlCNArziWgobMdNkDwsL7UiuxBDHtw6ykoYt+PuLJvZEEQEQRFgGbl8fE7NyHflrhPrCshlX0kxSKI68z2bcgl3zmECIkiCTnIncf/5KRk1kkPZS8rc1HIGD2Q2ZAcBzBOwGZle+x9+IXB2ZXXsiu3MympRZ0T7nhmayY1M2jey2sbf6d2vaKiCOsAFwnLm7Pfvvg2vsr60/PNq2sgyLaIdeCpTyIy9DJPBdfEthyCb5IEIGr+JYjEH0I+EmKnnmS6cLVDR9smFIxXZCRBwIWVWYt7Kkclzpae63Pju/9/JQb885HKgoRS1gBwHee+Jd+R0vfW1paXzBFsGmCLMLwTbeAqPCFgaCRG5sGkOLbaEeAiIuKQBlr8J+uyMz0mCxJ6rxlSLdbVnw/Z94XkY5BxBNWYAA2fPLgbefKDz7qNivHsjiaFktM1OBeICIaIv7xwhGIZgRMitOEz7Qsi1BI6cyLlaBDi92TEdNt1axxr+VHS9/988go6M2M0av/O85q/+GwnH+8x6onFXg9Lljtui9TFabJl2mLpsu8cAQiGwF8gMFPZJ1Oj7OJWOqUbZlMfSifgqRaTw/LGP9QohQ3NprIisYsKt/ed/evzDhZfXjOGffRez1iXbIDjtU+h058fXRoFYmlTQMmEdjxRU/0hUAlOHjhCIQ/AmT8aeLhpdx/tE8fYa+GKZVbqUi1996Y3bHfqklDl4Qs6mdbIhSVhBUAdM+5/D6ffvnvi856PrtLtnRgFg1fIcXNVKQf83M1DTaF04iaiWag63wbpQjQjApBFSBMp9kVnl/Ty9xer9kldki+4kx8atatLxyM0q77uhXVhBUYuNc+vv/OIuenjztZdX9FhjYRwklk1IbpA2ZbeAI4YQWQ4ttIQIBkspICJ2XYUymehM+6pA1eOXXUmrcioe3X2sZ2QVgE0kvvzYqvYxXTPObFf7qklXd02KFNhByAAumTKQQvHIFIQIBmVV5Vg2+t43y/TiPW19UKz0/LXX0pEtoejDa2uzf1neN5vQpPH5xX7j45zbB67Da7A+t/uCsgpAYUi8wD8oIBPabaXLMYjAeM19E8BPwGoHBOJjkVCdbxMGI9QDJ1aP6g8XYKzgxr11c7dR78zJS+eSeaV3vkn93uCCswZGu2TxvpZKceqdMr7oSPD7PAZkXVkA1EoTjzfJkYwIlvWxcBBFLCrB8KoStCdQjXdfhyaE6WZuu6K9E65LG7Ri7f3bqtCp+7tVvCCgzBlv0Lf1ZcumfJRfN8P0tHZAJxx/m1iAhk5hfMB87kW45A6BEgg2dyUDYFDd9Rg7mRnNRmpB7NtA55sruUtiU3Nw+hQNtvafeERUP/2tZ5cWoH95ySmkMPeuXqThLiWZs+TSL9NbA0JKgC+3ScF45AMBHwP18CnJRNq4epLgOhwjue7ZE+ZE1K8siXxudMqQ7m3SK1Lk5YDUZu+7F13Y6XfbzwfG3BVMGiWWXECBRNpCDzBTvDUvEyidHXjwKg8RlYA/D47nci4DPyxDeP5FSGT0ZKGZTJ/JPcyPBMYeuFg7LqFFxp8T3+tWfc6McnDH604DsrbkcncMJqZLDXbb1nlFMpfbJaLxlD2UNEOJGSm5aEhK8SYgppIDFMwUgUygtHoMkIkIaPtNIqZFICjKkoS42uQ2qFrQB3GsOjskQl+/0bu0564qYes3Y1ueJ2dCJ/575hsBHt1Fp54fTkwpr9Czxi2QBFpizV0NIgCISAzCL+wpeI3wAfP9wYAtD6mXDIl5DnnYhKIg0gZuoqwhMrrENRZsqQFYY0cNPsobNbJYtyY00M92OcsL5jhF75aF5KvfPkvAp2foYq1mfIdgkaG5kpMH/gkSC+Azz+568gYGIpKMIJ0IS9gsIszAkPZd00avsnjl0vMmn1L4avKfvKBfyXqxDghHUVJI0f2HpkbZ+CMx8uOucp+JlsY4qMwIF+Uy18NvnisHHQ+NHLzwbNxEnzB8LCDEv3grQ8dhZvSfyv76UPfWLSwOV7OFRNQ4ATVtNwCpwl/HHH3HFOo+SfS1wFYySHwBQsDwUVMi0faalk0sU0aHp8O1dSkwUu59toR8Bv+EnOM/iHZ4FCU1GCUspAoEkwWPAYLIl1/jTGGr/CaVPfnT/yTVe0YxLM/nHCagGaOy+sjz13qvCXhWWfLPAo9TmYb/nib1GQU3xAURCqGfGzBUSE4KV9IoBsA0yE94RmNSD5RKYar5PZvUJZZsKNv++eNWp9brdp7vaJzLX1mhPWNeD31r7H0kuqTsyu8B6fo1qdqVYrlokqZlymDbUi3AdfKl4DupF9qc+pHl3w4DlQvLLXoXXcGC9d99Sc2148Gdk9a9vWc8IKAv4bdsy5zm24Eab5wCQhxmOXJTvWhbQe8E23cAeSYXCogwB1GFfhD6ZHo0zLQS8yKFM0kEQjbdvArAm/+0H/h9utO00wB42/RUFE8/W9CyaXXjr42CW1ZJDsQOwtyk6NaJAC1Ngq+YiBt8hMkJfIRyAgqyJ6ohElORU5KOsQYqp1JrOYMfviLZ1XzR+/ZTP+TF8sXoKAAH97ggBiwyp2HsmPPVv30a9PVO5Z4Jbq0y3k5oPAgRKE8wYymCCdJSethoBF6j45yIOgyHpdhJkL5Q5w6y58lJSLOfEj1pua+syM0a9EXBqtcB8OTlghGqG39j/c5WR50fwy18npYpwz1oZcZAi3BgEsNEYUQJCsm/G0c1uuEA1ASKvFok9QMX6xuAs8H7w1mEOZapIy4E9xYszTM3M3tLuwLyGFu0HlnLAagBGK3bf+Z8nwkxcOP1LmLphkdchMgpsPFSKqAHGF4r68zlAiQB8bG1ONCiZDVpkgdH2/R/rwlbcPyHs/lHfldXNJcKs9A9sOPztpb8lbS11G1SCLTcF3mfInkk8ZyUBgBkFpUHDUX7jIo9UGptEb0Xf86x8U//j4HZd15nF5mENI/TJZyXha11I23/+jdZ5Gq+IHg4oAn2EFFc5vr2z9zsmxFtP+UJHz0DzB5kqxIls1PMrg6qMigKCFaSpcyOBczUvbIuBbqpNNHQ0FvSHw+6MlvIqICgaCPMqao6Jv2uhXsuIHPTuq+90X2ra17evunLDaYLw37Xq0d1n9gYU1etlkGBY6fIJ5COTxTiDOPJkc8mFpg2G5ckuB3GegKBEkaHkhqzKg4zWx9BO8khkvxv2lY0L3p2eO3HDgygV8p9UQ4G9Gq0F99Y22Fa0ds7/wzZUerXqEKSNGkghtou80viS8Gq1WPAINIIkaNfqIGMhOA+cZh5z2Wb+Mm1beOfC37SI7TSui3axbccJqFlzBP3njzjybx1swvUw7Nr9Oqs+xW2xQjUN7GPxb8RqbhABFVJCZV6iHk7LJkvWco3YjabWcbnl99tCXnU2qgp8UMgQ4YYUM2uZVvPajaSnJluQZx6o+eFi3eJLppZEpXC79QwpyCkmCuJTY8iFrHrJfPZuC6BmQSYlIkXQ56CeWfjiGhLqY4gJzpHs365nkiav/XsKNq3vmjHx5dMbdp79aC/+trRDgT39bIf8N983f/VT/wovvPu6UL0xUFVNUZAskWgpkKshFh4BvNPcyKP8TLy1CgAw9/aTv1wJKEj4GkE+ZcKfSWB0zXJqZZB24ZXjvm9eOzvo1D/vSIpRDdxEnrNBhe001r97+y9t1sWZRpXZilGBFeDcRFvOQrZB7okk+Pry0CAEfhhAUkh0cKWQhXoesCjtuncWJcYcyk8b/7lc35P21RZXzi0KOACeskEPc8hvs3JknnzIL7ztVc2K221LdR3HAUkunSBBkJfT/P327/EcTEaDYVIhOBVcpDcs/HZYkhkcqTYvJfDFDvH71lNy8uiZWxE9rAwQ4YbUB6M295dtfLE+r9BYv+7Jkzz2yzYilaKd4zRDGhpyroXmHDMYvm8FSUfRb0gcorbn3iqbz/aQOs1xaBsJIlyZSApaA5Kdswp5Kc0lGTlbv19OkfosnDFpaGk19j9a+cMKKoJHde3rz0E+Ob1pWoZ/5iSkjIoBiZSLCbukQxIuwF/JFg1DszEvZffzxmyOod8FvKsmrdKyhJZXUFTDQBUAqTakQS72DkbEtM7b7U3eP+8Ou4N+Z1xgqBDhhhQrZENa7afcDk8/XfrG8yjjfQ7DjZRTh6kNhbCjCKRyrRdmLWYTfoiuEzQj/qjGTEkDmuoXkVDoTXCLryJKOpnTotnLqmFc2hX8HeAu/jgAnrK8jEiG/5+9fnHKh8vTMMrV4nte8mG53IB8LzCBEBncfzLB4IQSgXwVp1Rk1TPbGXegU03d1dkr2KxP7r+DZaSL0AeGEFaEDF2j23pKXex4+tfuBk2VHpgkJdQh1SnIthGm+okmkIW5/WkVaDmqGxlSvqWfbBmxwu9iKR378xqkAbnwbmQhwworMcbuq1fn7lowuKtm7rFIsuVWOpax3IC64ljBBgdMulomQNPusuC7H4rqqggg8IFJKGgqkh+UwgzDdF+0CTGXITuauFlkMy96e02kAzBR+/7cI7B5vciMIcMJqBJQIPiRsPbZq0oFTby+6xMqHWKwxICkXs3ixXBQkGHKTNtEfNDAaYnGZmEmKCi1/4aBsxCAatRcRLzwsRks9NiR7zOrPjh3fmDflTcoGwkuUIMAJK0oGsmE3th15LrGoavcjp6sK72NWM94CNx8ROfGMKIt0SqYcNLkityUNmj+rZqvpFNfr+VRH/+cnDV1yriEmfD86EOCEFR3j2GgvNnw8faAhOBcX1305CTIt2Yb8iWQsSb50kky+dBEs2/KtAGnW6GRqrenpHDMwv0/amHVj+839rFEw+MGoQIATVlQM47d34vUD908svLB/mUu9NES0kwmEyKxwqEaeT8y6YA5BBpVkgYoFZNgUapfPIBYEq8HODMHCyIVSh5OyP6EH8hDBncZmpH6UnTH42anXP/cfYdN23pCQIcAJK2TQhlfFm7bfFeOyCz8vV4vy6vSKTJvkgDwL9kl4AsjyW4aQHuJqn9tKOLScTD2h4wOZIpAestKIIFQTbTQhs/J4qpnDzDrRP/umNWp1xw1TRs7n6d7DYdBaoQ2csFoB5HC6xc6CtVmHzx6cec61/xFR1iCVJxMI6A8Nn1c1SCtcCizUZSvzaMjniBRalPBdwP+sJq42M6bnul45o9bldpt7Plxay9vROgiEz/PZOv3ld7mMwNqtMwbXesp/47Wcmq5ZXXDl6QhiQCjgMLLZMg2E1kHbTN3NTHesaVOTN3eMTX/uvnF//pwPZPtEgBNW+xz3K73+y75H7yi4cHBhnVEyXLGTo7DVF29L9Jk/XDkt5DtElL4AhXQnaDMZfCUNxKnyuuphu596qGdK7tJfjPjtOyFvCL9BWCPACSush6d1Grdx51SbVexwzwn3/gfrWXkvxYplok6JXxHYDnIkCUtGn28izAiCoVlsaANG+yLCKfgCqcJJWZFhfgHBusvrYTY16VSvlKEvZGcM+OPI7JmVrYMGv0s4I8AJK5xHp5Xbtu1IfmLxxfylpZeKZmpWZwerFUEDyXkY4i0FAQQFweMnriC1y5fjD2FfSAOowKBKVQTmVJ3w+1PcabYur3VNz105se98nkU5SHhHQzWcsKJhFIPchxd3zB9YbxbkXXSdmIiggbApQGx5A6FsSIsYBNstIioqlEiWCs2wVDhse7yamaZ02RVjpi++b/yfeHhiHzr8R0MEOGE1RIPvX0EgP3+yJOd0n3jszOePOh1nh1EaMlnHLAu2UX7O+iajUzre1MeKloI6HJRVFiukHc6MHZnXxau8nZubB3UgLxyBqxFo6pN19ZX8SLtA4I19DyeX1xVOr6wpn6vFlHe2MQekWsjXJ9ogGwevgL0o4YxIeRURgwvTMfAVtI0+Pgs8XrRFhFT4M5IbDWVRJrm6huw0NmdcBRMcL9zRf8HqAV1ur2oXoPJOthiBwBPV4gr4he0DgR0Fz/c9WLrj/ou1hXebVtUmy0hDhhkX6Aehh8mok2I1w+UHpKRfnh8RMflXf/grERjsqUyTRPmgL7fHSJB7vj4odfwTtwz6zf+2DxR5L68VAU5Y14pgO7v+xQ9nj9fNs0vO1hV9n1E2H4SQlwUL05HTT5Qws4LZvGlagQq2NI1CodkWspUxJFFmXthUWfT4Hen2PivuHbfhA98J/AdHoIkIhJHzWBNbzE9rUwTuHfvSe+W7howblDVpimTYCzUV7j1gIgFGpwZ8FBmzgajIOp1CNWOtCBKTZKR7r6tjktNysn/ynVOF+qzbOFm16TBG7M35DCtih67tG/7n3Q9lltYX3Ovx1v5UsNZ2dqt1DhOpaShDDdyUmawgsI1o8UhGzJkYlvZqopC+cfoPXjjT9i3nLYhUBDhhRerIhVG739mX5/Doch+vVHWLm7mSFdnmhPWWUn2xrCje0emo6k74fFpunjuMmsybEqEI/B8IZNL2X5LOsgAAAABJRU5ErkJggg==;" parent="28" vertex="1">
          <mxGeometry x="68" y="59" width="50" height="50" as="geometry" />
        </mxCell>
        <mxCell id="112" value="" style="swimlane;shadow=1;labelBackgroundColor=#007FFF;strokeColor=#9673a6;fillColor=#e1d5e7;fontColor=#000000;align=right;collapsible=0;startSize=0;strokeWidth=3;swimlaneFillColor=#ffffff;" parent="132" vertex="1">
          <mxGeometry x="215" y="47" width="181" height="126" as="geometry" />
        </mxCell>
        <mxCell id="113" value="&lt;font style=&quot;font-size: 18px&quot;&gt;Authorization&lt;br&gt;Service&lt;/font&gt;" style="text;html=1;align=center;verticalAlign=middle;fontColor=#4277BB;shadow=0;dashed=0;strokeColor=none;fillColor=none;labelBackgroundColor=none;fontStyle=1;fontSize=14;spacingLeft=5;" parent="112" vertex="1">
          <mxGeometry x="-6" y="7" width="161" height="33" as="geometry" />
        </mxCell>
        <mxCell id="115" value="OAuth2.0 Server" style="shape=image;imageAspect=0;aspect=fixed;verticalLabelPosition=bottom;verticalAlign=top;image=data:image/png,iVBORw0KGgoAAAANSUhEUgAAASwAAAEsCAYAAAB5fY51AAAEDWlDQ1BJQ0MgUHJvZmlsZQAAOI2NVV1oHFUUPrtzZyMkzlNsNIV0qD8NJQ2TVjShtLp/3d02bpZJNtoi6GT27s6Yyc44M7v9oU9FUHwx6psUxL+3gCAo9Q/bPrQvlQol2tQgKD60+INQ6Ium65k7M5lpurHeZe58853vnnvuuWfvBei5qliWkRQBFpquLRcy4nOHj4g9K5CEh6AXBqFXUR0rXalMAjZPC3e1W99Dwntf2dXd/p+tt0YdFSBxH2Kz5qgLiI8B8KdVy3YBevqRHz/qWh72Yui3MUDEL3q44WPXw3M+fo1pZuQs4tOIBVVTaoiXEI/MxfhGDPsxsNZfoE1q66ro5aJim3XdoLFw72H+n23BaIXzbcOnz5mfPoTvYVz7KzUl5+FRxEuqkp9G/Ajia219thzg25abkRE/BpDc3pqvphHvRFys2weqvp+krbWKIX7nhDbzLOItiM8358pTwdirqpPFnMF2xLc1WvLyOwTAibpbmvHHcvttU57y5+XqNZrLe3lE/Pq8eUj2fXKfOe3pfOjzhJYtB/yll5SDFcSDiH+hRkH25+L+sdxKEAMZahrlSX8ukqMOWy/jXW2m6M9LDBc31B9LFuv6gVKg/0Szi3KAr1kGq1GMjU/aLbnq6/lRxc4XfJ98hTargX++DbMJBSiYMIe9Ck1YAxFkKEAG3xbYaKmDDgYyFK0UGYpfoWYXG+fAPPI6tJnNwb7ClP7IyF+D+bjOtCpkhz6CFrIa/I6sFtNl8auFXGMTP34sNwI/JhkgEtmDz14ySfaRcTIBInmKPE32kxyyE2Tv+thKbEVePDfW/byMM1Kmm0XdObS7oGD/MypMXFPXrCwOtoYjyyn7BV29/MZfsVzpLDdRtuIZnbpXzvlf+ev8MvYr/Gqk4H/kV/G3csdazLuyTMPsbFhzd1UabQbjFvDRmcWJxR3zcfHkVw9GfpbJmeev9F08WW8uDkaslwX6avlWGU6NRKz0g/SHtCy9J30o/ca9zX3Kfc19zn3BXQKRO8ud477hLnAfc1/G9mrzGlrfexZ5GLdn6ZZrrEohI2wVHhZywjbhUWEy8icMCGNCUdiBlq3r+xafL549HQ5jH+an+1y+LlYBifuxAvRN/lVVVOlwlCkdVm9NOL5BE4wkQ2SMlDZU97hX86EilU/lUmkQUztTE6mx1EEPh7OmdqBtAvv8HdWpbrJS6tJj3n0CWdM6busNzRV3S9KTYhqvNiqWmuroiKgYhshMjmhTh9ptWhsF7970j/SbMrsPE1suR5z7DMC+P/Hs+y7ijrQAlhyAgccjbhjPygfeBTjzhNqy28EdkUh8C+DU9+z2v/oyeH791OncxHOs5y2AtTc7nb/f73TWPkD/qwBnjX8BoJ98VVBg/m8AAEAASURBVHgB7H0JgFxVlfZ5S+1VvSedfU8IBAiBLOwQEWQXZWQcl8FxwXEbdZz5HfUfJzM6roM/os6oyKCOioMIAgIKsggkkJU1ZN/J0kknvdW+vPd/331doQOdTne6uqsqfW/SXdVV791377n3fvds9xxDdNEUGCQF7l7xb3M6U9vPM8z8/LTVUd/atn+i3wilm+ombq6JNG8JFqwnrznz688O8jH6dk0BMTQNNAWOlwIPrfmPUzZ2PvHVQ+ndl7i+dE0654ph+MXvc0RcV3IZV8QxxLYCmTqr+ZFp9fO+ef2Cry893ufp+zQFNGDpOTBgCjy39bbm9a0vfXzzvmf+rhDI11m2TyyT1RTENExxAVKALDFMB7iVE8fF305BfLlQOmaPvy2Unfi1T1z1n/sG/GB9w4ingAasET8F+k+AJ7bdEdzatvoDu3ev/vu0fWCmFQyLJTYACuDEH9PFe/wAvAwAl1NwxTQxxfidVQCcCbguRywnvGtczZxbmhomff+GOUuy/W+BvnKkU0AD1kifAf3s//8s/9hVbYmdX2iJ7zwvUJMD5+SXvBOATqGAH4h+/SyGQe4rIy7ExXpz2rL68LSv/M0Ft/6hn7fry0Y4BTRgjfAJcKzu37PmM+fsatvw93vjO//CiIiELZE8WSU3JKYNrgmingE+q//FBYcVkLybkXwwKYXOYG6UPeaPExrO/Ld3L/zGyv7Xo68ciRTQgDUSR70ffV67/64xz239w6d3HXzl4xk7XmMHTLHdiORzjhLvTMMH3VQSOivwV+5AAAtYR12XZQD4bIAd9Fz5rFi5YOe0sWfcIZmab9947v/b3Y8m6ktGIAU0YI3AQe+ry09sWxI82BL/i20H1/zzIXffLDsCsQ+gRD2UCc6qAD2VYeSAOjbAygJY4YuBFui1HOi6wKNJDhxawXLwzpVENifBfM1rzaFJN08cP+32t8/+VtdAq9bXn9gU0IB1Yo/vgHr3xLrvXbx66+NfPGRtvJSck88OAKeOA5AG9FTvYsOgnGlCxIRiPpeXmIxdMXfylV+6+pTP/uk4qtO3nKAU0IB1gg7sQLp13+rvzGhNr1my+dDKd0NJZZmWLbYBcQ0Y4sKfajgKrYsmJEvD4PNcyThZyaTszIzGufc1+qd964azvrJ6ONqhn1HZFNCAVdnjM6St+9GjN9XGavyf3HhgxSeyVtfYYMgvhRz1Sjb8qvLQMeXFsCn2DQdocSrCJUI5P7hiO5Y4titJJy1WMnbgpOZzbp1ce84PF5/0ntYhJYquvKIpoAGroodnaBq35Ikl9lSj45rtidVfTFp759t+aJOok8Lj6E9FeDIsj9Nx4fQ5PMV7DjktAzouF+ydgTZReeaaWUllChATR724cMJ13+k0un6t/beGZ1Qq7SnDNRsrrd8jtj0PrP3mwg17nvtyW37DlYbPMGwTeipwUNRZEaocKJFMuK3zM8AW/g138Z6o9PxoA62IBqCUVsV0Hq4QaVeaIpOfnFCz6CvvOWvJ48PdOv288lJg+Odjefs7Yp9+6xPvnCDZ2OcOpFfdJCE3bNmh47PwlYmC3kSFeGrnJZuBG0Qq3F7rG3fnmFFTv/v+Bd/dUKZm6ccOMwU0YA0zwYf7cd+5610hpzF148Hkln8GRzUuGAjBQ53cEzmX6hl+C+4UeXB/BccvVjAvLt7nC1nxZXyHptefc8v0hkW3nD/7Q9oNYrgn2DA/r3pm7DAT5kR43O1Pf+Idr3Wu/ELG7lhg2zWImmBIrpASS1ni4Pk0QIfP8tGEh3/y3sFqN4D3PH5oAm6ppOf5xLTUWaNfmTP5/FvGxCf+fP78j8JRTJcTkQIasE7AUV2+9fa5y3c89KU9XRveFYxBlZ7zQx2F83/oqwHfAUZTUKp1cC3VUwhOJsCWQJtVfbAE5xmtDFwhLPhugWOEx3xz4JR75ky67N8vmfnRNdXTN93S/lJAA1Z/KVUF192z7muNLft2/u1rncv+0QnmagO+IBY3+RCY/vCf1rcTqygI7u4S39uSz6fFV7CSDeb0/47VTrr5b865ZfuJ1eeR3ZsTbQaPyNFctuuu0N79a97/8sEnvpiWrskhn0+Je7T4sdDqNzy+VOUlvzpCBHcIR3KST4kEjci+2aMXff9AZ8t3P7H4N/Hytk4/vRQU0IBVCiqWsY47V3762r3xDf+0N7HjnFAUTp85Hw4pI9on9FQEKhYC14nHXb2R6HB+MPKCEFwIchoSG113nJSkswUJ5iIrx8dO+fZHL/7p3birmuTgN3ZyxP+tAatKp8Cft//g5Jc2Pf7P+9Ib3+UEHDsMrkqyUKrDgcn158VCJARPJV2lHTyOZtPqSQG4AC7Lohtsgf5brqQBZLls3h1vz/lNpuD/v//nsl9tOo7q9S0VQAENWBUwCANpwgOr/qMp6x747KrdT35YYm2j/WYQ3ukQARmXymTMA+9fNbksDKT/A7uWjqfgvCweLypIOpMRKx/d1+Bv/u/62PTbtH5rYNSshKs1YFXCKPSzDXeu+PJfbj/02Bfi7sG5ZpAnhcFHQARkGGJ4JaEWPZy9kVLptvCFg1A48OGXAhXzbv32ydFF/94QnPOra+Z/NNnbffqzyqOAnuGVNyZvatHPn/rIRXs7N/5Lh9Wy2GUgPURSoEXMdfgeSmalo/L0VW+6WX+gKOCBFtRXCDhPaHfhDiEpVxpl0tKayLh/+fCFtz+mSVX5FNCAVcFj9Ie135mxo2PZ/32tY+N7C37HNp2I2DZ9kCyVpSaPECzUIPOsnRYB+zOQ0HDhdLcFnZab94tj2ogNERcjaRVqozPunDl67tevm7Pk1f7UpK8pDwU0YJWH7n0+9UePfr424Wz9WDy946asLzlVAgGxLEb5pHNkAH4KhCmEfoGCvQCOwQMrbfzqk6jdX9InDe6nIB/oB3/aggtfNYTRKRgpMdOhtmhN420zm6becv0pP97bn/r0NcNLAQ1Yw0vvPp9219olfknmr918cOkXOs19Z5qWXwLgApjTj0dRvELfKj1s3cQY/AvI6UIHiAjz0AVakkkbEjb9r0xuOO9r719w852Df4CuoZQU0DO/lNQcRF3/ueyvLkom2z7Xnt9+jYNICsAqWP+gbYFSnfn+dBlKCtCHq4BD4Q7OW9qSQUYfSdoyPjLtgYkNZ9xy7VwdxmYoqT+QujVgDYRaQ3Dtfz321+Oj0cjfr297/O/yvgCiqEexeOCUDT8qy0VmGpwBdDRgDQHl31wlra10f6DzLUKeSiafECftzzWFT75t3vQLv3XJtE/uePNd+pPhpIAGrOGkdo9n/eK5T9XE44l37Uiu+Vfx5cfbfnioM4OMDYAqhBBPHRZAH3Qr2PURZg93ai6rB/lK9paBAulsyoPVPHfJBWGYONyDA+Im0gTBw02y6bwEpWl3rTX16xGf8cu/WfzT9pI1QFc0IApowBoQuUpz8f8+9+Xrtx9a9rl22XlOIBhCpVwsxbr5hvqqwx8Uv9CvZaIA05llEVvegVU2nJ60ambTvG+9+9xv/6ZMzRnRj9WANYzD/8unP3bWztZtn+kM7nyP6SuYQSMKVa93QHkYm6EfNUAKGAzHg9yJjHbq5pH4LOG6E+pOvzdkjf/qjed+5/kBVqcvHwQFNGANgnj9vRXRFBrWb3/wszv3v/hpp9aJ5QPMCgNlOixS1JXoUvkUMBGHK8+0Z2B+LYiKOScuZiIcHx2d+eOTmy/87qVzPr2z8ntR/S3UgDWEY3jrQ1cEgoHmGw4Utn2xy907O+CP4HwIZrzCKGaDgX7qsLvCEDZEVz1ICkC3hZViIgJGQYWX5plNDCKGMpPvkGB27Pp546/4Vlvbljuh30oP8mH69j4ooAGrD+IM5qv7V37xik2Jp5e0JdsXWmFExMT89pHaap4zVTtXAJ+gdVWDofPw3MuB4zjB6RRvHaWch/MpOC0Hpw4YsjmXTErMnLh8Qt28r9943v+7v/uG4WneCHoKR0KXElJgzY5fnLJsy2Of3JladVPQB+kBfj3cnqmrYua/kRBIr4TkrJKqEBXCCEo+l8Rh9Kw7Kjj37nza/y+fvfp/1lVJB6qmmRqwSjRUT2y7o27jrqUf39ux8h9TdqrODkbETy6KOzIPJ4+QqJ8lImdVVcNFlIOZ10J4H4qNiL0Fhsw+2Bw69b+m1Z/ynatP/0JbVXWoghurAWuQg/Ouu95lXT9z1ru3Hnzu7zvzu8+0fH7xY7c1CvCngtTgIASmivyJCa2Fv0ESu6JvtyAecmNC+BrK/SgErpgvumVm4/nfXt+25vYli59koAhdBkEBDViDIN5vX/3ShRs3rv58h739Sh/iU9mmD9HEC91p3wlQHnn5W6Vg11zWIKhdybfSQ56H0SHyw6jibVAAL+BWFnrKbCIrDYFRf54QPfXb7z/vew9Wck8qvW0asI5jhL7/4IcmZ4z2T7YX9nzcqW0Pm0ijRa4qj/RTumgKFCnATcpFhA2/30Zs+Yw4GcsZFRz/Y58T/u6n3vbb9cXr9Gv/KaABq/+0kj+++PPItrYHP7c7vvVvC77EWCuASAqwGPmYkBSiH310dNEUKFKA4X96Zi5yzLxksKdZeaNjvG/K9yfVz7vlmvlLWovX69djU0AD1rFpxCuM7z78jr/OWZ2fOZg5eIYdxQFZxFQq5G3x2XhFdhYvSwuASxdNgR4UIGjRMkxuCyEDJQ/FfA6qgWwqLbVu/YZFE6/58qWn/ROP+WgVZw+6He2tBqyjUab782e2/Hz+izseWLK9a91V/ihcE8wATNdgpZCNhTPMpQXQh0jhmJQqA/wx6tNfjywKKN0lnbdQqNOEhguvWWU1zgPEcumC1MnYh6c3nPm1G87+5jMjizoD760GrKPQ7EeP3jSpNbf7poy0frxgdNb7AiHslLxYwRR9CLsdPzUJj0JC/fEbKKC2OCjlOWMMOp2CSzcgJuYRf8toi8UnN536i0WzL/z26c0f3PqGW/Wf3RTQq+0NU+GuZd8JtSVf/si+5PpP5yP7p1kmoinkokhawBMXmlxvIJf+cxAUgD5eWRSZqZo5b7OpnETN0Xtq/RNvbYqN/+EN87/ZMYjqT8hb9QrsMay3PPieC/OBQ/9+ILvp/GAoBl4K8dOx+0HjAO4qiCu1mqEHufTbQVLARGBGWhE5txADAptiFrabAqacKw1O46unTX7bkv9e++I9v7nhN4yRrQsooAELRLhn+efntma3/cu2+MtXmn6E/YR61KUTIACK/+hXo4/U6PVSagoQpEx6x+c5v2BRhOXGcHPQb2UkB4OOm7bdiBl94JKT3vvts6d/VOu3RjpgvbjvntG/e+kHnyxkOm5KG4nmUCwgNiJ9FgrY0Oii0H1AGdgFXYPG9lIvWF0fD8FzqtHqjDlmISoE5x8V88iS5NKKg6noxO34xNFzfnLamItuOW/ah3eMZLqNyFX4o1U3+fwJ9/17Uq/8Y8pIzEZASZwB81wSvLjeEP48DftInhu67xVAAdoVHTOLWFx5CXSO3TixdvI3ppqT71y8eMmIDGMz4gDrvlX/vnhzx5NLDuRfu9C04aGuonZjm9P6qQpYnroJb6QAj/cYtoHD1XkkgEXM/xTcIIwpT46pPfOr7zv3a4+98foT/e8RA1gPvvofk9ft+NOS9uyOv3ID4YCL4xKGnUD+B8h+LvQFGrBO9Llelf3jAjXA/echHVJENOH/l8mnxUya0miMubMxMvff/mbxzSPmmM8JD1jfXnrZ6ECi5sMdzq5PJIz4OBtZlLFhMXGyKshGB6abCiuPFEXPZO9b/VtToLwU4HxUiixlR+R7U22yyAIn2Tws2IXgoZPDF33dFxl92w3z/+mEd4PwVml5x2TInn77Y+//wNbUhn92rPS0QBC8NfL8ccCZe84rBCrtqtBNDP1SZRRQZxUhKmZzBQm6kbVN5uRbR3fI7TecwG4QJyRg/eypv13YkTn45f35F6+yEEedm5SDgfVZAckhVrHOpFxlK1M3t08K0Gu+4OSQrRpiYmDWo3ag5qufvOhnT/V5U5V+eUIB1l2rlkzauW/159udLR9ygmbA8OFwMt2JUUwTh5QLXjIBbQGs0tmqm90rBRSnRf8HHshHiKNcMpsZZcz46bimOTe/9+xvb+r1pir98IQArFsf+lSgeWzwU+v2PPWxnN01zYTrp4twnz78M2hZYVwi4JaJaJAsdNLTRVPgRKEA5zgV8/SSh/gA2AogvnyHOPlQy5zGS27etW/jDz//9vu7ToT+VvXKXbJkiTn+LQeu2dn+/JfydscCRv30lJTQSyHvH4IRQUMFrurwaXl6r1d1l0+EOaf7UHIK8EyGF/LIU39gY8aGbfiyko3DHUKCLy+a/o5vXHPyl39V8kcPc4VVu3qfQnaaFzb89l9burZeK/VZv2XATYEgpZXowzyF9OMqkQIMa6NCNaNxBccLHFhvj37ozClX/9vbZn1meSW2uT9tqjrAumvNF0a91rLp7zqM9R/P2+kGnx2GiIfIn4hLZeMwqaPDfvZn3PU1I4ACBC0WAhcOAUnSjYudrUnG8pO+P3H89P9875k376g2MlQNYN219i5/Ibvixg0tD//fjGtM8gX8ACh4AOd4eIFna3D2SrHFdFXQRVNAU6AIWKQED545ZlAKRlLcXF7sXO32SfWnff+kxuk/Pn/256tGv1UVgHXb0k++JZ7Y/PmWwq7LLHioWz5opnLwnANAMQ8cnT6pq1Kv2q0KdNBlpFOgp0hIqzi3c5+J6BBImEI9bsGOSz5jSW1h9Jr5My755ltmf6kqwjRXNGD9ccP3Zm/Y9fgXWrI731uwMlYQbgquEvk0Ko30Ban7PzgKUERklPm8mcb5xLyMt+bfNip88n+8+4IvbhxczUN7d0UC1u3PfDNmWtv+fvuBVz5eCB8crcJuuGHECqJbggaroZ0SuvaRQAEV660QAKeFo2m+pBSScP3J+A802id9d2xo0o/es/jmiszmU1GAdReyKFuzJ77/5b2rPp1y954RxLk/h9Y/clUqoF5FNXckzGvdxxOUAjBPQZ3C2G9wf4B2xUBYCJdhbBKOhArRLTOaFn1tTHPjrxZPrawwNhWDAD9ZduMl+zv2/kOH7L7cDw1hwELUT1j98tROAbAMRmTU3NUJunx0t4abAgZQyjVyyFIOX8UC3IEQBQIaeQQuQRoyNyn5pMiY0IynpzSc8ZV3zvu3R4e7fUd7XtkB69ltd0x5bufvl+zv3PQ+O4SQPwaIBxcFqKtUSA0q0sld4WSNSlp6tI7ozzUFNAX6TwHvxBqYgcNGda4z/CCLjwuveRMeqIVsWvIpK9FcM/vX0+vP/+Y18z5d9mM+ZQOsny3/RGM8ufdTbdk9H0s5naN9EP9IpHweHruIc62LpoCmQPkoQGBgqGYHoZpz2axEnFF7atza25qD477/nsU/Lpt+qyyA9dtVn33P5n3LlhzyxWc6EP2iPuRoQyA9B+nelZMbgEsfUC7fZNVP1hQgBegypEAL0iJYCbhB5CRk1G8cHznr67F9+/6nHGFshhWwfrH00ws68wf+aXfXK+80/SAIMiYz1Iubp1tbsfCgMlnVYW1a8eH6VVNAU6CbAi4SYviUhkZ5cUFUpN4LFsW0I+PCsx8LWPX/+pHzf/L0cBJsWFDhj/u+N3Xr2mWfBlB9JB8uhH0hiH8U/SAzG4UQUJypuz13hSJY8RCz5rKGcyroZ2kKHEkBL84W3UxhAMMahT5enBz0W8GMpFP4POePj4nN/MmMcW+9+cqZH3ntyLuH5q8hBawfPPHxaDK+64NpSX4m69811RcMSDYTgKc64hNTwacKgar4vvsj/aIpoClQQRR44xrleoUUBJExlclITGL7IoUJXwuPabr9o/N/DPvi0JUh027f9cw3JrUlXvpdq7Xlu/nogak8+5fP+OCuAPGPEfUPFw1Wh0mh32gKVCQF3rhGu6UhuBqF/WFJ+gpjWvyv3tq2f/3DL+15YPZQdmFIAGvFtrvOWNf6+0e6fK2X+IIM+cKAYmGxbB/ONGUg/g3JY4eSTrpuTQFNgV4owNA1PqsAXVdE2o32C+9e9a371+69f04vl5bkozdC56ArvefFL576ys4/P5KOtIw1jBoJObbkHOR8hKuCgYifjmtByY48NYhDrUXBQZNbV6ApUFYKuFjHVi4A8RBe8kGRdC4twUTDpmtO/9LlCyZfvbXUjSspq/PEtieCG3Yt/V7K3zbWLzXgqwQcFfRVyq8KSnRYHZgY0sSpcQ1WpR5KXZ+mwPBTwABD4lh5hK7B2s6aEjECkg7FZ/5h7S3/vWrLXbWlblFJASvR+dR7O/OtF/ttQhU90/m7p8Ku5AwdH6CLpoCmQNko0K3PKj4/b0sYvpWHCjsu2tH54nuLH5fqtWSAddddd1nPv/b4B21gqhdXHVCFODw9g4iVqtG6Hk0BTYHKowBWO6QnGtVwgLrOkVf2PfW+O55YAkGxdKVkgBU+becZaX98ngIrgG7Rh0o7gJZusHRNmgKVTAEIhZJ2c9BVFxCKuVZcf2KhP9x6USnbXDLA8hnO3GwmGTJdOpl5bGIpG6rr0hTQFKhsCnDVW+qECkLWwM8ylUtbrlU4t5StLhlg7d+/dzoDwBSO8LEqZVN1XZoCmgKVTgECCvN+kstiRIhCQaKlbHPJACtXSAUYa51+obpoCmgKaAooCpCLKWEpGWD5A5bDaAvaXaGEo6Or0hTQFDiCAiUDrEKBIRdMsIMlq/KIhuo/NAU0BTQFSoYujpnzMT22Sc9QrXTXM0tTYIRSAL6WgAClxwIOWCYUWiUsJQOsErZJV6UpoCmgKdArBTRg9UoW/aGmgKZAJVJAA1Yljopuk6aApkCvFNCA1StZ9IeaApoClUgBDViVOCq6TZoCmgK9UkADVq9k0R9qCmgKVCIFNGBV4qjoNmkKaAr0SgENWL2SRX+oKaApUIkU0IBViaOi26QpoCnQKwU0YPVKFv2hpoCmQCVSQANWJY6KbpOmgKZArxTQgNUrWfSHmgKaApVIAQ1YlTgquk2aApoCvVJAA1avZNEfagpoClQiBTRgVeKo6DZpCmgK9EoBDVi9kkV/eOJTgGGaShqq6cQnWQX0UANWBQyCbsJQUgAJEQzky8OPB08GcufhbyuDz/BTwN8q6GQerwVxkO1F53wayvEYXN0asAZHP313RVOgyEF1QxDAKBRAGO+cX2yjXuxgUHJ2XvKuDyDlR6ZyH8AMHSpp2oSKJlDVNc6uuhbrBmsKDJgCHnD5w5Zsejwnyx9qlaaJ9XL2dTXSOEsknc5KJgNOTJBPT/L4IWoVwW7AD9M3DCEFNIc1hMTVVZebAuSsvExOTsEU22fLvq0psTrrpXODTx68eY8s/RG+P1AnDbX1yAKag1gI4FJsVrnbrp/fGwU0h9UbVfRnJxgFurkl5kPwhUT8jgQCjthuVDatSMu2l5Iy68KwnHVls5ihhMRTydf7n6eOC2KkFJAUivow6Lig9xLowXQZfgpowBp+musnDhsFACzQR+VNB1wT3zvI5uIAd/iKDJ8An5qwLTmA0oY/pmXX6m1y2tvq5KQLagVCIoArJT4LgEVFvGlDWHTVP0txbcPWCf2gHhTQImEPYui3I48CjgNOCWnVI1G/5LpCsuzXXXLv11pk//M+aQzVQTFvSgbfk6lyHB/SVtmwMOZBKM1hlWO2aMAqB9X1MyuGAlS1G7AOFpyC2OCmYv6IpPcF5NGftMgfvndQsnvDUh+zof/KQQxMST6fA3fm410V04eR1BANWCNptHVf30wB4o4L/ytkLEfaT4iJOfHZAC6rRg6tN+T+b++SpXcArNpHSSwQEgu+WvDionSpSxkooAGrDETXj6wgCkCyMy2lT0ejKOYBjMA9uVZW7AC8s5wG2bwsJ7/5yi5pfzUivogLnRiv04hVjlHUgFUOqutnVhQFXKWO4i/1Bq9QytMaKLYY1G+FIQKmg/LMA9vFLoTFgN5LKfErqhcjozEasEbGOOteHhcFPACjYj7gNyXdFZR0pyVwltcM1nHRc/A3acAaPA11DSc4BVzot8BWQVCk7OhIATimnUvLM+gasMpDd/3UaqIAXRqo2YJ4SOAifil3iGrqwwnSVg1YJ8hA6m4MHQUMRnNw4S4KZZeBV4HzKZzfdSkDBTTZy0B0/UhNAU2B46OABqzjo5u+S1NAU6AMFNCAVQai60dqCmgKHB8FNGAdH930XSOOAsWlUvTVGnEEqIgOF0ehIhqjG6EpoCmgKdAXBTRg9UUd/Z2mgKZARVFAA1ZFDYdujKaApkBfFNCA1Rd19HeaApoCFUUBDVgVNRy6MZoCmgJ9UUADVl/U0d9pCmgKVBQFNGBV1HDoxmgKaAr0RQENWH1RR3+nKaApUFEU0IBVUcOhG6MpoCnQFwU0YPVFHf2dpoCmQEVRQANWRQ2HboymgKZAXxQ4YQHLRVhbJhew/QgSiV7y7xO7eP1TmYkZbs5l2k8mShhZ6ag4zif+WL9xJmOuq5XsJXp947cn0t9VDVgqUQCy9vocU+U6cZGuiWvUQH65SC1SMjmWJPb5xC9RiUVCyPjrDSjTC2BF4x5kl6vC5CcEJbafUMS3BjITM9sLcq9LNpeWXKqAvoakkC1INpPBV0hNxRC/uIx3uep63lNNhYCMaJ9ou2FgJ/J6r/rlon/IviVBn09ijUEkRUXSCGR6zikMR0p6RNvj95aFRF6kQfcPk99g6lR08eYosk+r8eMYInM1Woweq+w9dqggoZoQ8ibaEkYW62DAUvPBzbPzuApzXs2Niu5l/xtX5anqgTboQY6pxDGJGbrWFzQkDIha/1BaXnk0J6m4Lf6m/XLGVfUy7ZwayUlSssksQI2LFzeoGaxmdv+pVsYrCTpIvo45iIwuJhKAusiZF8hIPmdJvj0j46NTZfHcj8qY2Dw52LVFntp2u2w8+Lz4/H5MZlucQkZs0Ix59QwSj+BdFYVAhR+OG7hHZp7nNpUrWOhbQEJ1fnnt5bjsXReXmtGWzFhYI8GahCS7EIMdnTUtP2jkA+nSR/SZvVckrUgacF7nVdZp0w0SrvEPmxEAmuAb89dJ115TVv+hRfZsTkntmKic9fYGaZyRQrIMkWwW/QVSm3YOkVKRd5FIXeWlugELk9XwYUJKRnw+v8R8NbLnhZw88vtOad/uStiPXQc7UKa9Uf58R5dseTYnZ15VJ2NPiUoi1SXpQhqpx7n7Vg8ZmJLKNAA8mHsFSaH9gOBEXqLWGDn3lOvl/OkfEL9Rq3BoVHiyzBq9WJ7f9Tt5bOut0tq+R6KxMMCK+zZLtYAV24oWo7kOwNoCWuXBPrkhkbraoHRsdWXp71tl14s5sbJBKVgZefnJfTL/yrEyZYEhmUJckskE5gpzDpJLqZ6FWwDIMOFFAdIDx9rFlusPRsWf9ctLD7XLmj8mxEQKMp9RL/tbC/L7jVtlzoUNcsYVdRKKpSWZyYPLtsVSU7yaxptj/uZSJSuVE6wXYiO2tokVXBtpko4dlvzxvj2y95WC+CyIBTVByRtpLE6fmL68NATC0r45LX+4da9MOTMi868JSePkejnYlkEdOYBANUxir40u44r7IPolMYlTtbJg3CVy/ik3SXN0EnbRLsnlU+A8bTGz4CCdrJw16TqZOe5iWbbhp7Jyy52SNTskEI4AA7CDe0n53jwzKuITjjn77PWbXCEYS8kjbU20tkYKCUvW3N0pax/vFCMVkhgWshlin3yS3h+XJ+7YLhNXxGTB5c3SOA3fBQBoSNdFDq06ioM8PT4kpoZYi8SuPhvqDbNWdq1KyaoHD0rHbhM5E2PiRsF7FbKQLLAROWNk7cMZ2bR8nyzE5nzSRbWSDnRKKkllAIXJapjnRx+digUsYJEqFF/yhbySy20LYg8+dcBeWDa4ihqfOF0RWXrXIdn8bFIcTNogFiKvcgsAIYhMhsM05Aa4EXBjwaBEsS3vWJ6RnWvb5eRLQnLmlVEx/K50dWbVRKesZHGdY0dTIghkEDbFGLaF/foi5dRC69UOS0Uy+AqxsWIzuU4pdJkyvXGhLF7wYZnecB5bCELhXgtsB+hkY1Eafoo/YXzsSI0Rk8vnfFZOnXS1/Hn9j2T93sck50tIgIscehGuYYrU6Ch+sfDp2N2Lf6rPhveX61DspfgHsShvAawM8QewaN2IrH8GQPVAWuIHHAmF68QJ5yRvQTwGmJkY7yDoEHBrZS847nvXb5ZTz2+QeRdNlUzbjorenFzo2whQGEIlxuUxHwMhR8K+gBzaFJVH7mmTA5syEoJ4XxvxK84LkwTXQj2A8XKstEQbwJElgvL0/7bJulWmLLxynIyaCzExnccmBw4VQ8vZZFiYW3jH9eGS6+b4V3ipWMAiC5svFCSfB6dgYZch8ICY/AnX5CRQaJL1TyZk1UNbJH8wggGEGBQCUGHlKazjesNCpWLeY54w8bH4+F0kHIBCWuTl+9tl24qkzLt8lMw4zy+pAriTNCcBhhMmRk9jQCUnKxuewrZS10CwdDhxbYgx6IcBMTAPA0M82SZjAifJJfPeK2eOux6cFACKoMImYkFTLwXNBQp/e+9sKn4gTvC6CbGZ8lcLviHrW5bJExt+JDvalosPylq/HcFCQTVUDoFIJhT4DmiOd6xs2IsL3YuLTckywpLLQLEczUkQeriWDaasuPegtG7MSyAQwFwgR4XNiS0skAj4wX8P6LNY7PysSdY9npStSzfiWhPMp63GVl1aRkBmk1mUZRNzzgSSQCunuOMcRF4LG2msHslb9/vkz/d3yPYVu8TOB2BACqj257l9s3ss2HRYTPTPwccWlO9RtwaqkaQ8/INtMuGMWjnv+jqpHd0lXQmAOwAOsjOmDOY3QRL3cr5XeqlYwKLFj7oKB/qlHEEIk9cXtqTBVyd7n8/J8ge2Ses2nwTtRomFyAXhGg7eMWjOYeViMPyGRH1Nkt3vytM/PSAblhqy6NrxMvrkrHSl2yBWYUfHgudQmmiLUtAPw2iqpJ2qE2gjEVYpxh3sjG0SktFywezPyLmT/lpqoHCF/hy7JMAVk04l+eyjfQWIxlTgEo8KAL5Tmi+UWc0LZeWOe+TJV+9An3eLL8r9NghOi7sFODToTo5Bzj6eOPCvirolAjWVLuTu8oWk1DXWSNe+qCz93QHZsTItgCkJY9Gy9CXS8jsyxqw3GIqi31S+s0fD2SvVzKP+KrpgWDY2FRQXG7QjWYnFsKli7F+8PyGvPpqQbBy9xpibfoj7/Wi/2mzQ74APynpsdi0rC/LbV3bLnLdF5ZRLoN+KwCCVIAeOeaHEGQAlE8VWeKlYwPIWKnYMsLgcoPo66KB22/LQ3Ydkz0tJCYLdj4IzcMysZFyIcxT5sLtYGOa+pqPKK4cFTuUl7IsSCgL0nIi0bYbC8tZdMvNsv8y/okaijZZ0ZZLgxAAI5PBQ73AUzh0uKnJapumXeBz9BxLPG3+5XDLzEzIqfDK+QFvIDtHgABHIhm7jWMWg6R+AxYlMUZlmbxu6vnMmv0dmjjlflm26XZ7f/ZAk3KT4YqBrzoNrJWYOE5NVBB/F5QFpYlHwtqmYPH9vRl54fL9Iyic1wQC4Lkuyint+ncHovf/YZmzMB0wIZSEjUTk5uLFVSGFfi9w0OWkrYktDMCY7nkvLKnBV7a+ZANuY1IQwA50MNp1+LFn0UXUVGz37bYJeZiwDzissL9yXRd37od+qkUkLIzDbZCSRTEPvC66zr4VTIfTqR++Hp6XePPJ+U7DJYz0qPVUYi7GrTpb/+qBsfqZd8gkTHBUsXaAuvI7I++NqG7odyuGYnMeYjCbuUYy341e6qhw4CRecTIiSVaFGtjyTku0v7JPTL2mSOZfViBOIwzUCPPbhRcs33sgqvRJZlkEV3s/6vDpNKNA42XIQhzNJR2bWz5WLZ35IZjYvVhOqAH0eExCznyY4IHV9P1YgOVbTwWJn8wHYBQCYAyIj87o0+cbKtaf+q8yfdIM8se4nsu7A4yA+aBsI4iFeuzwCeO3kAhvc5H5jndhAAMoKsPC8MHQzPnBRm5am5cVHOqRzV05qOQ+CFJj8kgOHDIkVc4B9wU8fhboZdRGupejjKQWKz+/jxiH5qtjg4phTHIPGFZsHVSA1NWGJ7zDloXtaZfdaaDjgSxeDQt3heLGjGDxyQ5y/fZVi7zA9QCNvshh5HyyJ+ImYkmqDJf2ODhmz1JYF1zfI6JlB6epKKt0Zp/PrXH6xJo/Ixdb39eyh/q4sgNVzoR9+T38RxZ6Sl8mBsHACNEbJjqe75LmHd0jnAZ9E/CHxY6ehXkrJC6AgrXse60+u6djFhW6KE105kVJXRIDAbRhWvIeuJOQXN+eX1VBublneIWddUyfTFsENIgfZPwOuJI9JA2UlNUWmSl0OPVsBdWB2DFQxT1GO+jLVb7TAYb+ga8olk9LoTpTzTnq/LJj5l5ho4cMdM5XoQEgfWLHArSkCqRstcKLQX3DVsyaVzVhkXGyOvHfRd+TV1x6VP637gexLbRK4/ygfLgNipAVuDmoPJVr5cC+tlcoJ9TCo9b9NSm8CEc1jGEAHaJkN1FkDo0nrJlNeuP+g7FqbgO9YLcQj8M0KIcmNYOlSTwNl/DF3J9Ucj1Lc3lQG537Nkv73YyBXktpohZq/CkYxbxwCdJNfnPaAPPfzdrjewLKdsyUaDGFO0Y0BoINNBXep8fNEf3569MJpxILhQp/xJP6Nue4YqA+vFnR4YZ8F5b0jv//mPpl5TlDmvT0Gp9ssOHoXAOrAGqmeqDZPDm+GY4V7DLVLqOrL8qssgEWugCBDXUWRQ/DlApL1QSkDJWkULHDbK3l55r5dsu9ViGz+mNSDpaU5Ww1Vj+1dfcI1R/J1D1RflHz9Vt6h7jp8uXeUBRME4BOJ1ktyf1r+9JOD0vxUVOb/Rb2Mm+1K4kAn9FuwOkJUhfoWi8cHEYW7GAGzHw04/DQ+HhMACy8H65aRD4mT6ABfATFt6gfknCkfkfrI6COa6E3EAT6j5/N63Oq97f5AvbD30HEVfHLKhMtkyrhFsnzbb2X5xl9LW3K72NAZmUE/XCXQX0x4B1ZY18jAmkWjQI+Kez7vKO/pqZ4DN2z5oa2B64XPF5JwLYD/wGhZ9r8tsmVZHIwdlctwXcACUXQtNlUNYDeLeZT6j/zYG2OPdkeO95HXDf1fNrhI1R+sOvpU+SDy2r5aWQ8u8uWHWyQH45EPrL4VxnWgL40fRAwPOort638fisDFO93D5l7ejxohLgaC3H1qZcOyTtm6Ni7zLhklp11cJ5lwmyRgUVTnR3KQX7CrWPBtMyCduNioy1nKAliKI8JELCoaHQBRDt7akXpY6naHZOmPOmX7S1AuYkFHatBEEDuLXYcs7rAUPIj6gkAAZnSIie3rC/LwN3bBkhiQhVeMluAY6M06E7jGY+f9VORyYfHw4gCL6cIDO40Fmk7LyY2L5S0nfUwmNM5Vbgb5HMQ/eilD3T70hQsDE5nWRCyUMHSEi6d/UM4YfxHExB/LS3v+LMlsG3Z+6jrIUUbBDfqwidCHbWD9xqEZ5U+Fk0NSA+Uyuigb7y/Iqj/ulGyXXyKRCFoCIFQOruR9+79Ih55Ox/8E2HGkgM76/ZbEAqNk58udsua+3dK+CS4YwRqxY4QSghU2cnI43NQxr3oCz/E/veed3AIAPAQxjHfUH5V83JAVdydk86oOOfu6ehl7akQSGO8CNmMH4qR3/Gtg49zziaV6XxbAYuPJWXEi5jFrg1FwKk5U1t6dg0WkFWfhYNWBzxR37xwGjzuMsu4McCc/XiKZDhXyYKHRRLLRfgBYwI3J5qeysmv1PjnlbQE57cJ6SUgcK5vn9bDv0LLmbYn9eCwnDEAR/zLgqqZETpW3zP+czBx7AT4F8EFPVcBEsuCH5OShaxumTU0ppvF8pTEh1wjxtz44Xd4575ty5pQ18vSG/5JXD6yGuN4F3Rccc7GgfKDN61xrP7qO+guw/NJOUBsLyc7nXFl530F1xCQIN4VgDJ7ZXEcQWV04vVow9XtnH7FY2KZqLtiA62si0Mm58uh9B2QXfMQCOOcK30/MBNAdRhEDY06wKpbSg1WxZswzgCEmolKFWFBPRME5J3cF5aHvtsnkM2g1b5boWJG40QbgxIXYXNnScpayABaXBH2D8rBEBWKYwC0R+eMP90tXSw56qlox4ISt/K6geKZrA0YSH2BhgKjDUfA0JfsXgFi0qhnQr1B5GYYFR7KOrLkLivnVcbnsI9Mk69+LCRbwdkKOfl+FGE1rAqZpzoQ1LhuRK2Z+XM6f9QHQA7oz9Q9f43kWxUVYuDy31eHZ2cgp0dpqQTnLwvmMD9SbKfVnyuSzb5M1+x6QR174jiRDLRCIIcaiO8foNatSoGNQw4//UM9IujUqD/+wTfa+CudVtw7n/kBn+FFRL8anK9BUqgOOOZ5wWKRhbdVRjnDTACFrYdVefVdcXv1zFk7O1NcB9NFTwBTmG9x24GPFOc55UCyegeP1v4ufD/4VTADWFscYywxcMiYnyOwP4KQIxPHXnnfktY175fSLYzLv6gZpzx3AoGBODkVTBtAZLqFhLyYV35QHUCx47C6/H2C1x5Qo9EYOFqmpLCGY5NheuHtT/h4usGKbyP8oZ01MJZsaR8j7ivPB2nHhyBmFNad1syUv/KlFKYkp0vZn96cXM6VGcoy0Tp466Xy5+KSbsPABVmoiUKFMjpITmDDA/cQDD7ZrOAqfWvyht7X6g67RfIs2njXmGrnolL9Sejw0FfB27CnErtAoAVSHI6cFDiMsv/3WNjnwCiy+MKT44PBrqOgCPOmnME09z1u33kLq8an3XZX8plhH14VYXUhefiyPud4u/jy4KuivsphXLJxb1IUy6sQbEYH3D03x1hZHtsjQ8VEepwclRMQSv1Mjqx9skfVPdEmEjtlD1pb+9/DYs63/dfX7SrKXXJamH0IRTtDHW4M40OmTXA5KPc7YCiq9TReCWTAYka5D4BWhlKTligrKYxZYhRQC2HTHsKUZVrlicbDNOcoc1I96ijeV4xUEGRWdLUYyiB6r6X3MVniLjiMOCMaB9I3PdYoVb5QAz/Xhw8M+UsesqbouIBBQ7OJRGwJuC3ShtSE4f8JlRH10hO6vt5lWvv4Sm3BwQkJmk2x7JQUVAFQT5WavQI4yrA6wothyTZycz3E/BWFoYudbGyZ77sZUOhbZ6fIN2dGfrNpGny/ol2wontUOqZbj0e/hNyaAzaXmlaJXDrtp1vPWLpAnR79NJYrhTaUWiC1sJ0YJ4+bF2VKM4DHaq0zruMbyYaNCFfkMBtvAIvCDs2KfIe6faIVARfcAil3U19JvEMgFvSj0nji1AXMOJIkKHmsMiAunUnL7PMrkSFpJOuUepzLMFA4SdxwWCBSYrxYmL/VaisPAp/0Fq+JioQjH4u1RXExUafMV4AdmhmfMWKdiz9UrPvO+5m0DLopjAPioOtVT0XZPwj1GXXBSZaNdGBnQXwsKfVUgClBi6m+/vZu83vLx9FxTeo/uj3prhMfN84I+LurtxiM+88QIHkanx2kOx30KdMzqR53sdh4bkTpoS+cr/DjQV5HbVufn+lUHKulRFAaAksXx57f00aIjMfdiLjYOtGdM4FQ/8n58MKSFz+e4KOU2nsQjMgZOF2Rx/IaihFEc/wG0Qo2j6gbozr7yPYbU2/M4r9BPtQFQH4mirj2+Zc75qBy04W/ogt3i8a5yl+PrySBbTRaZLnE+Klmx2KDmU4QuLli1pr0V1ueTqO8heNDjm0X9jQGyUEEqA7cIHF1pnIRh82dwbgoWJw4kdj5y4kpbohScfT7iKF92LxLcT/GQAiH/H6sAonAJp3AOTn2YAHjHQqdOL4qm+vOYv1z6o4GGXpgU7uQAPrSDk7MVPlP3rPii/Gr138nujhdVXegyngfLI1CV3CvvK8ACN/DiccC2OoxOkQFLkop0b1X0UR22I7SBC1g5PnIMAFQuRGCK0xjBPu59/StPtERXURd/GBfMhI5RnaWEDigP82IqnZVkikeQ6G7BevlgEIaDjrfdJH+90iF6x56yx2SiHHJZjLlGDhWGHDCaeK9MT8d+OitQqi30E2NMIxTeYSbBiRlf5cCpZ9yEROstxL7qUOPrbda4CRsjRglX4rnHUfgctcHSXM42sP1lLuxR1RaHnApAo5BHAD96cmPip9MZyWAgZ55bJ3PfFpHguLzE94i89PuDsmMF2HFYQAIhACQmECMyFLjQqeysksJFC28DFBr+UdB/n81dOylLt/1Ylu28V7pghjbg1Llx5XI5ufYC+FPdJKPrZxGlvckLwDOVRp0VlKlgwXLd9rcQoFgU9uAX6eAi3pmdR8A+RrFw22XsaXC6vbxRXl25XzY8jW0BEyGMA/Mqvj0iOmCJA+Cw1HlcpWyluyP9fD4PwHt2Q4w3QLcAYw1DPucwbxP5DmmaHJUzr62VydPhALrUlDWP4kTGQURqgCWW1zswZvA0x8Ce2s/GleGyqgYsHujlSFhGQNJwN8hC/psw05JF1yGMxuw8IhAgyFkHLB4Nrlxy0yjZdnZOVgC42rbmJWSFseDBG/FwLJdOlYwoFyz9xCwoQYlYnM7Ptzwiy7ffKbtaV8MbHf3FGTQeL8ojcNvKA7+XjQeel8Unv0tOG3sdDg+P6TZoksNSkFeGaTfwR7LfBC06UnriM0RMuAGQk4415+Ty65tkwiJwWNmkXDhrnJy8MC7P3RuXPRtdCQCkgn5wYOSrwWWyrmoqyokULgWUCsgoxhHi21dfkPPeNkFOvghnA+GM2ppok5lvDcrUM0cDtDpk3Z/hcJxLSASnRgqQLFSEkmqZ5H0MTvUCVvcENiBXpzAwgVFJOfea0TL97JAkcxlp68hiP8UxEkzTHELEtiIk8uiTLXn7KWNkEw44v/Bgq6TbfBKwofiuErDyxhF6Bep9wJ7vbXtJVuy+R1ZsvRdiLyRgnMMz0V+DHATEYT+OO/lCJjjOdnlo0/fl6XUPynULPiOzmy5An6tv4SqwJlpBTEp0ITZ9TVLmXhmT069uAieRlM5W2C3BkSSkRcKTgnLlP9TL9uWOrHrggHTtthBlFZZNzvgqGm/lXkOUQrczKUTusDMy69IaWYSgfG6sTbriPNZl4cQA3EXicTEQ4HD+u+twPhD+gvd2yGtrO8WPEDM2zgEWdWl94MGbvqJOjBFBKqVUL2CBhvQBSkIcnHGeIeffMAscRVw64gklLpBtVlsyBps6G/4JzILvWxuur5FZC2bIk7/YLXtWQpcG3yAvJlClDEvf7WA4mQ0tD8mdz34F7uJZOF0CrbAKXShxKR4xQQGTcqgCnZUPSlMHEzZpbJU713xe3jL7fXLx5M/0/ZCh/FaZx71FQK7J0/ccY1FgANU4grOMG4dk1mKc74RDY7DJlvZ4O/STZJsAwuBCfHDCTSexwK2kjD3LkOvPmAwfqEPywh87cBIF8dDhWkFdHmlW6dyWEmHhYJ1x0tI0Ny8XXDtJYpML0tG1R3IJnzQh2qoctOXVJ5IyZ9EkyY3aK61dbVLTHJQrPhOV114KybP34kzGPtglGdMeekOl4+KGz3Eokh2vONMPbxtueaAh1ouJuPGJNCLzToUrBkV4pYgknYs3DeUk6b1uNKt6C+XzcIMhF/7lJOksHMRJc5jaQXQDk5cLAcsW7ynwcfHiBwvZwsTv6uqUdHCfnP/u8Yg/xEXOyVs9hVNmT8sG6XL2qwXHHdAh20/OS+E0rsDkYtgcl0paWONM/FgWRGcnJRt2rqywzrJHfReOJUNFmPDEvvrjk+TiDyEsciQuB1sPiQ1xSYWnQV85zrQKKmU8XlOwvRzKtcq862rkL/9pmtQ2w+ADp2XPAODpxPp+cnm/JUbkkOln9GSfvONTs8U3tl0OHmzHiRC/jAqMlV3LwvKbf++QZ/93v/zmG6/K3sdiMj7QoA6o7+7slPrTLbnqc2PECiLKqDplgf4ApRW3hbppsFLGLsybHAENQB7A8SDk7ZA4xOs5l/nktEtt0BEX07pbRrDiSFQth0Ui53KOjB2H0MHBDsl24swfdFlFSxI711vhZCa3BWMSdtpOMeHRm8dZQIxGb5dX7Gd0D/AhSyy5dRuTjj3oq3jfexZVz3rW19WV9x0tZNDgQOQpyKiTk7IfKc1MuAfwILEyvWNlq8B/RzSdmxX6jDNwBw4egoI6KLFRgkCQOPIERbS3cLnDVe7Yu92hi/x1eQTbO6QsoBFEL4mva5Knfr9D9m9JSTgQldqGoOTiQXn0Z/ul+ZmMnPOOCVIz3ZDODuixgjA3IDJGDvNcHb/y2FoFVOS41J/Y3CwDiwLROuKZLmmaEZILr2mQMadAR5btgld+AeuLJzLKabBQkvERI1w1fygiY9E6LuIHgYjQUMAp89icEp0YaSHL55hYFcTH7lxtYMVB8pxsudCOBVW8mj3EP/SdSmcb4aFJv6oqGGv2tQA3inQSnBYU7srETyADV1CM3NmzT8QhJfbgexw0wSbFcNvkKvAL1lXWV+lkoGhWUI0G1wNjCyPmxgL18uSde+TABkPqojXQyyH0koP4WXDEjdbnZP9WUx7/2S4JM2AfXRIQXhm1KICij1ZxU1eWVhCASVjJvaY7QJFoSs67sUGu+CICcs9rRTTSBKKJ+KHrxSWM7HvsJdZzCEr+voo5LE42UJtiQgE6HMj4zHLLPbWvog7VQkqnyZe7L6REFQW4r3sq8TsHPmy0mNHnzJtFffdbLUygFDlTisAVzFT0Sm66oDjKpA8uAYYWn51S+jrKwEzewH4VgatYgRenC0dKbKwy6DG9TQ1WYbVoAVwgGf3faGmtzMKNBf6DAGluxmQKGb8xl4FBCfrKcFhlaQT2wphA9x50woRVIcw4V4hflQO4gf1G4EXkLoSYB9OxWh8G3IFMHxO8QH8LqiQ6oawHFzbr0pDMvxYsaLRTEm2gqdsAMEziB1otnMowLE8XXE5aVS1gKaIBoKiUxEggdBYUy5iIfS9bqrgQNA1WFRvn+Rw3ig0HSg6loD7WneUcpp7PJvTQSkg/MvacghLe4F2fhecUUXhQeyBOqn3WOYxf0ihC877VbSElM60OVHe3gdzCG0VCb0QpSvIf5wkWIXYozhMsWYABj8jg84oderQV44wuK3DlG2iiIBRg3sNjnsebHAZRhKWb0U3QIQVCZEbp1KvsCpwXAHgCuuorQQxrhdmwgYXSlY3LpHkwYNyAiKMTMpLugvjXBlor3y2eQCFx2ABan4dxwI/yqOoGrKN0qn8fcyAqYAT619geV7HdbDkMDPwxkOWGWETM6qtgl+YZTovu0Vi+Xt+9uvq6TX9XQRTAcNGghO1WjZ+DwAG2j6cc8EOJAUBMcCF4wygM/7MCXHwAZBbj4EOcc+vBLWUhPuYki4QetWOg60Lqr/HzEO230AGHU0wjqEt8uJnK/qLoWEEUqF6leyURcTjbgrmI3ZLn8sghqGPIxwYrNJD6HoaY5j5L1wdObF2qjwL0wfPBQpgGwOSQVMSPHyZj8cCFR6cQUBL535w0gMpoVpyVa0LHBW7KgGN1JgtPeYQbn39VVE56a4MU4Fyc6YpDggQnB989+n15Zy8rkzbH2pcrs9UjuFUEK5bG2ikAoRh2S8TqUkeLyC3ypwhERVDqFgUBbn4oV1OpLBLJIrxxFRelu+xv+1X3i3Tha3UWjrvKmIONpz29Xy5+5xRpmGAgKWqX2ogs6K54pjQe75RREyx5y/snScJpw3SAmgSnOcacBKW6kZDJC2y59p9Hy+yrLFj/WiVzEJsYHIwdPw/iextaJVNoBIuElTwsR2+bWqzYBedNuQIOk/vkyS23SSp0CJmbw55iFSNK3ytS6p+EAAA3fklEQVT6ZjEbD90Aqd/IID58oRCUC6ZeLWdP/mvOfkzmIrgd/XmV8Q3aCc6B+kcD4o0fads74SjkzyBEC3VSCFVAKGLyEHRdBYBUlmOERWHJA6xd6GBsldMQBhrVdxoePKtpJVOBhiEG93MyeaSmj0o7FO5Z+GVFTrflhnmTZd1jKVn50F7pOICEs2MCcuFfTZOZF4QAVq3qCA8FyAysjOe+t0EWvMuQGqSxj8ODOt7BoE44dI9MRcxfQK0eAatY6Kf1Rp1g8btyvmrAKif1B/FsByb6t5z2EZk57Vx5atPPZEvrKnh2xyVAXxo4RvqwsAtGHOmZqNPwyVjfTLno9L+ROePe3j01k+DFXk8fNoimDMOtWDwwz/P0QqItIbtfrEcS0CaJm53IugPRB0BFMLNpTaNxAVYzglAGpyAIYD4AVy0SW7Sti0n73iTcOryFWfmYTb99HPCGT8G+jZY89dOszL2qAd3LSGcSEUjMnTL9sqhMOmuavLx8j8w9e5JIwyHZm9wPj36AuzJIEZ8BSjgojkje0t5JAIRlHbJVkVMlML1RX1WJYMWJpgFrGJZbKR9BHRSlHAa/g5FLJoaRS3Dut2RD6xPy6LYfyM629dBxhDEZcbwCvkoxKGbnT71RLpr5AcWF8SaGs4IHJhTwpWzZ0NZFiLFoCYYLyx9u2y2TnvPLAkQpGAUP8M4EEuzCqM9+2RCNYLAHgXLIaehIKFAjbpcpz/z8kKxfdhA8BaLbwg+NHGjlM5jkkpFBiNnPMeg8WrTpBWS1ecd4mTIPWZvNDjmA84N2OCOnXIZjNJkt4iKvoFmACwLAu2dhTeSaaHg5rDXoeUGVvK+iKVuJFC2PMEGroDoUS8sfLUQIlXNS02KZWHuGvHroCXly0x2SxC57+rh3yDkT3y/NdZNwjbfT0vrNQ2PV5u1OUz3N9PSlqg1EZM9LSblv3QGZc35U5l1ZK8E6nK/rhAUMTsSmLwvv7wjSh4Vk3cOt8vwj8PLuYr7LIOjm+a95OiFvTlU0cKG9LnwNbTqFgkUqtI2Sx37cDp2UKwuumCijT4XeKtUuSQCV38forZwTjENyJGDR986CT9YbOalKXFV9tWmEAhZtDUcOaF9EetN3xU2KLA4WkFdel//fdH0vHwwG6ryAhbBbowv0xcphgVpoS9iol/lj3gmu63Ss7qw015+CJ+exiCFWwG+HzyRXxSihRXGhl6YN0UdF+hRfj+Mx8Nym4tlFerUQcgAIUsO9/EhGtr2QljOuCOJQOwAJB9nNXERaXvLJs/fskUO7DIRYQdZw5JhUT6ZzMd4MBKS8Rc67ScHBjFzPPhfr6/nZm9+7EPG5uRQQBI3hlOiVUmOH5OCmnNy3cZucvCAm899Zp0IoJVKdqID1InghdHYM4Q3GCtME4YjgcVrtYEXqVD1gFQcBw8n+HLNgj8GVuJYTlx55LNy+B1B4NSHPBKei6qL/i/KqO0Y9WCm8zJuq6s4BPPX1S+kEqAowi8UHQUd1vzuCbXPNDO8L9Rs5ANWhVf7B+5jFV30xiF9eJxSX0q9a2ONi6fkeLVKVHPlZ8cqer16PKepxAXLaYvzgUxQJQ1fX7spTv2yXV5ebsuDSqbLhhRbZuuKgRApNCLsC/RZAzlPLezUWyVd87fmco7/nvEE5dlP7qAI1HJ5rrKg/lYEjVAiLq3G5uovn+uArhZSz6CdSzq2Ly2mL62XOW2vgpZ6RZFcBB6YRUgbJLthmA8YWGh3697yjN78Svql6wCoLEdUEYop1eJurCUh9CBWXZWlNGR6KZcC1V+7+klPEpsEjK1H4HHVsT8ljt+2FeR/iX6AZXAX0WpSfB1mKG4RSUhMBylzYHp5uoH3BH4C+MuXI6t8lZd2zWVn49phMX0SXhTTCRXNn4pXMHn4iwJXHKJSZ/GV+/HEsuuItCqS6OavjW7wVMPuPg/zkTIqL+DhuL9ktdNsg3Zmd23W6JITzcUFswTFwXYwq0JOrKslDARB8Xvn7TvEWuiqlWGdWG+Q9DAckj7Rzf/rJHnng2x2S2hmQproIMhXBiRRw1c0floQM5ayEkk3VlKIQpQBDrXXuMhgOmGUHto963BD1P96RUZCgyKqjXtavUlN1f9YbrChdSvfurYCLZxn6UdQura5DrUVLjrqVv7rrOFxVj8/6UXfpL2FrX2+xqh9NMhBmhKClvhsA4RWdcP+RtVJIx2f8NeACkQdjb8Dyx2zV1M0xoYlDQwQjMqjwogOuFDf0XBZUVKPP+FSpH/DH8TSVc83FgfXizWp+oU6+EkyKzzh2az3uSlWEA8/Ua0HLBR80hILGIe/GUI20bbDlXoDWYz/rECPdiNAziOTAZB/dKhAVJIB+VuwU2TRV+Efll54jM2ythRED6bBhWu5W6NDRUc2IXlpQ3M14TsoEwZm5gweeCzlL4umUjJuNkCFQMNNs6+mReqmkx0eMzsAsN1BFI5FnTiacZksyzdPsYJ2xK3vxgbr1BrhPEeiNYMSxRZt9uAfuLgggh0q7syP3eNSb3io2HiDFoIImlKC706961zDrDSIR5KE4Vxlt6AjJTMj8G+x82QoV3GhDFm1gXAD+5zjtan8Zh82p/ObhYVKo7yWsYpChBl7FfJQ24s4XQGsL46gO7aIKHh3i9sHFxJhNhzcQfHq0wowuKhYW68aC5W28H6sYr6yPJtGBF+94CvtFDo4zi+OCtiNaQRhtz5MuR5uwxcfxdrQJs1ZF6nQx8eqacdIAoVBNuJSoeYZ2M+IGo8OqvRGnFtjqvgsBk/0iyHlgSpim/1kBusoc6oNXi0RwIHr7E3l54Ks75ZUHkhK2GiRUi7YD4HgQXB0cV33ynsgjP9VQSNYyFEzzbvpwQhQV5701pPgdBzyHs04mlImZTrC5cBqcf00tgvA34HwUIIir4fBu0VtN3meKoyJnA+fCNIL5L7pylJyKqIopqxOTiSCEw59oHIYWEw7RSHkbAuWVqvgAVFwQTNm+bscz8sTmWyVpwtkTYY9tpoICPQwoSx0TvjdQLhsIPleuQrHDwJnFAHRC5AOYTm/Frt/I8l3/Bf0Q2oUjHQw5olCsr0aCpgYWExOL5nM5Of18uCE0iHTC1cCmDgp9ztMKxoXLjYy+FwNaP8U5xElQfN9Xg/r+jqFaGDDQRLtsvM8j+0482yZnICSzA2ujD6BAIauvUtxoi/M3iRj086+LyJi5LrzV2+BPxowD5Ay5feIQuwJBKMcH1vE3NAFtAt28XIJ5WEdxzjARk+VIxnHPN3bLXgSabYrUQu/F2c1tiKcAmAaMYuXxgfsbGjDkf1IrV5Jy3YfmXdGafm0RFdHcA/qccSAqpjCWA7HAlG1Pg61FvHXGNeqtcLNkOJU8fE2ybhLhMEJywUdjMuN8v7TDaZBsNcNpeKX42ltNajrjybQpei1wEO9n5qIamThrtHQc6pLWFvjy5OhciMWISYRLIWpgUh2uH/XiEWAQsGNaMm4hRJE0dCi4jjDXdyFHgIWAy+hp7CBm0cY9y2XT7uUSjdTJ6Jrpql1MWGnRe5vPpbfysart+6HH/S39nmhSNwCyuzrWyu9e/rI8s/lXksXG4PPhWAyBVjWu7waqw7S4xMb4ZjOI41TnKnM8zfAtu8AdZENYRKAHnDlZn/LCJnD3pPlx9+I4bgRoku5ZRDXowqZWPz4gl394lIxdmIN/G1wGshiTo8zV3p5mwypAp1YXOrY5547C8RhDDuxNSOdBxmWDuIbJo/pKrpWY0zc5e3vEEZ9xfqtYYJBG/PC9CuAZuU6/bFqNSK1b8tI8NiqNY7GemM2ZXB7mpEWxZ7APRitUP7qXPxPuNkemPHvPj1c9ckQDB/FHWQBLARoWAxe5HbBk21MOToyDfe4xCYoDR5+jPM5CkRuqmVyQ8xHL+9RraKZF7B4cT7Bosid6ePtEN1genSLMsoMZgoXIAGZsA+N+I8NMY1xOOi8q9WNq5OCBNmk/0AEPq6gCF8YP8kJ3sF7MJvw/HsBiDkU1lmhzgfniwFFYgYC058G2v/ZH2du1BTvgeKkNjeKyxaIhX0MxCYQqQ+Hz2+Ot8vC6W+Th9V+Vlvgm8SGkNELEQYRBGnNMcEaMOFah/oRFZfvBGBfAoTjwzp6xMCJjp4VB77h0YgHTV0gBNa4t59EQSpVJxNC263Ky8J0xuejGGrEbU5JEJia6hBQ4LuSyjgEspI+iUXd/CljAaYj/zbMMOeXseoysC+A6JJkEQMWOYC7SmneMSknIYxVWwU5gDhWwkCyKpjiOFADt216zka+ySxKtBRk3qVkCtZA5EN2B7DO5wWP16ZiPZgVDCFhY7cNfFAqDw8EUBrKDUHZCNUKBCc6MmbB6ODj7pFJ4dUHXNCor51wxSmaeh10PC6W9vVNCWDYORA1GgOXiBqnxQ0r1XRQA4BLqEHzwDFZmb+wwmSR2HByBGD8/J+Pn1iEVWEFWP9AphS4brDWehfYyaKM4SClWiOJvDDTEVAv38tlqfvT9aHxLzg5VgJOwMPPZWk6SEGJyO9h9X9p7v2zZ/ZQsnP4Xcu6MD0utvwkXQCTBTUoXAtHBQMztEjhSeZOK7YWFjQ1xQUivPxBD8byCk5Rnd90pT234uXTmWiQYCUrIDSlRxgRniPWKtpMg/aE5OTXVCTwHtIL4wdRrHUhs0DgrK9d+rkG2P2vI8of2S/wAEovg7Bz3rjzucanz463qeXgzqEI4gA6HCiMo5FUiBop/2EBMdIip01IpbGQYi5Pf6pMzr0LyhmhSOhAdIZ+FXxNijzmM0wJOqD+AWhQHi01mRAVm4EYOFJz1zMvCdwXl5PMnyOoHu2TryoNiI0uNHUbfSVfos0hblXm5uwJvgzg2vTkk5OLZT6XvxRyiusTFBI5EIQ5i3Wx6JgeH281oQ51MnR+RBMB0sNQt9nMoX8sCWIqY2E1MBh+j3gYFBmlMHOxgUI04QPtUGslAfXE5/bKQzEPeuXw4gRxsWCgYR4ZJyZEF62Y8CBjeujn2YDKTLgu5G2Vh9P7CAsHnWEzJTnADYKNnvcUnM+aNktUPJWTTs9j9MybEFgALvMkz0C85EG0AeVTL4jNm46Vuqu8hZ5NZyDAVwZV3MPU8QTcC/QI1C09su13W7X1Szp72QTlr0rUIxIanAChdLJgs7qVWq+8n8Sl9FxdtzjE0DeIp0SvaMboQiRUpowAmr+55RP604Q7Zm14PrgcKXBwc9vRKAFzQz+unt+H0/RTvW7Wh9Ow7Fo6Ca8yBVNxQh7YnXmDLuNNGySuIPrD2yRQiDcCjO4poE2BlC7iezqKDT5XOtiNkMEU0xkfHKCjVAECE4YIzEMEnnIoziphvtTORMi55SKQDQGWGFIAyjRonXf82pzdThrolPk9RDtOs/RASotY4cuEHbTn13GZZfl9cWjal4JoREQSkQNA9XERaEbhxr8cBee/fXPuRnyhDBxuqpA98B06YY5fr7ncs5JfONkte+FM7ON1mb0Kp+ds9UEdWVzF/lQWwKBJ4abcBQBgMEyZpC+FeTaSRTyexkAqdMu2MoMxDfOnwlByUs4fE6oCsD67E9nVbhsiSE/lKXFgnj7IkEmSjbYTlqJeTzo/Iiru6ZM/apASZgSTMCYyJTJkWu6HBIyOqHYMbbE5IeqX7ozFpy+6WB9f9q7x84G55y4x/kJmNCzHZATD9EMH6RRK0m7n8TIQWMZD+yzTqZA9EvidfuUVebX1UslDMhoJhtIfcFnZotcy4Q3jiXb+ecdSLinQCx4MqHfQpHofRIdQm86+PysyzR8uyB9pl5+ouqTWQsspPrgdGiO7N7ajV9uMLWseYk5CZhrAjQt2AfJUZhGtpLshF76mRcXNhNc60IhoCLM/KWxy8NNNjqeMBpZ1vBlQNFBPbuyyJTHPkis/FZOcqQ1Y8mILoZkkduFoDmwnFOvzHPOtHB49yCTk1ArQPOxCP+XQl02LVJOSsS0epCKReuOiywMFRWtz7x2VpoSIdrF8qZC8AKI/oiekOyPCBpNRMysvlNzTJ+DkuWHHE7cFgchE7FmKvY9Ew0QAXNmNO95tF7r3vR/0UdkIMLqK0wKLVGT8koYmGvOX/BGTPcluefyAhHa9l1Q6dZrRHmKgNsNhKZqFlUd151KqP+QUPM9N73obS14KVZzuyO//3cx+S00a9Xd46+yMyOjb5mHX05wID3IJFwAXwJvJ75KmNd8pzsACm83EJxkISQ9x7btDK/RLiotLdgPZDoU5jkk5HUsgXGJC2NBTFTQm5/ONR2f1CUFbe1ykHtzNXHrgOiGoc++Mv3OzA1YCNd2D5S8HZ1K7Jw3pXI3MW10kOYlp7J8LPENQgAiqAsDAe6tDw8T/1aHeS84TMCxhxAJIJxT03n+OTt5/RLOufbJOXHuoQJxmRILJ30/ZC5TjdIAYMXJjMFtwZ6J6WSHaJEcvKrHPHy1lvGydWQ4t0IVuOdzCaG9MgUPFoHS3h52UALHJU9GthWFco1JFi/My31ssa6ZQZZ0bkFLxPwnLXghTcTJCJdGoKDArcIbrnqgqQj4Hjv6HgsjCNIIIhNAl0XHnExC5AKZqBqX3cQksmnTEKB267ZPsrSZl97hhJ5dqVsYD549CxQQ+No3K/sV+oCh0OWgByBFlb1for2fD0H2TxSTfKOdNuhJiIc2Ng95UPDxYxJzE3gtcLifX63/TdoTiiGCRVt0+yyDyzZue90FP9TFryWyRswzoahrCG1eGAtSI4cIxIb3IlNIoMCi9eb9wR71gnIJErEs+GxRhhfNMIWNd4minXnlIjW55B/x9qk1SbD75z4AwBIHnonug7xwYpWqGO7unhvele1YoC/I5vqA6A0YVGFgdZoWdfGJG5V8TEHl2QTrjKINElJGLOMxhh0Gf6mVGEhJwM2g1+Mzqi0+oP0BNiKI8Q2eDSnZwtmXZYhv1tyrA0ZX4djtx0yq7nIR8j1VYoCA9+xmZHh1WoGCr/ySVjniguGJ+rOYC/XermQB/SlaqPVCqDz9IyfT6iW0A3F5uaBhfZgnye0JtBJ4cK0aLX58ub21oZn5SshXcs/eCt69ue+1Q4zBAe/eu8IjomRgDnKaCmAbnAqnYgsFz3Ihncblo6AiuLEFpHgOSkj9bASomFksOiyqbZV7S9BGD15hZzCeK5WMgECzpbpsDKj6uZJRdP/ZDMG3Ml1hIO/xYgTjOLChcwxAxXcWnk+lgjCIu/6YJquQho58S4/mTb/ufk8bW3y+b4cjHCaQlZNWr3Vn18c0OG/RMq53m4nP8iEJFTbba8DI5j89JOsbJRcJ+cugAt0J25FnGx0gXaADNaYJnuCmRDrwEI2CDppJpMwdEXNGieZcpZ76yXpplws0gmJYf45z0z8Ax7Zw8/0BtvSh5ZRIgNQgEfhfph77q8vHh/XPZsyIE7DIoPQ03gpbRhkgPEeqFqhYw+xBXMF+oaoevE3+k0dHMQ+5un+GThdaOkeW4Gab3IzQLsaNDAv1IWZVDDcNCRNw1R+7TRF938vvk//IdSPaMMHNbrTeciJ9GTUKZzF2epNLDyWuuBleLsAFRdbcyBiM+4u+NVtV0tDk64UhZvMpFOXjwjW2LRiOwvbJFfvvAvsrLxbrls5qdkStMirl14OmMnhn6CEUYh12BvpVWRfnHwU6OIF/BLS3qL/OmFH8q63Y8g8WYW+jIothkbHsYv5SXuDUMpO3FcdTFRbI7cB9qTQPZiHzi/hTf65aQLx8nquw/K/hfBiUBkpp6RCMw9ksdUMCRqsSqCENCwaAu5sDrNUDsqh6B/NYhrTqsY/KAwjgEL4j/1WRVRvM2Jlm/2P5spSHsyJXWTRS79x5hsX45Dzvcfkq49NhyPPT0c1wt82zF24ADhnuBDf3jGsoCs6O2JTqmdbMvZlzXJVMRyT7ldsq8dXCT+WdgAvYP7FdHxfjeibICluBYsRC7GIsoTvOiLw9eh4Vj6TZcjLiyKQt6O5olIvKDY7uHgBItg6YB7CLtBKUAi3JhcCcX0p2T+uMvkolnvk/rgbIgGbBlzLWJoqaAHfaFVx2TdLys2/UKWbr5buoxOCdRRVACwYbJ7DAp5sEpZuMBdOMkp1w9wlRbjjkO3lYaDbnBMXi799AQop9tl9X0d0r4fqdqRut1Haxi6DPIA5AjaACv0js7GTqhDTruiVk6/AgsbC/0g9FT0DfNjcVPpDvJUTOG8L64NdXQJCJyFX0tnV0omnhWVaaeOl7WPd8rqx9vgu1gjIT8AiolOIfb5YM1kf5IwGIQbc3LOZRGZdT445xCtrp2gCeKtwrDF9HDcCsFzV0y/+9uQsgFWb4BEsCqWIgdT/Lucr0VAYpuLYFqcVGwX33N1FAGs1G3t+SwCl0N+H860MSsMw1lKnn3t17J+z7NyzvT3QL/1F/BurvWaoBi0tKx57V758/pfSEtys/ihUA/B8dOADlHpjTBt6dCaRx/ALKqJXOr2H099XnIJ6qdwUo4gTP0TGgg1DLSd+6X5TAvK6bHy8mOd8tKjMNp0+SSMBauYJVyaAbjxGNbERT5Z9PYxEpmQkkNtUDi3+6G8p08SdVIAMMXZD4V+6nh67d1TBC2K50pVAtAKgVNOxJHYNJCXWdeEZeqiabLqgQOyDcAtKRzzgStEHHoqCSVk9qUNcurlTbB8pqWjrUPsONcV/YVAGNDE7dZFqulx/M0sy51lA6zeelsEBn7X831v15brsyLQFl/Zjp7vh6Jdxfo9YOQ05gFwTEAqXCH+BZGnrsvcJw9vuVleeO0Pcsmsv5YJDXPlUHaHPLX2l7KpZZkYEXBmMab3otgEBSwWAHVEVKazfjo1VhLN1R7QY2EBuhRp1eF3vM+CicyaUE5fFZIZiybJqvsOyvaVHeImGc+8IE0zDJl/9WhpPp16nIQc3EdxCTTDcSJImgBrcJZYvzxcTt1ppZXimDs5gDSax1Ay2C6VyE8DgT/SJZfe1CS74HLzwoMdcqjlkEyaHpT5l02R+qkIF506iKM/9OFipFlyYBChFTjTFw3jjUorabz7S/+KAqxio4uDVfxbv3oUKNKFWU8IWkV+yEu7Dj+mqCP7u16Ru5//ZwkgPlICq7oA3YZvFHZYepxipz4s9oFj4cQt1llpk5fcKvVRhBQWBVcKYJTLqfc5Emx0QYHsQ5TNS25slH3nxWTj2kMyprlWpi+AtdnCooUjsAHLH081kIMsJp8tGhcqEaxUh7t/FR2dlaQPYPUyP6Mf0LC3tLZJ3aSwXPqpBkklAGK10NVlkZgCB619cLlRztAAZII99XQePQnWnv6153Oq5X1FAla1EK+87XydoXfgH0+/rTwiTPoRBYI5+ZIO/I0C8MSnuTwLfQ5Wa3HClrfdpXs6LWR0J8nhFEIrnD2j0/wyf2YMRlEc30rvwUJFfHdyT+AgK0nFMFgKEMwpJtOgkMklsTHhEzjKpdsTUNbDCRsATSudV16fJ4N9biXcrwGrEkZhkG2gVQmaLUxj6iqoVGUUAOg7sAvbEB15JtOBmFTkVgb5uIq5XaVth9hIRXsBqa3yaVAB8p4B8ZbOv0rmA0nIPVYaB3n8RKSuUdl9lajIs7AqThz6SK94CMvQZ4Emysfh+J9SqXdqwKrUkel3u7BayUVRdMLZPAb9o8gojKiAyZzl3zikTfN3UYTsd9UVfyGOmVAhBYsf3QA8Ky45THAY+MyEQyZ9korlROCyPMMIBVq6uqDr4Kw4vkW3F0boIYDT2eFELBqwqn5UIQ7QCUkVKs6LHSKnQYjCr8OfFb87QV6hiObChSOD6jf7y1juSghCn+ml37OcCFwWx9frM7gsdo/cI1481xvvmxNLCOw5ggRiXTQFNAU0BaqEAhqwqmSgdDM1BTQFNIel54CmgKZAFVFAc1hVNFi6qZoCI50CGrBG+gzQ/dcUqCIKaMCqosHSTdUUGOkU0IA10meA7r+mQBVRQANWFQ2WbqqmwEingAaskT4DdP81BaqIAhqwqmiwdFM1BUY6BTRgjfQZoPuvKVBFFNCAVUWDpZuqKTDSKaABa6TPAN1/TYEqooAGrCoaLN1UTYGRTgENWCN9Buj+awpUEQU0YFXRYOmmagqMdApowBrpM0D3X1OgiiigAauKBks3VVNgpFNAA9ZInwG6/5oCVUQBDVhVNFi6qZoCI50CGrBG+gzQ/dcUqCIKaMCqosHSTdUUGOkU0IA10meA7r+mQBVRQANWFQ2WbqqmwEingAaskT4DdP81BaqIAhqwqmiwdFM1BaqCAt2owpzUjlPMSl6almvAKg0ddS2aApoCw0ABDVjDQGT9CE0BTYHSUEADVmnoqGvRFNAUGAYKlAywIKlaIo64Lqs0hqHp+hGaApoClUUBAwiQR5MABcAApcMqGcJ4PS1ZdVE71i4mYMsorZKtsgZEt0ZTQFOgLwq4Ltc/YcUVg7jlGG5f1w/0u5IBlmFHV5ni60bYgTZDX68poClQ/RQASAGlHAdcFpmXrCsRq2l3KftVMsCyrYa1diHabmhpsJTjo+vSFKgqCpgQBy2rIAXXFVuCruSd1aXsQMkA66XfdW2uD49dkctBKgRqwQMD7KCJ9+QIS8oVlrL/ui5NAU2BElLAKThY89BkAQdG105aNWvyxWtKWL0SNktS35IlS5yTJ73t6/lMNk/Fm2kAC10bsFVQHSjJQ3QlmgKaAhVGAU9nTcnKMApi2WBVYHgz0nmZXrPg63PHvC1RygaXjMNio5b/suWpSZGFt6fSabCE6IEvIaYbFLdgl7LNui5NAU2BiqEAdUDkqgBUBUPyhk/imU6ZEj3pN42NsT+Uupkl1zit2HbXmKc2//ShNmfzPMsXFdfJiaVERJoMdNEU0BQ4kShA9Y/j5uHOJOK3gtKVikvMbXxq3sQrr7v69C+0lbqvJeWw2LiFU2/YNzW28Fqza/TSTCYD0yb1WSV/TKnpoOvTFNAUOA4KEKhYbPAjBKsaGfXclNhZ7x4KsOJzhgRJrj97yWujwjPfMSt83i1uXLKFXFZMWA7yeBo0WkJpEf4ZSrelZN9uRzM2SBdNAU2ByqQAuakC/KyoVKdRjXpqCIHqXyaTz08MnvKzYKDx3e+/8Ja9Q9WDkouEb2zog/+/vSsBrKo60+dub0tIQlaysTSA7Iug7Jag2NpK0aEw3VS2gkhxQREQmImtoFiVTRy1RVpcoLHOjOMMAy4gaikoAoOAMCEJSwKEhIRsb7vbfP97PCZK1CS8l7z3cg6ae3Nz77nnfOfe757zr0efuulI2d8WV9QW/9Aehw6qCoTxsNdQ/AZm5MxtGvg9JNT59dbw3zkCHIGWIkCW6z5dGggLCyem0gzEpcHWKvHj7JRxT/xqaN67La27qdeFnLCoIS/tm6V4q8tnVDlLH6qX6nraHDioS2BnK3ZIq6CCtYmxWqU5uA8vHAGOQHMRoNUfvaa6rjPDjWWgIhUnsG7PxCQl/2H20JdhyBD60qoMserf7kgQk+TFFXVF00HRyaKswZOHWBvWsb6+UnO4zVboh53fgSPQPAQgwIEAyWRetZ7JbpsrM2bgCxlZg1dNuG5+UC3Zv6tVrUpYgcbkH5o9orCi+GGX8/wdusUtSXI8sCDplgq6UpgpQvNg6BCwtUnzAs3kW45AO0NAgFyKAhj4Fn9+t2Ba+IgiU6Ht1+o11iXuhjck3fbs7JtfDqpBaFOBblNG2Hromds+L9n2WI1SONquOOB+5ABYHh9gogjiCqggmtobfh5HgCPQYgQkmihggWNo0OsrFqz/VCz/NNhX6SyGpXzeI/7WvMnDHvvPFt8gCBe2KWFR+7cWrI1T6yvvPli6bVGtVJ1pc9iY1UWzLPgjwYHSL5AnjSK0i5zAgjDkvAqOQOMICNCAGRK8U2CtTro/5sZ6xx1TnCh3ejExKXPDPcPWX2z8ytY72uaEFejq37/c2PVI+Ydzi2sOzNXtbrtVsjMBgnmSaZFUi6JWcE1iAC2+5QgEFwGfjAqSZENUmapihuVVqq5LuH5LfZW+fM6ETa0qp/q2noUNYQUamb/ngdHFNUcWVGplEyTJFOxWuPZgZqVDpuUvYdfkQNP5liMQxgjQe+P79GMbeIcCCi5Ii3FIxTumw2s5w9J3VydHz6VThi//JNw6FGh52LVrzQeT71BNddEF/fiNNgsibalWvyYRmkVaZ8NREf8HBiDcms/bwxEILwQMRE4RoeUT8c5QJhsBDspkwG3AsohWLx6Xm6Uo2Ue8deKy6/v22PqjHus84dUDf2vClbB8rSP5VtGpnQ+erT89S7XWZtqlWERfRZBACAJFGZa24Csu1grHx4q3KdwQoEgKmirCdsrGNGjkTWjkJWgAVY+bifVKeZfUARuH9Zj07MBO/3Ah3NresD1hTViBhm7+e15Xt1i8sLDiwAwoDxVREZgX0ywZLj0R0YFAR/iWI9BGCJC9owGGIqpSLCrzIvyLoIrurh16/zVZ6r/szhF5J9uoac26bUS9769+/ODYc1UHl9bI5282LHYmwz5EwNfC7xIZWI83q//8ZI5AlCNArziWgobMdNkDwsL7UiuxBDHtw6ykoYt+PuLJvZEEQEQRFgGbl8fE7NyHflrhPrCshlX0kxSKI68z2bcgl3zmECIkiCTnIncf/5KRk1kkPZS8rc1HIGD2Q2ZAcBzBOwGZle+x9+IXB2ZXXsiu3MympRZ0T7nhmayY1M2jey2sbf6d2vaKiCOsAFwnLm7Pfvvg2vsr60/PNq2sgyLaIdeCpTyIy9DJPBdfEthyCb5IEIGr+JYjEH0I+EmKnnmS6cLVDR9smFIxXZCRBwIWVWYt7Kkclzpae63Pju/9/JQb885HKgoRS1gBwHee+Jd+R0vfW1paXzBFsGmCLMLwTbeAqPCFgaCRG5sGkOLbaEeAiIuKQBlr8J+uyMz0mCxJ6rxlSLdbVnw/Z94XkY5BxBNWYAA2fPLgbefKDz7qNivHsjiaFktM1OBeICIaIv7xwhGIZgRMitOEz7Qsi1BI6cyLlaBDi92TEdNt1axxr+VHS9/988go6M2M0av/O85q/+GwnH+8x6onFXg9Lljtui9TFabJl2mLpsu8cAQiGwF8gMFPZJ1Oj7OJWOqUbZlMfSifgqRaTw/LGP9QohQ3NprIisYsKt/ed/evzDhZfXjOGffRez1iXbIDjtU+h058fXRoFYmlTQMmEdjxRU/0hUAlOHjhCIQ/AmT8aeLhpdx/tE8fYa+GKZVbqUi1996Y3bHfqklDl4Qs6mdbIhSVhBUAdM+5/D6ffvnvi856PrtLtnRgFg1fIcXNVKQf83M1DTaF04iaiWag63wbpQjQjApBFSBMp9kVnl/Ty9xer9kldki+4kx8atatLxyM0q77uhXVhBUYuNc+vv/OIuenjztZdX9FhjYRwklk1IbpA2ZbeAI4YQWQ4ttIQIBkspICJ2XYUymehM+6pA1eOXXUmrcioe3X2sZ2QVgE0kvvzYqvYxXTPObFf7qklXd02KFNhByAAumTKQQvHIFIQIBmVV5Vg2+t43y/TiPW19UKz0/LXX0pEtoejDa2uzf1neN5vQpPH5xX7j45zbB67Da7A+t/uCsgpAYUi8wD8oIBPabaXLMYjAeM19E8BPwGoHBOJjkVCdbxMGI9QDJ1aP6g8XYKzgxr11c7dR78zJS+eSeaV3vkn93uCCswZGu2TxvpZKceqdMr7oSPD7PAZkXVkA1EoTjzfJkYwIlvWxcBBFLCrB8KoStCdQjXdfhyaE6WZuu6K9E65LG7Ri7f3bqtCp+7tVvCCgzBlv0Lf1ZcumfJRfN8P0tHZAJxx/m1iAhk5hfMB87kW45A6BEgg2dyUDYFDd9Rg7mRnNRmpB7NtA55sruUtiU3Nw+hQNtvafeERUP/2tZ5cWoH95ySmkMPeuXqThLiWZs+TSL9NbA0JKgC+3ScF45AMBHwP18CnJRNq4epLgOhwjue7ZE+ZE1K8siXxudMqQ7m3SK1Lk5YDUZu+7F13Y6XfbzwfG3BVMGiWWXECBRNpCDzBTvDUvEyidHXjwKg8RlYA/D47nci4DPyxDeP5FSGT0ZKGZTJ/JPcyPBMYeuFg7LqFFxp8T3+tWfc6McnDH604DsrbkcncMJqZLDXbb1nlFMpfbJaLxlD2UNEOJGSm5aEhK8SYgppIDFMwUgUygtHoMkIkIaPtNIqZFICjKkoS42uQ2qFrQB3GsOjskQl+/0bu0564qYes3Y1ueJ2dCJ/575hsBHt1Fp54fTkwpr9Czxi2QBFpizV0NIgCISAzCL+wpeI3wAfP9wYAtD6mXDIl5DnnYhKIg0gZuoqwhMrrENRZsqQFYY0cNPsobNbJYtyY00M92OcsL5jhF75aF5KvfPkvAp2foYq1mfIdgkaG5kpMH/gkSC+Azz+568gYGIpKMIJ0IS9gsIszAkPZd00avsnjl0vMmn1L4avKfvKBfyXqxDghHUVJI0f2HpkbZ+CMx8uOucp+JlsY4qMwIF+Uy18NvnisHHQ+NHLzwbNxEnzB8LCDEv3grQ8dhZvSfyv76UPfWLSwOV7OFRNQ4ATVtNwCpwl/HHH3HFOo+SfS1wFYySHwBQsDwUVMi0faalk0sU0aHp8O1dSkwUu59toR8Bv+EnOM/iHZ4FCU1GCUspAoEkwWPAYLIl1/jTGGr/CaVPfnT/yTVe0YxLM/nHCagGaOy+sjz13qvCXhWWfLPAo9TmYb/nib1GQU3xAURCqGfGzBUSE4KV9IoBsA0yE94RmNSD5RKYar5PZvUJZZsKNv++eNWp9brdp7vaJzLX1mhPWNeD31r7H0kuqTsyu8B6fo1qdqVYrlokqZlymDbUi3AdfKl4DupF9qc+pHl3w4DlQvLLXoXXcGC9d99Sc2148Gdk9a9vWc8IKAv4bdsy5zm24Eab5wCQhxmOXJTvWhbQe8E23cAeSYXCogwB1GFfhD6ZHo0zLQS8yKFM0kEQjbdvArAm/+0H/h9utO00wB42/RUFE8/W9CyaXXjr42CW1ZJDsQOwtyk6NaJAC1Ngq+YiBt8hMkJfIRyAgqyJ6ohElORU5KOsQYqp1JrOYMfviLZ1XzR+/ZTP+TF8sXoKAAH97ggBiwyp2HsmPPVv30a9PVO5Z4Jbq0y3k5oPAgRKE8wYymCCdJSethoBF6j45yIOgyHpdhJkL5Q5w6y58lJSLOfEj1pua+syM0a9EXBqtcB8OTlghGqG39j/c5WR50fwy18npYpwz1oZcZAi3BgEsNEYUQJCsm/G0c1uuEA1ASKvFok9QMX6xuAs8H7w1mEOZapIy4E9xYszTM3M3tLuwLyGFu0HlnLAagBGK3bf+Z8nwkxcOP1LmLphkdchMgpsPFSKqAHGF4r68zlAiQB8bG1ONCiZDVpkgdH2/R/rwlbcPyHs/lHfldXNJcKs9A9sOPztpb8lbS11G1SCLTcF3mfInkk8ZyUBgBkFpUHDUX7jIo9UGptEb0Xf86x8U//j4HZd15nF5mENI/TJZyXha11I23/+jdZ5Gq+IHg4oAn2EFFc5vr2z9zsmxFtP+UJHz0DzB5kqxIls1PMrg6qMigKCFaSpcyOBczUvbIuBbqpNNHQ0FvSHw+6MlvIqICgaCPMqao6Jv2uhXsuIHPTuq+90X2ra17evunLDaYLw37Xq0d1n9gYU1etlkGBY6fIJ5COTxTiDOPJkc8mFpg2G5ckuB3GegKBEkaHkhqzKg4zWx9BO8khkvxv2lY0L3p2eO3HDgygV8p9UQ4G9Gq0F99Y22Fa0ds7/wzZUerXqEKSNGkghtou80viS8Gq1WPAINIIkaNfqIGMhOA+cZh5z2Wb+Mm1beOfC37SI7TSui3axbccJqFlzBP3njzjybx1swvUw7Nr9Oqs+xW2xQjUN7GPxb8RqbhABFVJCZV6iHk7LJkvWco3YjabWcbnl99tCXnU2qgp8UMgQ4YYUM2uZVvPajaSnJluQZx6o+eFi3eJLppZEpXC79QwpyCkmCuJTY8iFrHrJfPZuC6BmQSYlIkXQ56CeWfjiGhLqY4gJzpHs365nkiav/XsKNq3vmjHx5dMbdp79aC/+trRDgT39bIf8N983f/VT/wovvPu6UL0xUFVNUZAskWgpkKshFh4BvNPcyKP8TLy1CgAw9/aTv1wJKEj4GkE+ZcKfSWB0zXJqZZB24ZXjvm9eOzvo1D/vSIpRDdxEnrNBhe001r97+y9t1sWZRpXZilGBFeDcRFvOQrZB7okk+Pry0CAEfhhAUkh0cKWQhXoesCjtuncWJcYcyk8b/7lc35P21RZXzi0KOACeskEPc8hvs3JknnzIL7ztVc2K221LdR3HAUkunSBBkJfT/P327/EcTEaDYVIhOBVcpDcs/HZYkhkcqTYvJfDFDvH71lNy8uiZWxE9rAwQ4YbUB6M295dtfLE+r9BYv+7Jkzz2yzYilaKd4zRDGhpyroXmHDMYvm8FSUfRb0gcorbn3iqbz/aQOs1xaBsJIlyZSApaA5Kdswp5Kc0lGTlbv19OkfosnDFpaGk19j9a+cMKKoJHde3rz0E+Ob1pWoZ/5iSkjIoBiZSLCbukQxIuwF/JFg1DszEvZffzxmyOod8FvKsmrdKyhJZXUFTDQBUAqTakQS72DkbEtM7b7U3eP+8Ou4N+Z1xgqBDhhhQrZENa7afcDk8/XfrG8yjjfQ7DjZRTh6kNhbCjCKRyrRdmLWYTfoiuEzQj/qjGTEkDmuoXkVDoTXCLryJKOpnTotnLqmFc2hX8HeAu/jgAnrK8jEiG/5+9fnHKh8vTMMrV4nte8mG53IB8LzCBEBncfzLB4IQSgXwVp1Rk1TPbGXegU03d1dkr2KxP7r+DZaSL0AeGEFaEDF2j23pKXex4+tfuBk2VHpgkJdQh1SnIthGm+okmkIW5/WkVaDmqGxlSvqWfbBmxwu9iKR378xqkAbnwbmQhwworMcbuq1fn7lowuKtm7rFIsuVWOpax3IC64ljBBgdMulomQNPusuC7H4rqqggg8IFJKGgqkh+UwgzDdF+0CTGXITuauFlkMy96e02kAzBR+/7cI7B5vciMIcMJqBJQIPiRsPbZq0oFTby+6xMqHWKwxICkXs3ixXBQkGHKTNtEfNDAaYnGZmEmKCi1/4aBsxCAatRcRLzwsRks9NiR7zOrPjh3fmDflTcoGwkuUIMAJK0oGsmE3th15LrGoavcjp6sK72NWM94CNx8ROfGMKIt0SqYcNLkityUNmj+rZqvpFNfr+VRH/+cnDV1yriEmfD86EOCEFR3j2GgvNnw8faAhOBcX1305CTIt2Yb8iWQsSb50kky+dBEs2/KtAGnW6GRqrenpHDMwv0/amHVj+839rFEw+MGoQIATVlQM47d34vUD908svLB/mUu9NES0kwmEyKxwqEaeT8y6YA5BBpVkgYoFZNgUapfPIBYEq8HODMHCyIVSh5OyP6EH8hDBncZmpH6UnTH42anXP/cfYdN23pCQIcAJK2TQhlfFm7bfFeOyCz8vV4vy6vSKTJvkgDwL9kl4AsjyW4aQHuJqn9tKOLScTD2h4wOZIpAestKIIFQTbTQhs/J4qpnDzDrRP/umNWp1xw1TRs7n6d7DYdBaoQ2csFoB5HC6xc6CtVmHzx6cec61/xFR1iCVJxMI6A8Nn1c1SCtcCizUZSvzaMjniBRalPBdwP+sJq42M6bnul45o9bldpt7Plxay9vROgiEz/PZOv3ld7mMwNqtMwbXesp/47Wcmq5ZXXDl6QhiQCjgMLLZMg2E1kHbTN3NTHesaVOTN3eMTX/uvnF//pwPZPtEgBNW+xz3K73+y75H7yi4cHBhnVEyXLGTo7DVF29L9Jk/XDkt5DtElL4AhXQnaDMZfCUNxKnyuuphu596qGdK7tJfjPjtOyFvCL9BWCPACSush6d1Grdx51SbVexwzwn3/gfrWXkvxYplok6JXxHYDnIkCUtGn28izAiCoVlsaANG+yLCKfgCqcJJWZFhfgHBusvrYTY16VSvlKEvZGcM+OPI7JmVrYMGv0s4I8AJK5xHp5Xbtu1IfmLxxfylpZeKZmpWZwerFUEDyXkY4i0FAQQFweMnriC1y5fjD2FfSAOowKBKVQTmVJ3w+1PcabYur3VNz105se98nkU5SHhHQzWcsKJhFIPchxd3zB9YbxbkXXSdmIiggbApQGx5A6FsSIsYBNstIioqlEiWCs2wVDhse7yamaZ02RVjpi++b/yfeHhiHzr8R0MEOGE1RIPvX0EgP3+yJOd0n3jszOePOh1nh1EaMlnHLAu2UX7O+iajUzre1MeKloI6HJRVFiukHc6MHZnXxau8nZubB3UgLxyBqxFo6pN19ZX8SLtA4I19DyeX1xVOr6wpn6vFlHe2MQekWsjXJ9ogGwevgL0o4YxIeRURgwvTMfAVtI0+Pgs8XrRFhFT4M5IbDWVRJrm6huw0NmdcBRMcL9zRf8HqAV1ur2oXoPJOthiBwBPV4gr4he0DgR0Fz/c9WLrj/ou1hXebVtUmy0hDhhkX6Aehh8mok2I1w+UHpKRfnh8RMflXf/grERjsqUyTRPmgL7fHSJB7vj4odfwTtwz6zf+2DxR5L68VAU5Y14pgO7v+xQ9nj9fNs0vO1hV9n1E2H4SQlwUL05HTT5Qws4LZvGlagQq2NI1CodkWspUxJFFmXthUWfT4Hen2PivuHbfhA98J/AdHoIkIhJHzWBNbzE9rUwTuHfvSe+W7howblDVpimTYCzUV7j1gIgFGpwZ8FBmzgajIOp1CNWOtCBKTZKR7r6tjktNysn/ynVOF+qzbOFm16TBG7M35DCtih67tG/7n3Q9lltYX3Ovx1v5UsNZ2dqt1DhOpaShDDdyUmawgsI1o8UhGzJkYlvZqopC+cfoPXjjT9i3nLYhUBDhhRerIhVG739mX5/Doch+vVHWLm7mSFdnmhPWWUn2xrCje0emo6k74fFpunjuMmsybEqEI/B8IZNL2X5LOsgAAAABJRU5ErkJggg==;" parent="112" vertex="1">
          <mxGeometry x="61" y="52" width="50" height="50" as="geometry" />
        </mxCell>
        <mxCell id="04WZsUDpDwZPiG7wF4kG-177" value="Main Config Database" style="aspect=fixed;html=1;perimeter=none;align=center;shadow=0;dashed=0;image;fontSize=12;image=img/lib/mscae/SQL_Database_generic.svg;labelBackgroundColor=none;" parent="132" vertex="1">
          <mxGeometry x="177.5" y="228" width="50" height="50" as="geometry" />
        </mxCell>
        <mxCell id="124" value="&lt;font style=&quot;font-size: 17px&quot; color=&quot;#ff3333&quot;&gt;Authentication / Authorization&lt;/font&gt;" style="edgeStyle=orthogonalEdgeStyle;rounded=0;html=1;labelBackgroundColor=#ffffff;startArrow=classic;startFill=1;startSize=4;endSize=4;jettySize=auto;orthogonalLoop=1;strokeColor=#4277BB;strokeWidth=2;fontSize=12;fontColor=#4277BB;endArrow=none;endFill=0;entryX=1.02;entryY=0.47;entryDx=0;entryDy=0;entryPerimeter=0;" parent="2" source="132" edge="1">
          <mxGeometry relative="1" as="geometry">
            <mxPoint x="254.77586206896558" y="273.3965517241379" as="sourcePoint" />
            <Array as="points">
              <mxPoint x="652" y="116" />
              <mxPoint x="351" y="116" />
              <mxPoint x="351" y="122" />
            </Array>
            <mxPoint x="306" y="122" as="targetPoint" />
          </mxGeometry>
        </mxCell>
        <mxCell id="150" style="edgeStyle=orthogonalEdgeStyle;rounded=0;html=1;exitX=0.75;exitY=1;entryX=0.75;entryY=1;endArrow=none;endFill=0;jettySize=auto;orthogonalLoop=1;strokeColor=#000000;fontSize=28;" parent="2" source="4" target="4" edge="1">
          <mxGeometry relative="1" as="geometry" />
        </mxCell>
        <mxCell id="153" value="&lt;font style=&quot;font-size: 18px&quot; color=&quot;#ff3333&quot;&gt;Log&lt;/font&gt;" style="edgeStyle=orthogonalEdgeStyle;rounded=0;html=1;labelBackgroundColor=#ffffff;startArrow=classic;startFill=1;startSize=4;endSize=4;jettySize=auto;orthogonalLoop=1;strokeColor=#4277BB;strokeWidth=2;fontSize=12;fontColor=#4277BB;endArrow=none;endFill=0;exitX=0.5;exitY=0;entryX=0.631;entryY=1.006;entryPerimeter=0;exitDx=0;exitDy=0;entryDx=0;entryDy=0;" parent="2" source="04WZsUDpDwZPiG7wF4kG-184" target="20" edge="1">
          <mxGeometry relative="1" as="geometry">
            <mxPoint x="933.7142857142858" y="467.8571428571429" as="sourcePoint" />
            <Array as="points">
              <mxPoint x="1016" y="802" />
              <mxPoint x="971" y="802" />
              <mxPoint x="971" y="546" />
            </Array>
            <mxPoint x="994" y="566" as="targetPoint" />
          </mxGeometry>
        </mxCell>
        <mxCell id="166" value="" style="swimlane;shadow=0;labelBackgroundColor=#007FFF;strokeColor=#6c8ebf;fillColor=none;fontColor=#000000;align=right;collapsible=0;startSize=0;strokeWidth=4;swimlaneFillColor=#ffffff;dashed=1;swimlaneLine=0;" parent="2" vertex="1">
          <mxGeometry x="1361" y="286" width="158" height="101" as="geometry" />
        </mxCell>
        <mxCell id="am3dkxiVG4Bmk4tSDtxg-181" value="Third Party&lt;br&gt;Data Source&lt;br&gt;API" style="text;html=1;align=left;verticalAlign=middle;fontColor=#4277BB;shadow=0;dashed=0;strokeColor=none;fillColor=none;labelBackgroundColor=none;fontStyle=1;fontSize=18;spacingLeft=5;" parent="166" vertex="1">
          <mxGeometry x="6" y="37.5" width="152" height="20" as="geometry" />
        </mxCell>
        <mxCell id="20" value="" style="swimlane;shadow=1;labelBackgroundColor=#007FFF;strokeColor=#6c8ebf;fillColor=#dae8fc;fontColor=#000000;align=right;collapsible=0;startSize=0;strokeWidth=3;swimlaneFillColor=#ffffff;" parent="2" vertex="1">
          <mxGeometry x="790" y="236" width="270" height="308" as="geometry" />
        </mxCell>
        <mxCell id="21" value="&lt;font style=&quot;font-size: 18px&quot;&gt;Third Party Data Manager&lt;/font&gt;" style="text;html=1;align=left;verticalAlign=middle;fontColor=#4277BB;shadow=0;dashed=0;strokeColor=none;fillColor=none;labelBackgroundColor=none;fontStyle=1;fontSize=14;spacingLeft=5;" parent="20" vertex="1">
          <mxGeometry x="20" y="20" width="210" height="20" as="geometry" />
        </mxCell>
        <mxCell id="am3dkxiVG4Bmk4tSDtxg-182" value="Client" style="shadow=0;dashed=0;html=1;strokeColor=none;fillColor=#505050;labelPosition=center;verticalLabelPosition=bottom;verticalAlign=top;outlineConnect=0;shape=mxgraph.office.users.users;" parent="20" vertex="1">
          <mxGeometry x="88" y="62" width="46" height="50" as="geometry" />
        </mxCell>
        <mxCell id="am3dkxiVG4Bmk4tSDtxg-184" value="plugin-in 2" style="aspect=fixed;html=1;perimeter=none;align=center;shadow=0;dashed=0;image;fontSize=12;image=data:image/svg+xml,PHN2ZyB4bWxucz0iaHR0cDovL3d3dy53My5vcmcvMjAwMC9zdmciIHhtbG5zOnhsaW5rPSJodHRwOi8vd3d3LnczLm9yZy8xOTk5L3hsaW5rIiB2ZXJzaW9uPSIxLjEiIGlkPSJMYXllcl8xIiB4PSIwcHgiIHk9IjBweCIgdmlld0JveD0iMCAwIDUxMiA1MTIiIHN0eWxlPSJlbmFibGUtYmFja2dyb3VuZDpuZXcgMCAwIDUxMiA1MTI7IiB4bWw6c3BhY2U9InByZXNlcnZlIj4mI3hhOzxnPiYjeGE7CTxnPiYjeGE7CQk8Zz4mI3hhOwkJCTxyZWN0IHg9IjQ0NS4xNzYiIHk9IjIyMi4wNjYiIHdpZHRoPSIxNS4yMDgiIGhlaWdodD0iMzIuNjA2Ii8+JiN4YTsJCQk8cGF0aCBkPSJNNDY1LjI3NSwxMDMuNTM2VjU1LjIzN2MwLTEwLjg5LTguODU5LTE5Ljc1LTE5Ljc0OS0xOS43NUgyOTIuNzIxYy0xMC44OSwwLTE5Ljc1LDguODYtMTkuNzUsMTkuNzV2NDguMjk4aC0zOC40OTggICAgIFY1NS4yMzdjMC0xMC44OS04Ljg2LTE5Ljc1LTE5Ljc1LTE5Ljc1SDYxLjkxOGMtMTAuODkxLDAtMTkuNzUsOC44Ni0xOS43NSwxOS43NXY0OC4yOThIMHYzNzIuOTc3aDUxMlYxMDMuNTM2SDQ2NS4yNzV6ICAgICAgTTI4OC4xNzgsNTUuMjM3YzAtMi41MDUsMi4wMzgtNC41NDIsNC41NDItNC41NDJoMTUyLjgwNWMyLjUwNCwwLDQuNTQxLDIuMDM4LDQuNTQxLDQuNTQydjQ4LjI5OEg0MjIuNDdWNjQuMjY4aC0xNS4yMDh2MzkuMjY4ICAgICBIMjg4LjE3OFY1NS4yMzd6IE01Ny4zNzQsNTUuMjM3YzAtMi41MDUsMi4wMzgtNC41NDIsNC41NDItNC41NDJoMTUyLjgwNGMyLjUwNCwwLDQuNTQyLDIuMDM4LDQuNTQyLDQuNTQydjQ4LjI5OGgtMjkuMTI2ICAgICBWNjQuMjY4aC0xNS4yMDh2MzkuMjY4SDU3LjM3NFY1NS4yMzd6IE00OTYuNzkyLDQ2MS4zMDVoLTM2LjQwNFYyNjkuMjk4SDQ0NS4xOHYxOTIuMDA3SDE1LjIwOFYxMTguNzQzaDI2Ljk1OWgxOTIuMzA1aDM4LjQ5OCAgICAgaDE5Mi4zMDVoMzEuNTE3VjQ2MS4zMDV6Ii8+JiN4YTsJCQk8cGF0aCBkPSJNMzg1Ljc3NywyNzUuNzU3Yy0xLjAyOC0wLjA3OC0yLjA2Ny0wLjExOC0zLjA5Mi0wLjExOGMtMTAuMzI5LDAtMjAuMTE3LDMuOTQyLTI3LjU2MiwxMS4wOTYgICAgIGMtMC4wNTQsMC4wNTEtMC4xMDUsMC4xMDEtMC4xNTksMC4xNXYtODEuMDI4aC04MS4wMjdjMC4wNS0wLjA1NCwwLjA5OS0wLjEwNSwwLjE0OS0wLjE1OCAgICAgYzcuODM4LTguMTU2LDExLjg0LTE5LjMzLDEwLjk3OC0zMC42NTZjLTEuNDQ5LTE5LjAyNi0xNi4yNC0zNC4zNTMtMzUuMTcxLTM2LjQ0M2MtMS40OTQtMC4xNjQtMy4wMDgtMC4yNDgtNC41LTAuMjQ4ICAgICBjLTIxLjkzOSwwLTM5Ljc4NywxNy44NDgtMzkuNzg3LDM5Ljc4OGMwLDEwLjQxNCwzLjk5NCwyMC4yNTQsMTEuMjUsMjcuNzE5aC04MS4wMzF2OTkuMzM0aDcuNjA0ICAgICBjNi4yNDgsMCwxMi4yMzctMi40OTIsMTYuNDMxLTYuODM1YzUuMTIyLTUuMzAzLDEyLjIxMy04LjAwNiwxOS42MjEtNy40MzVjMTEuNTQ4LDAuODc4LDIxLjIxMywxMC4xOTYsMjIuNDgxLDIxLjY3MyAgICAgYzAuNzg3LDcuMTIxLTEuMzgxLDEzLjk0OC02LjEwNSwxOS4yMjNjLTQuNjYxLDUuMjA0LTExLjMzNyw4LjE4OS0xOC4zMTcsOC4xODljLTYuNjMxLDAtMTIuODQ2LTIuNjAyLTE3LjUwMi03LjMyOCAgICAgYy0zLjE4Ni0zLjIzMi03LjE3Ny01LjQ2My0xMS41NDItNi40NDljLTAuNzU3LTAuMTcyLTEuNTM0LTAuMjU5LTIuMzA3LTAuMjU5Yy01LjcxNSwwLTEwLjM2NCw0LjYzOS0xMC4zNjQsMTAuMzQzdjg4LjY4MSAgICAgaDg4Ljk5MWM1LjcwMywwLDEwLjM0My00LjYzOSwxMC4zNDMtMTAuMzQyYzAtNi4yNDgtMi40OTItMTIuMjM4LTYuODM2LTE2LjQzMmMtNS4yODUtNS4xMDMtNy45OTQtMTIuMjU2LTcuNDM1LTE5LjYyMiAgICAgYzAuODc5LTExLjU0OCwxMC4xOTctMjEuMjEyLDIxLjY3NS0yMi40OGMwLjk0My0wLjEwNSwxLjg5NS0wLjE1NywyLjgzMS0wLjE1N2MxMy41NTMsMCwyNC41OCwxMS4wMjcsMjQuNTgsMjQuNTggICAgIGMwLDYuNjA2LTIuNTg1LDEyLjgwNS03LjI4MSwxNy40NTZjLTQuNTU1LDQuNTE0LTcuMDY1LDEwLjM5Ni03LjA2NSwxNi41NjVjMCw1Ljc1Myw0LjY4LDEwLjQzMywxMC40MzQsMTAuNDMzaDg4Ljl2LTgxLjAzMSAgICAgYzcuNDY1LDcuMjU1LDE3LjMwNCwxMS4yNSwyNy43MTksMTEuMjVjMTEuMjk5LDAsMjIuMTA1LTQuODMsMjkuNjQ2LTEzLjI1MWM3LjUzNy04LjQxNSwxMS4xNDItMTkuNzI4LDkuODkzLTMxLjAzNyAgICAgQzQyMC4xMywyOTEuOTk1LDQwNC44MDMsMjc3LjIwNSwzODUuNzc3LDI3NS43NTd6IE00MDEuMDAxLDMzMS44MTdjLTQuNjYxLDUuMjA1LTExLjMzOCw4LjE5LTE4LjMxNyw4LjE5ICAgICBjLTYuNDU3LDAtMTIuNTU3LTIuNDg2LTE3LjE3NC03Yy00Ljg0My00LjczNy0xMS4yODctNy4zNDQtMTguMTQ4LTcuMzQ0aC03LjYwNHY4NC4xMjZoLTY3LjIyNyAgICAgYzAuMjYyLTAuMzQyLDAuNTUxLTAuNjcxLDAuODY4LTAuOTg3YzcuNi03LjUyOCwxMS43ODUtMTcuNTY0LDExLjc4NS0yOC4yNTljMC0yMS45NC0xNy44NDgtMzkuNzg4LTM5Ljc4OC0zOS43ODggICAgIGMtMS40OTEsMC0zLjAwNSwwLjA4NC00LjUsMC4yNDhjLTE4LjkzMSwyLjA5My0zMy43MjIsMTcuNDE5LTM1LjE3LDM2LjQ0MmMtMC45MDUsMTEuODk4LDMuNDgyLDIzLjQ1OCwxMi4wMzYsMzEuNzE4ICAgICBjMC4yMDIsMC4xOTUsMC4zOTEsMC40MDQsMC41NjksMC42MjVoLTY3LjI5NXYtNjQuNjkxYzcuMyw2LjU0MiwxNi42MTgsMTAuMTE3LDI2LjUwNywxMC4xMTcgICAgIGMxMS4yOTgsMCwyMi4xMDQtNC44MywyOS42NDYtMTMuMjUxYzcuNTM3LTguNDE1LDExLjE0Mi0xOS43MjgsOS44OTItMzEuMDM4Yy0yLjA5Mi0xOC45My0xNy40MTktMzMuNzItMzYuNDQ0LTM1LjE2OCAgICAgYy0xLjAyNy0wLjA3OC0yLjA2OC0wLjExOC0zLjA5Mi0wLjExOGMtOS45MDYsMC0xOS4yMTIsMy41NzEtMjYuNTA4LDEwLjExNnYtNjQuNjg5bDg0LjEyNi0wLjAwNXYtNy42MDQgICAgIGMwLTYuODU2LTIuNjA4LTEzLjI5OS03LjM0NC0xOC4xNDRjLTQuNTE1LTQuNjE4LTcuMDAxLTEwLjcxNi03LjAwMS0xNy4xNzRjMC0xMy41NTMsMTEuMDI2LTI0LjU4LDI0LjU3OS0yNC41OCAgICAgYzAuOTM2LDAsMS44ODgsMC4wNTMsMi44MzEsMC4xNTdjMTEuNDc4LDEuMjY3LDIwLjc5NiwxMC45MzIsMjEuNjc1LDIyLjQ4MWMwLjU0MSw3LjExNy0xLjg2NywxMy44NTEtNi43OCwxOC45NjQgICAgIGMtNC44MzEsNS4wMjYtNy40OTEsMTEuNTI1LTcuNDkxLDE4LjN2Ny42MDRoODQuMTI2djg0LjEyNmg3LjYwNGM2Ljc3NSwwLDEzLjI3My0yLjY2LDE4LjMwMS03LjQ5MSAgICAgYzUuMDYxLTQuODYzLDExLjkwMS03LjMxNCwxOC45NjMtNi43OGMxMS41NDgsMC44NzgsMjEuMjEzLDEwLjE5NiwyMi40ODEsMjEuNjc1ICAgICBDNDA3Ljg5MywzMTkuNzE3LDQwNS43MjUsMzI2LjU0Miw0MDEuMDAxLDMzMS44MTd6Ii8+JiN4YTsJCTwvZz4mI3hhOwk8L2c+JiN4YTs8L2c+JiN4YTs8Zz4mI3hhOzwvZz4mI3hhOzxnPiYjeGE7PC9nPiYjeGE7PGc+JiN4YTs8L2c+JiN4YTs8Zz4mI3hhOzwvZz4mI3hhOzxnPiYjeGE7PC9nPiYjeGE7PGc+JiN4YTs8L2c+JiN4YTs8Zz4mI3hhOzwvZz4mI3hhOzxnPiYjeGE7PC9nPiYjeGE7PGc+JiN4YTs8L2c+JiN4YTs8Zz4mI3hhOzwvZz4mI3hhOzxnPiYjeGE7PC9nPiYjeGE7PGc+JiN4YTs8L2c+JiN4YTs8Zz4mI3hhOzwvZz4mI3hhOzxnPiYjeGE7PC9nPiYjeGE7PGc+JiN4YTs8L2c+JiN4YTs8L3N2Zz4=;labelBackgroundColor=none;" parent="20" vertex="1">
          <mxGeometry x="134" y="194" width="50" height="50" as="geometry" />
        </mxCell>
        <mxCell id="am3dkxiVG4Bmk4tSDtxg-185" value="" style="edgeStyle=orthogonalEdgeStyle;rounded=0;html=1;labelBackgroundColor=#ffffff;startArrow=classic;startFill=1;startSize=4;endSize=4;jettySize=auto;orthogonalLoop=1;strokeColor=#4277BB;strokeWidth=2;fontSize=12;fontColor=#4277BB;endArrow=none;endFill=0;exitX=0.6;exitY=-0.06;exitDx=0;exitDy=0;exitPerimeter=0;" parent="20" edge="1">
          <mxGeometry relative="1" as="geometry">
            <mxPoint x="63" y="191" as="sourcePoint" />
            <Array as="points">
              <mxPoint x="63" y="164" />
              <mxPoint x="114" y="164" />
            </Array>
            <mxPoint x="114" y="134" as="targetPoint" />
          </mxGeometry>
        </mxCell>
        <mxCell id="am3dkxiVG4Bmk4tSDtxg-186" value="" style="edgeStyle=orthogonalEdgeStyle;rounded=0;html=1;labelBackgroundColor=#ffffff;startArrow=classic;startFill=1;startSize=4;endSize=4;jettySize=auto;orthogonalLoop=1;strokeColor=#4277BB;strokeWidth=2;fontSize=12;fontColor=#4277BB;endArrow=none;endFill=0;exitX=0.68;exitY=-0.02;exitDx=0;exitDy=0;exitPerimeter=0;" parent="20" source="am3dkxiVG4Bmk4tSDtxg-184" target="am3dkxiVG4Bmk4tSDtxg-182" edge="1">
          <mxGeometry relative="1" as="geometry">
            <mxPoint y="201" as="sourcePoint" />
            <Array as="points">
              <mxPoint x="168" y="164" />
              <mxPoint x="111" y="164" />
            </Array>
            <mxPoint x="40" y="134" as="targetPoint" />
          </mxGeometry>
        </mxCell>
        <mxCell id="04WZsUDpDwZPiG7wF4kG-178" value="plugin-in 1" style="aspect=fixed;html=1;perimeter=none;align=center;shadow=0;dashed=0;image;fontSize=12;image=data:image/svg+xml,PHN2ZyB4bWxucz0iaHR0cDovL3d3dy53My5vcmcvMjAwMC9zdmciIHhtbG5zOnhsaW5rPSJodHRwOi8vd3d3LnczLm9yZy8xOTk5L3hsaW5rIiB2ZXJzaW9uPSIxLjEiIGlkPSJMYXllcl8xIiB4PSIwcHgiIHk9IjBweCIgdmlld0JveD0iMCAwIDUxMiA1MTIiIHN0eWxlPSJlbmFibGUtYmFja2dyb3VuZDpuZXcgMCAwIDUxMiA1MTI7IiB4bWw6c3BhY2U9InByZXNlcnZlIj4mI3hhOzxnPiYjeGE7CTxnPiYjeGE7CQk8Zz4mI3hhOwkJCTxyZWN0IHg9IjQ0NS4xNzYiIHk9IjIyMi4wNjYiIHdpZHRoPSIxNS4yMDgiIGhlaWdodD0iMzIuNjA2Ii8+JiN4YTsJCQk8cGF0aCBkPSJNNDY1LjI3NSwxMDMuNTM2VjU1LjIzN2MwLTEwLjg5LTguODU5LTE5Ljc1LTE5Ljc0OS0xOS43NUgyOTIuNzIxYy0xMC44OSwwLTE5Ljc1LDguODYtMTkuNzUsMTkuNzV2NDguMjk4aC0zOC40OTggICAgIFY1NS4yMzdjMC0xMC44OS04Ljg2LTE5Ljc1LTE5Ljc1LTE5Ljc1SDYxLjkxOGMtMTAuODkxLDAtMTkuNzUsOC44Ni0xOS43NSwxOS43NXY0OC4yOThIMHYzNzIuOTc3aDUxMlYxMDMuNTM2SDQ2NS4yNzV6ICAgICAgTTI4OC4xNzgsNTUuMjM3YzAtMi41MDUsMi4wMzgtNC41NDIsNC41NDItNC41NDJoMTUyLjgwNWMyLjUwNCwwLDQuNTQxLDIuMDM4LDQuNTQxLDQuNTQydjQ4LjI5OEg0MjIuNDdWNjQuMjY4aC0xNS4yMDh2MzkuMjY4ICAgICBIMjg4LjE3OFY1NS4yMzd6IE01Ny4zNzQsNTUuMjM3YzAtMi41MDUsMi4wMzgtNC41NDIsNC41NDItNC41NDJoMTUyLjgwNGMyLjUwNCwwLDQuNTQyLDIuMDM4LDQuNTQyLDQuNTQydjQ4LjI5OGgtMjkuMTI2ICAgICBWNjQuMjY4aC0xNS4yMDh2MzkuMjY4SDU3LjM3NFY1NS4yMzd6IE00OTYuNzkyLDQ2MS4zMDVoLTM2LjQwNFYyNjkuMjk4SDQ0NS4xOHYxOTIuMDA3SDE1LjIwOFYxMTguNzQzaDI2Ljk1OWgxOTIuMzA1aDM4LjQ5OCAgICAgaDE5Mi4zMDVoMzEuNTE3VjQ2MS4zMDV6Ii8+JiN4YTsJCQk8cGF0aCBkPSJNMzg1Ljc3NywyNzUuNzU3Yy0xLjAyOC0wLjA3OC0yLjA2Ny0wLjExOC0zLjA5Mi0wLjExOGMtMTAuMzI5LDAtMjAuMTE3LDMuOTQyLTI3LjU2MiwxMS4wOTYgICAgIGMtMC4wNTQsMC4wNTEtMC4xMDUsMC4xMDEtMC4xNTksMC4xNXYtODEuMDI4aC04MS4wMjdjMC4wNS0wLjA1NCwwLjA5OS0wLjEwNSwwLjE0OS0wLjE1OCAgICAgYzcuODM4LTguMTU2LDExLjg0LTE5LjMzLDEwLjk3OC0zMC42NTZjLTEuNDQ5LTE5LjAyNi0xNi4yNC0zNC4zNTMtMzUuMTcxLTM2LjQ0M2MtMS40OTQtMC4xNjQtMy4wMDgtMC4yNDgtNC41LTAuMjQ4ICAgICBjLTIxLjkzOSwwLTM5Ljc4NywxNy44NDgtMzkuNzg3LDM5Ljc4OGMwLDEwLjQxNCwzLjk5NCwyMC4yNTQsMTEuMjUsMjcuNzE5aC04MS4wMzF2OTkuMzM0aDcuNjA0ICAgICBjNi4yNDgsMCwxMi4yMzctMi40OTIsMTYuNDMxLTYuODM1YzUuMTIyLTUuMzAzLDEyLjIxMy04LjAwNiwxOS42MjEtNy40MzVjMTEuNTQ4LDAuODc4LDIxLjIxMywxMC4xOTYsMjIuNDgxLDIxLjY3MyAgICAgYzAuNzg3LDcuMTIxLTEuMzgxLDEzLjk0OC02LjEwNSwxOS4yMjNjLTQuNjYxLDUuMjA0LTExLjMzNyw4LjE4OS0xOC4zMTcsOC4xODljLTYuNjMxLDAtMTIuODQ2LTIuNjAyLTE3LjUwMi03LjMyOCAgICAgYy0zLjE4Ni0zLjIzMi03LjE3Ny01LjQ2My0xMS41NDItNi40NDljLTAuNzU3LTAuMTcyLTEuNTM0LTAuMjU5LTIuMzA3LTAuMjU5Yy01LjcxNSwwLTEwLjM2NCw0LjYzOS0xMC4zNjQsMTAuMzQzdjg4LjY4MSAgICAgaDg4Ljk5MWM1LjcwMywwLDEwLjM0My00LjYzOSwxMC4zNDMtMTAuMzQyYzAtNi4yNDgtMi40OTItMTIuMjM4LTYuODM2LTE2LjQzMmMtNS4yODUtNS4xMDMtNy45OTQtMTIuMjU2LTcuNDM1LTE5LjYyMiAgICAgYzAuODc5LTExLjU0OCwxMC4xOTctMjEuMjEyLDIxLjY3NS0yMi40OGMwLjk0My0wLjEwNSwxLjg5NS0wLjE1NywyLjgzMS0wLjE1N2MxMy41NTMsMCwyNC41OCwxMS4wMjcsMjQuNTgsMjQuNTggICAgIGMwLDYuNjA2LTIuNTg1LDEyLjgwNS03LjI4MSwxNy40NTZjLTQuNTU1LDQuNTE0LTcuMDY1LDEwLjM5Ni03LjA2NSwxNi41NjVjMCw1Ljc1Myw0LjY4LDEwLjQzMywxMC40MzQsMTAuNDMzaDg4Ljl2LTgxLjAzMSAgICAgYzcuNDY1LDcuMjU1LDE3LjMwNCwxMS4yNSwyNy43MTksMTEuMjVjMTEuMjk5LDAsMjIuMTA1LTQuODMsMjkuNjQ2LTEzLjI1MWM3LjUzNy04LjQxNSwxMS4xNDItMTkuNzI4LDkuODkzLTMxLjAzNyAgICAgQzQyMC4xMywyOTEuOTk1LDQwNC44MDMsMjc3LjIwNSwzODUuNzc3LDI3NS43NTd6IE00MDEuMDAxLDMzMS44MTdjLTQuNjYxLDUuMjA1LTExLjMzOCw4LjE5LTE4LjMxNyw4LjE5ICAgICBjLTYuNDU3LDAtMTIuNTU3LTIuNDg2LTE3LjE3NC03Yy00Ljg0My00LjczNy0xMS4yODctNy4zNDQtMTguMTQ4LTcuMzQ0aC03LjYwNHY4NC4xMjZoLTY3LjIyNyAgICAgYzAuMjYyLTAuMzQyLDAuNTUxLTAuNjcxLDAuODY4LTAuOTg3YzcuNi03LjUyOCwxMS43ODUtMTcuNTY0LDExLjc4NS0yOC4yNTljMC0yMS45NC0xNy44NDgtMzkuNzg4LTM5Ljc4OC0zOS43ODggICAgIGMtMS40OTEsMC0zLjAwNSwwLjA4NC00LjUsMC4yNDhjLTE4LjkzMSwyLjA5My0zMy43MjIsMTcuNDE5LTM1LjE3LDM2LjQ0MmMtMC45MDUsMTEuODk4LDMuNDgyLDIzLjQ1OCwxMi4wMzYsMzEuNzE4ICAgICBjMC4yMDIsMC4xOTUsMC4zOTEsMC40MDQsMC41NjksMC42MjVoLTY3LjI5NXYtNjQuNjkxYzcuMyw2LjU0MiwxNi42MTgsMTAuMTE3LDI2LjUwNywxMC4xMTcgICAgIGMxMS4yOTgsMCwyMi4xMDQtNC44MywyOS42NDYtMTMuMjUxYzcuNTM3LTguNDE1LDExLjE0Mi0xOS43MjgsOS44OTItMzEuMDM4Yy0yLjA5Mi0xOC45My0xNy40MTktMzMuNzItMzYuNDQ0LTM1LjE2OCAgICAgYy0xLjAyNy0wLjA3OC0yLjA2OC0wLjExOC0zLjA5Mi0wLjExOGMtOS45MDYsMC0xOS4yMTIsMy41NzEtMjYuNTA4LDEwLjExNnYtNjQuNjg5bDg0LjEyNi0wLjAwNXYtNy42MDQgICAgIGMwLTYuODU2LTIuNjA4LTEzLjI5OS03LjM0NC0xOC4xNDRjLTQuNTE1LTQuNjE4LTcuMDAxLTEwLjcxNi03LjAwMS0xNy4xNzRjMC0xMy41NTMsMTEuMDI2LTI0LjU4LDI0LjU3OS0yNC41OCAgICAgYzAuOTM2LDAsMS44ODgsMC4wNTMsMi44MzEsMC4xNTdjMTEuNDc4LDEuMjY3LDIwLjc5NiwxMC45MzIsMjEuNjc1LDIyLjQ4MWMwLjU0MSw3LjExNy0xLjg2NywxMy44NTEtNi43OCwxOC45NjQgICAgIGMtNC44MzEsNS4wMjYtNy40OTEsMTEuNTI1LTcuNDkxLDE4LjN2Ny42MDRoODQuMTI2djg0LjEyNmg3LjYwNGM2Ljc3NSwwLDEzLjI3My0yLjY2LDE4LjMwMS03LjQ5MSAgICAgYzUuMDYxLTQuODYzLDExLjkwMS03LjMxNCwxOC45NjMtNi43OGMxMS41NDgsMC44NzgsMjEuMjEzLDEwLjE5NiwyMi40ODEsMjEuNjc1ICAgICBDNDA3Ljg5MywzMTkuNzE3LDQwNS43MjUsMzI2LjU0Miw0MDEuMDAxLDMzMS44MTd6Ii8+JiN4YTsJCTwvZz4mI3hhOwk8L2c+JiN4YTs8L2c+JiN4YTs8Zz4mI3hhOzwvZz4mI3hhOzxnPiYjeGE7PC9nPiYjeGE7PGc+JiN4YTs8L2c+JiN4YTs8Zz4mI3hhOzwvZz4mI3hhOzxnPiYjeGE7PC9nPiYjeGE7PGc+JiN4YTs8L2c+JiN4YTs8Zz4mI3hhOzwvZz4mI3hhOzxnPiYjeGE7PC9nPiYjeGE7PGc+JiN4YTs8L2c+JiN4YTs8Zz4mI3hhOzwvZz4mI3hhOzxnPiYjeGE7PC9nPiYjeGE7PGc+JiN4YTs8L2c+JiN4YTs8Zz4mI3hhOzwvZz4mI3hhOzxnPiYjeGE7PC9nPiYjeGE7PGc+JiN4YTs8L2c+JiN4YTs8L3N2Zz4=;labelBackgroundColor=none;" parent="20" vertex="1">
          <mxGeometry x="38" y="194" width="50" height="50" as="geometry" />
        </mxCell>
        <mxCell id="0b9E7sUC0C0v7_xQRQP2-184" value="Any SQL Server" style="aspect=fixed;html=1;perimeter=none;align=center;shadow=0;dashed=0;image;fontSize=12;image=img/lib/mscae/SQL_Database_generic.svg;labelBackgroundColor=none;" vertex="1" parent="20">
          <mxGeometry x="191" y="62" width="50" height="50" as="geometry" />
        </mxCell>
        <mxCell id="177" value="" style="edgeStyle=orthogonalEdgeStyle;rounded=0;html=1;labelBackgroundColor=#ffffff;startArrow=none;startFill=0;startSize=4;endSize=4;jettySize=auto;orthogonalLoop=1;strokeColor=#4277BB;strokeWidth=2;fontSize=12;fontColor=#4277BB;endArrow=classic;endFill=1;exitX=0;exitY=0.871;entryX=1.014;entryY=0.714;entryDx=0;entryDy=0;entryPerimeter=0;exitDx=0;exitDy=0;exitPerimeter=0;" parent="2" source="166" target="20" edge="1">
          <mxGeometry relative="1" as="geometry">
            <mxPoint x="1331" y="430" as="sourcePoint" />
            <Array as="points">
              <mxPoint x="1271" y="374" />
              <mxPoint x="1271" y="456" />
            </Array>
            <mxPoint x="1031" y="596" as="targetPoint" />
          </mxGeometry>
        </mxCell>
        <mxCell id="04WZsUDpDwZPiG7wF4kG-179" value="" style="swimlane;shadow=0;labelBackgroundColor=#007FFF;strokeColor=#6c8ebf;fillColor=none;fontColor=#000000;align=right;collapsible=0;startSize=0;strokeWidth=4;swimlaneFillColor=#ffffff;dashed=1;swimlaneLine=0;" parent="2" vertex="1">
          <mxGeometry x="711" y="840" width="169" height="96" as="geometry" />
        </mxCell>
        <mxCell id="04WZsUDpDwZPiG7wF4kG-180" value="Internal&lt;br&gt;Data Warehouse&lt;br&gt;API" style="text;html=1;align=left;verticalAlign=middle;fontColor=#4277BB;shadow=0;dashed=0;strokeColor=none;fillColor=none;labelBackgroundColor=none;fontStyle=1;fontSize=18;spacingLeft=5;" parent="04WZsUDpDwZPiG7wF4kG-179" vertex="1">
          <mxGeometry x="17" y="46.5" width="152" height="20" as="geometry" />
        </mxCell>
        <mxCell id="04WZsUDpDwZPiG7wF4kG-181" value="&lt;font style=&quot;font-size: 18px&quot; color=&quot;#ff3333&quot;&gt;Sync&lt;/font&gt;" style="edgeStyle=orthogonalEdgeStyle;rounded=0;html=1;labelBackgroundColor=#ffffff;startArrow=classic;startFill=1;startSize=4;endSize=4;jettySize=auto;orthogonalLoop=1;strokeColor=#4277BB;strokeWidth=2;fontSize=12;fontColor=#4277BB;exitX=0.171;exitY=1;exitDx=0;exitDy=0;exitPerimeter=0;entryX=0.704;entryY=0;entryDx=0;entryDy=0;entryPerimeter=0;" parent="2" source="20" target="04WZsUDpDwZPiG7wF4kG-179" edge="1">
          <mxGeometry relative="1" as="geometry">
            <mxPoint x="885" y="415" as="sourcePoint" />
            <Array as="points">
              <mxPoint x="836" y="626" />
              <mxPoint x="831" y="626" />
              <mxPoint x="831" y="816" />
              <mxPoint x="830" y="816" />
            </Array>
            <mxPoint x="831" y="816" as="targetPoint" />
          </mxGeometry>
        </mxCell>
        <mxCell id="04WZsUDpDwZPiG7wF4kG-184" value="" style="swimlane;shadow=0;labelBackgroundColor=#007FFF;strokeColor=#6c8ebf;fillColor=none;fontColor=#000000;align=right;collapsible=0;startSize=0;strokeWidth=4;swimlaneFillColor=#ffffff;dashed=1;swimlaneLine=0;" parent="2" vertex="1">
          <mxGeometry x="931" y="816" width="169" height="120" as="geometry" />
        </mxCell>
        <mxCell id="04WZsUDpDwZPiG7wF4kG-185" value="Centralized Log&lt;br&gt;System" style="text;html=1;align=left;verticalAlign=middle;fontColor=#4277BB;shadow=0;dashed=0;strokeColor=none;fillColor=none;labelBackgroundColor=none;fontStyle=1;fontSize=18;spacingLeft=5;" parent="04WZsUDpDwZPiG7wF4kG-184" vertex="1">
          <mxGeometry x="17" y="46.5" width="152" height="20" as="geometry" />
        </mxCell>
        <mxCell id="04WZsUDpDwZPiG7wF4kG-183" value="&lt;font color=&quot;#ff3333&quot;&gt;&lt;span style=&quot;font-size: 18px&quot;&gt;Read/Write&lt;/span&gt;&lt;/font&gt;" style="edgeStyle=orthogonalEdgeStyle;rounded=0;html=1;labelBackgroundColor=#ffffff;startArrow=classic;startFill=1;startSize=4;endSize=4;jettySize=auto;orthogonalLoop=1;strokeColor=#4277BB;strokeWidth=2;fontSize=12;fontColor=#4277BB;entryX=1.014;entryY=0.667;entryDx=0;entryDy=0;exitX=0.25;exitY=0;exitDx=0;exitDy=0;entryPerimeter=0;" parent="2" source="04WZsUDpDwZPiG7wF4kG-179" target="45" edge="1">
          <mxGeometry relative="1" as="geometry">
            <mxPoint x="1015.0920000000001" y="261.924" as="sourcePoint" />
            <Array as="points">
              <mxPoint x="753" y="806" />
            </Array>
            <mxPoint x="996" y="206" as="targetPoint" />
          </mxGeometry>
        </mxCell>
        <mxCell id="04WZsUDpDwZPiG7wF4kG-187" value="" style="edgeStyle=orthogonalEdgeStyle;rounded=0;html=1;labelBackgroundColor=#ffffff;startArrow=classic;startFill=1;startSize=4;endSize=4;jettySize=auto;orthogonalLoop=1;strokeColor=#4277BB;strokeWidth=2;fontSize=12;fontColor=#4277BB;endArrow=classic;endFill=1;entryX=0.5;entryY=0;entryDx=0;entryDy=0;exitX=0.5;exitY=1;exitDx=0;exitDy=0;" parent="2" source="132" target="45" edge="1">
          <mxGeometry relative="1" as="geometry">
            <mxPoint x="662" y="278" as="sourcePoint" />
            <Array as="points">
              <mxPoint x="524" y="656" />
              <mxPoint x="507" y="656" />
            </Array>
            <mxPoint x="316" y="132" as="targetPoint" />
          </mxGeometry>
        </mxCell>
        <mxCell id="04WZsUDpDwZPiG7wF4kG-188" value="" style="edgeStyle=orthogonalEdgeStyle;rounded=0;html=1;labelBackgroundColor=#ffffff;startArrow=classic;startFill=1;startSize=4;endSize=4;jettySize=auto;orthogonalLoop=1;strokeColor=#4277BB;strokeWidth=2;fontSize=12;fontColor=#4277BB;endArrow=classic;endFill=1;entryX=0;entryY=0.25;entryDx=0;entryDy=0;exitX=1;exitY=0.5;exitDx=0;exitDy=0;exitPerimeter=0;" parent="2" source="76" target="45" edge="1">
          <mxGeometry relative="1" as="geometry">
            <mxPoint x="553.5" y="618" as="sourcePoint" />
            <Array as="points">
              <mxPoint x="351" y="696" />
              <mxPoint x="351" y="746" />
            </Array>
            <mxPoint x="517" y="720" as="targetPoint" />
          </mxGeometry>
        </mxCell>
        <mxCell id="176" value="" style="edgeStyle=orthogonalEdgeStyle;rounded=0;html=1;labelBackgroundColor=#ffffff;startArrow=classic;startFill=1;startSize=4;endSize=4;jettySize=auto;orthogonalLoop=1;strokeColor=#4277BB;strokeWidth=2;fontSize=12;fontColor=#4277BB;endArrow=classic;endFill=1;exitX=0;exitY=0.5;entryX=1.009;entryY=0.208;entryDx=0;entryDy=0;entryPerimeter=0;" parent="2" source="166" target="20" edge="1">
          <mxGeometry relative="1" as="geometry">
            <mxPoint x="1143" y="526.3333333333335" as="sourcePoint" />
            <Array as="points">
              <mxPoint x="1341" y="337" />
              <mxPoint x="1341" y="300" />
            </Array>
            <mxPoint x="1031" y="684" as="targetPoint" />
          </mxGeometry>
        </mxCell>
        <mxCell id="04WZsUDpDwZPiG7wF4kG-189" value="&lt;font color=&quot;#ff3333&quot;&gt;&lt;span style=&quot;font-size: 18px&quot;&gt;Get Pages&lt;/span&gt;&lt;/font&gt;" style="edgeStyle=orthogonalEdgeStyle;rounded=0;html=1;labelBackgroundColor=#ffffff;startArrow=classic;startFill=1;startSize=4;endSize=4;jettySize=auto;orthogonalLoop=1;strokeColor=#4277BB;strokeWidth=2;fontSize=12;fontColor=#4277BB;entryX=1;entryY=0.25;entryDx=0;entryDy=0;exitX=0;exitY=0.899;exitDx=0;exitDy=0;exitPerimeter=0;" parent="2" source="20" target="45" edge="1">
          <mxGeometry relative="1" as="geometry">
            <mxPoint x="763.25" y="850" as="sourcePoint" />
            <Array as="points">
              <mxPoint x="763" y="513" />
              <mxPoint x="763" y="676" />
              <mxPoint x="761" y="676" />
              <mxPoint x="761" y="746" />
            </Array>
            <mxPoint x="647.0419999999999" y="816.0479999999998" as="targetPoint" />
          </mxGeometry>
        </mxCell>
        <mxCell id="0b9E7sUC0C0v7_xQRQP2-179" value="" style="line;strokeWidth=3;direction=south;html=1;shadow=0;labelBackgroundColor=none;fillColor=none;gradientColor=none;fontSize=12;fontColor=#4277BB;align=right;strokeColor=#4277BB;" vertex="1" parent="2">
          <mxGeometry x="1281" y="1" width="10" height="259" as="geometry" />
        </mxCell>
        <mxCell id="0b9E7sUC0C0v7_xQRQP2-178" value="&lt;font style=&quot;font-size: 18px&quot;&gt;Public API&lt;/font&gt;" style="aspect=fixed;html=1;perimeter=none;align=center;shadow=0;dashed=0;image;fontSize=12;image=img/lib/mscae/Webhooks.svg;" vertex="1" parent="2">
          <mxGeometry x="1271" y="276" width="50" height="50" as="geometry" />
        </mxCell>
        <mxCell id="0b9E7sUC0C0v7_xQRQP2-186" value="" style="edgeStyle=orthogonalEdgeStyle;rounded=0;html=1;labelBackgroundColor=#ffffff;startArrow=classic;startFill=1;startSize=4;endSize=4;jettySize=auto;orthogonalLoop=1;strokeColor=#4277BB;strokeWidth=2;fontSize=12;fontColor=#4277BB;endArrow=classic;endFill=1;entryX=0.004;entryY=0.62;entryDx=0;entryDy=0;exitX=1.007;exitY=0.617;exitDx=0;exitDy=0;exitPerimeter=0;entryPerimeter=0;" edge="1" parent="2" source="132" target="20">
          <mxGeometry relative="1" as="geometry">
            <mxPoint x="533.5" y="562" as="sourcePoint" />
            <Array as="points">
              <mxPoint x="761" y="427" />
              <mxPoint x="761" y="427" />
            </Array>
            <mxPoint x="517" y="720" as="targetPoint" />
          </mxGeometry>
        </mxCell>
        <mxCell id="am3dkxiVG4Bmk4tSDtxg-189" value="" style="swimlane;shadow=1;labelBackgroundColor=#007FFF;strokeColor=#6c8ebf;fillColor=#dae8fc;fontColor=#000000;align=right;collapsible=0;startSize=0;strokeWidth=3;swimlaneFillColor=#ffffff;" parent="1" vertex="1">
          <mxGeometry x="1110" y="1620" width="140" height="156" as="geometry" />
        </mxCell>
        <mxCell id="am3dkxiVG4Bmk4tSDtxg-190" value="Custom API" style="text;html=1;align=left;verticalAlign=middle;fontColor=#4277BB;shadow=0;dashed=0;strokeColor=none;fillColor=none;labelBackgroundColor=none;fontStyle=1;fontSize=18;spacingLeft=5;" parent="am3dkxiVG4Bmk4tSDtxg-189" vertex="1">
          <mxGeometry x="20.5" y="20" width="99" height="34" as="geometry" />
        </mxCell>
        <mxCell id="am3dkxiVG4Bmk4tSDtxg-191" value="WASM Processor" style="aspect=fixed;html=1;perimeter=none;align=center;shadow=0;dashed=0;image;fontSize=12;image=img/lib/mscae/Automation.svg;labelBackgroundColor=none;" parent="am3dkxiVG4Bmk4tSDtxg-189" vertex="1">
          <mxGeometry x="45" y="70" width="50" height="50" as="geometry" />
        </mxCell>
        <mxCell id="am3dkxiVG4Bmk4tSDtxg-194" value="" style="swimlane;shadow=1;labelBackgroundColor=#007FFF;strokeColor=#6c8ebf;fillColor=#dae8fc;fontColor=#000000;align=right;collapsible=0;startSize=0;strokeWidth=3;swimlaneFillColor=#ffffff;" parent="1" vertex="1">
          <mxGeometry x="1120" y="1440" width="140" height="156" as="geometry" />
        </mxCell>
        <mxCell id="am3dkxiVG4Bmk4tSDtxg-195" value="Data Syncer" style="text;html=1;align=left;verticalAlign=middle;fontColor=#4277BB;shadow=0;dashed=0;strokeColor=none;fillColor=none;labelBackgroundColor=none;fontStyle=1;fontSize=18;spacingLeft=5;" parent="am3dkxiVG4Bmk4tSDtxg-194" vertex="1">
          <mxGeometry x="10" y="20" width="99" height="34" as="geometry" />
        </mxCell>
        <mxCell id="04WZsUDpDwZPiG7wF4kG-182" value="WASM Processor" style="aspect=fixed;html=1;perimeter=none;align=center;shadow=0;dashed=0;image;fontSize=12;image=img/lib/mscae/Automation.svg;labelBackgroundColor=none;" parent="am3dkxiVG4Bmk4tSDtxg-194" vertex="1">
          <mxGeometry x="50" y="70" width="50" height="50" as="geometry" />
        </mxCell>
        <mxCell id="0b9E7sUC0C0v7_xQRQP2-177" value="&lt;font style=&quot;font-size: 18px&quot;&gt;Internal Data Access API&lt;/font&gt;" style="aspect=fixed;html=1;perimeter=none;align=center;shadow=0;dashed=0;image;fontSize=12;image=img/lib/mscae/Webhooks.svg;" vertex="1" parent="1">
          <mxGeometry x="264" y="1362.5" width="50" height="50" as="geometry" />
        </mxCell>
      </root>
    </mxGraphModel>
  </diagram>
</mxfile>
